<svg width="173" height="136" viewBox="0 0 173 136" fill="none" xmlns="http://www.w3.org/2000/svg">
<path d="M119.251 28.7631H140.116C141.61 28.7631 142.823 29.9741 142.823 31.465V51.5456C141.67 52.2742 140.593 53.2693 139.636 54.5713L137.41 57.6038V34.167H119.251V68.6645C118.248 70.4253 117.646 72.3514 117.116 74.1527L116.758 75.3063C116.014 77.6608 115.008 79.8263 113.842 81.83V5.40384H5.41299V112.752C5.63262 116 6.59561 118.453 8.31209 120.082C10.0624 121.745 12.7114 122.686 16.2795 122.895L96.0553 122.892C97.0757 124.828 98.3529 126.676 99.8194 128.296H16.3437L15.9822 128.272C11.0862 127.989 7.29504 126.552 4.59192 123.985C1.87529 121.408 0.361542 117.812 0.0304101 113.224C0.0101367 113.086 0 112.944 0 112.799V2.70192C0 1.21097 1.21302 0 2.7065 0H116.548C118.042 0 119.251 1.21097 119.251 2.70192V28.7631ZM64.8444 108.465C63.4624 108.465 62.3406 107.348 62.3406 105.969C62.3406 104.589 63.4624 103.469 64.8444 103.469H97.515C98.8969 103.469 100.015 104.589 100.015 105.969C100.015 107.348 98.8969 108.465 97.515 108.465H64.8444ZM21.7432 108.448C20.3714 108.448 19.2563 107.338 19.2563 105.969C19.2563 104.599 20.3714 103.486 21.7432 103.486H51.8863C53.2582 103.486 54.3732 104.599 54.3732 105.969C54.3732 107.338 53.2582 108.448 51.8863 108.448H21.7432ZM64.8444 93.8014C63.4624 93.8014 62.3406 92.6849 62.3406 91.3053C62.3406 89.9257 63.4624 88.8091 64.8444 88.8091H97.515C98.8969 88.8091 100.015 89.9257 100.015 91.3053C100.015 92.6849 98.8969 93.8014 97.515 93.8014H64.8444ZM21.7432 93.7879C20.3714 93.7879 19.2563 92.6748 19.2563 91.3053C19.2563 89.9358 20.3714 88.8226 21.7432 88.8226H51.8863C53.2582 88.8226 54.3732 89.9358 54.3732 91.3053C54.3732 92.6748 53.2582 93.7879 51.8863 93.7879H21.7432ZM21.7432 79.1214C20.3714 79.1214 19.2563 78.0082 19.2563 76.6387C19.2563 75.2725 20.3714 74.1594 21.7432 74.1594H51.8863C53.2582 74.1594 54.3698 75.2725 54.3698 76.6387C54.3698 78.0082 53.2582 79.1214 51.8863 79.1214H21.7432ZM64.8444 79.1382C63.4624 79.1382 62.3406 78.0183 62.3406 76.6387C62.3406 75.2624 63.4624 74.1425 64.8444 74.1425H97.515C98.8969 74.1425 100.015 75.2624 100.015 76.6387C100.015 78.0183 98.8969 79.1382 97.515 79.1382H64.8444ZM105.773 111.099C105.53 112.131 105.597 113.258 105.874 114.381C106.743 117.903 110.209 122.673 114.284 123.03C116.653 123.232 120.076 120.78 122.289 119.38C122.569 119.212 122.897 119.144 123.201 119.178C124.154 119.262 124.418 120.068 124.816 120.77C125.631 122.237 126.442 123.708 127.3 125.155C128.064 126.43 128.827 127.624 129.608 128.66L129.625 128.687L129.716 128.812C129.797 128.926 129.922 129.102 130.054 129.274L130.077 129.304C130.55 129.952 131.04 130.623 131.547 131.227C132.034 131.807 132.52 132.31 132.983 132.64C133.311 132.866 133.642 132.981 133.967 132.903C134.872 132.694 136.224 130.373 136.619 129.513C136.781 129.166 136.896 128.805 136.943 128.431C136.771 128.383 136.548 128.356 136.325 128.329L136.308 128.326C132.652 127.891 132.916 126.073 132.429 123.577C132.348 123.212 132.26 123.3 131.841 123.098C131.219 122.814 130.784 122.48 130.375 121.93C129.645 120.952 129.381 119.613 129.314 118.419C129.131 115.106 129.908 115.231 132.453 114.216C135.997 112.806 139.086 112.02 141.819 111.585C144.556 111.15 146.935 111.065 149.074 111.042C144.651 108.117 140.103 103.435 136.281 98.2203C132.358 92.8738 129.179 86.9505 127.641 81.7558C126.614 84.7512 125.148 88.3841 122.661 92.3409C119.833 96.8474 106.526 107.861 105.773 111.099ZM143.921 70.6209C142.539 72.5032 139.677 70.4084 141.052 68.5296L147.219 60.1202C148.604 58.2312 151.466 60.326 150.084 62.2116L143.921 70.6209ZM162.718 99.8124L162.684 99.8259C160.464 100.45 159.484 97.1004 161.697 96.4258L170.736 93.7778C172.976 93.1302 173.979 96.4966 171.743 97.1746L162.718 99.8124ZM160.251 91.0388C158.075 91.899 156.767 88.6169 158.93 87.7533L167.066 84.5083C169.208 83.6583 170.563 86.9201 168.384 87.7938L160.251 91.0388ZM156.5 83.3345C154.541 84.6163 152.598 81.6411 154.551 80.3694C157.213 78.7436 159.798 76.7972 162.461 75.1714C164.37 73.9806 166.346 76.8714 164.37 78.1634L156.5 83.3345ZM150.516 76.5038C148.84 78.1229 146.374 75.593 148.05 73.9604L155.041 67.2073C156.727 65.5915 159.18 68.1349 157.501 69.754L150.516 76.5038ZM135.017 91.14C136.511 90.5497 137.987 90.2832 139.44 90.4451C143.65 90.968 146.637 94.1927 146.114 98.2608C145.985 99.8361 145.428 101.567 144.431 103.462C145.262 104.258 146.144 105.058 147.09 105.877C148.445 107.048 149.82 108.087 151.196 108.944C152.442 109.723 153.693 110.36 154.933 110.816C156.565 110.489 156.379 108.272 156.227 106.964C155.95 104.774 155.007 102.143 153.615 99.3368C152.091 96.2537 150.033 92.975 147.729 89.8514C145.468 86.7818 142.975 83.8674 140.515 81.432C138.917 79.8432 137.329 78.4636 135.849 77.3774C134.578 76.4565 132.307 74.9791 130.686 74.9251C129.885 74.8981 129.75 75.2321 129.692 76.0012C129.591 77.1582 129.787 78.612 130.226 80.2682C130.76 82.2517 131.649 84.5218 132.821 86.9067C133.287 87.8579 135.017 91.2277 135.017 91.14ZM147.536 114.027C143.529 114.162 138.633 114.729 132.213 117.491C132.203 117.795 132.209 118.115 132.237 118.432C132.27 118.911 132.429 120.126 132.926 120.379C133.186 120.5 133.46 120.628 133.72 120.767C134.24 121.04 134.571 121.286 134.879 121.792L134.886 121.806C135.582 122.925 135.119 125.226 136.66 125.425H136.666C139.072 125.698 139.927 126.832 139.92 128.306C139.917 130.127 137.683 134.084 135.909 135.315C135.423 135.649 134.933 135.858 134.443 135.946C133.341 136.145 132.291 135.781 131.28 135.076C130.463 134.509 129.709 133.699 129.003 132.826C127.482 130.944 125.992 128.802 124.779 126.754C124.046 125.519 123.279 124.143 122.505 122.75L122.485 122.76C121.907 123.121 121.353 123.506 120.779 123.87C118.718 125.202 116.771 126.295 113.943 126.015C108.507 125.462 103.918 119.616 102.898 114.584C102.614 113.167 102.583 111.737 102.904 110.391C104.573 103.331 120.181 95.7916 125.763 78.0352L125.769 78.0082C126.472 75.765 127.121 72.4155 129.878 72.0647C131.73 71.8184 133.71 72.6583 135.288 73.5556L135.315 73.5725C137.528 74.8374 140.011 76.8512 142.505 79.3136C145.097 81.8739 147.715 84.93 150.08 88.148C152.513 91.447 154.693 94.9213 156.308 98.2136C157.801 101.253 158.818 104.154 159.133 106.623C159.261 107.672 159.271 108.654 159.139 109.554C158.737 112.418 157.396 113.528 154.375 113.875C152.415 114.098 149.611 113.963 147.536 114.027Z" fill="black"/>
<rect x="20" y="54" width="80" height="5" rx="2.5" fill="black"/>
<rect x="20" y="34" width="80" height="5" rx="2.5" fill="black"/>
<path d="M51.6957 67.676C56.2657 67.676 59.9839 63.9581 59.9839 59.3878C59.9839 54.8175 56.2657 51.0996 51.6957 51.0996C47.1256 51.0996 43.4075 54.8175 43.4075 59.3878C43.4075 63.9581 47.1256 67.676 51.6957 67.676ZM51.6957 53.4867C54.9496 53.4867 57.5971 56.1341 57.5971 59.3881C57.5971 62.642 54.9496 65.2895 51.6957 65.2895C48.4417 65.2895 45.7943 62.642 45.7943 59.3881C45.7943 56.1341 48.4417 53.4867 51.6957 53.4867Z" fill="white"/>
<path d="M48.7688 26.1016C48.7688 28.3658 50.6107 30.2079 52.8748 30.2079C55.139 30.2079 56.9811 28.3658 56.9811 26.1016C56.9811 23.8377 55.1392 21.9956 52.8748 21.9956C50.6107 21.9956 48.7688 23.8377 48.7688 26.1016ZM54.5941 26.1016C54.5941 27.0499 53.8229 27.8211 52.8746 27.8211C51.9266 27.8211 51.1554 27.0499 51.1554 26.1016C51.1554 25.1536 51.9266 24.3824 52.8746 24.3824C53.8229 24.3824 54.5941 25.1538 54.5941 26.1016Z" fill="white"/>
<path d="M51.6959 89.8931C51.0321 89.8931 50.4941 90.4311 50.4941 91.0948C50.4941 91.7586 51.0321 92.2968 51.6959 92.2968C52.3597 92.2968 52.8977 91.7588 52.8977 91.0948C52.8979 90.4313 52.3597 89.8931 51.6959 89.8931Z" fill="white"/>
<path d="M38.5663 89.8931C37.9025 89.8931 37.3645 90.4311 37.3645 91.0948C37.3645 91.7586 37.9025 92.2968 38.5663 92.2968C39.23 92.2968 39.768 91.7588 39.768 91.0948C39.768 90.4313 39.23 89.8931 38.5663 89.8931Z" fill="white"/>
<path d="M65.3998 89.8931C64.736 89.8931 64.198 90.4311 64.198 91.0948C64.198 91.7586 64.736 92.2968 65.3998 92.2968C66.0635 92.2968 66.6015 91.7588 66.6015 91.0948C66.6015 90.4313 66.0635 89.8931 65.3998 89.8931Z" fill="white"/>
<path d="M110.129 81.3952C110.793 81.3952 111.331 80.8572 111.331 80.1935C111.331 79.5297 110.793 78.9917 110.129 78.9917C109.466 78.9917 108.928 79.5297 108.928 80.1935C108.928 80.8572 109.466 81.3952 110.129 81.3952Z" fill="white"/>
<path d="M104.805 81.3924C105.467 81.3453 105.965 80.7705 105.918 80.1084C105.871 79.4464 105.296 78.9478 104.634 78.9949C103.972 79.0419 103.474 79.6168 103.521 80.2788C103.568 80.9409 104.143 81.4394 104.805 81.3924Z" fill="white"/>
<path d="M100.711 80.3119C100.776 79.6514 100.294 79.063 99.6335 78.9976C98.9731 78.9322 98.3847 79.4147 98.3193 80.0751C98.2539 80.7356 98.7363 81.324 99.3968 81.3894C100.057 81.4547 100.646 80.9723 100.711 80.3119Z" fill="white"/>
<path d="M110.129 86.3566C110.793 86.3566 111.331 85.8186 111.331 85.1549C111.331 84.4912 110.793 83.9531 110.129 83.9531C109.466 83.9531 108.928 84.4912 108.928 85.1549C108.928 85.8186 109.466 86.3566 110.129 86.3566Z" fill="white"/>
<path d="M104.805 86.3543C105.467 86.3072 105.965 85.7324 105.918 85.0703C105.871 84.4083 105.296 83.9097 104.634 83.9568C103.972 84.0038 103.474 84.5787 103.521 85.2407C103.568 85.9028 104.143 86.4014 104.805 86.3543Z" fill="white"/>
<path d="M100.711 85.2728C100.776 84.6123 100.294 84.0239 99.6335 83.9586C98.9731 83.8932 98.3847 84.3756 98.3193 85.0361C98.2539 85.6965 98.7363 86.2849 99.3968 86.3503C100.057 86.4157 100.646 85.9333 100.711 85.2728Z" fill="white"/>
<path d="M110.129 89.0215C109.466 89.0215 108.928 89.5595 108.928 90.2235C108.928 90.8873 109.466 91.4252 110.129 91.4252C110.793 91.4252 111.331 90.8873 111.331 90.2235C111.331 89.5597 110.793 89.0215 110.129 89.0215Z" fill="white"/>
<path d="M104.718 89.0215C104.055 89.0215 103.517 89.5595 103.517 90.2235C103.517 90.8873 104.055 91.4252 104.718 91.4252C105.382 91.4252 105.92 90.8873 105.92 90.2235C105.92 89.5597 105.382 89.0215 104.718 89.0215Z" fill="white"/>
<path d="M99.5209 89.0215C98.8571 89.0215 98.3191 89.5595 98.3191 90.2235C98.3191 90.8873 98.8571 91.4252 99.5209 91.4252C100.185 91.4252 100.723 90.8873 100.723 90.2235C100.723 89.5597 100.185 89.0215 99.5209 89.0215Z" fill="white"/>
</svg>
