<svg width="23" height="22" viewBox="0 0 23 22" fill="none" xmlns="http://www.w3.org/2000/svg">
<path d="M7.23577 2.23623L8.22302 1.92089C9.14702 1.62573 10.1352 2.10331 10.5312 3.03648L11.3195 4.89548C11.6633 5.70489 11.4726 6.65731 10.8484 7.24948L9.11311 8.89764C9.22036 9.88398 9.55127 10.8547 10.1068 11.8099C10.6346 12.7341 11.3425 13.5429 12.1885 14.1886L14.2749 13.492C15.065 13.2289 15.9258 13.5323 16.4107 14.2446L17.54 15.9037C18.1047 16.7324 18.0029 17.8746 17.3035 18.5767L16.5537 19.3293C15.8075 20.0782 14.7424 20.3505 13.756 20.0425C11.4286 19.3165 9.28911 17.1614 7.33661 13.5772C5.38136 9.98756 4.69202 6.94056 5.26677 4.43989C5.50877 3.38756 6.25861 2.54881 7.23761 2.23623H7.23577Z" fill="white"/>
</svg>
