<?xml version="1.0" encoding="utf-8"?>
<!-- Generator: Adobe Illustrator 16.0.0, SVG Export Plug-In . SVG Version: 6.00 Build 0)  -->
<!DOCTYPE svg PUBLIC "-//W3C//DTD SVG 1.1//EN" "http://www.w3.org/Graphics/SVG/1.1/DTD/svg11.dtd">
<svg version="1.1" id="Layer_1" xmlns="http://www.w3.org/2000/svg" xmlns:xlink="http://www.w3.org/1999/xlink" x="0px" y="0px"
	 width="16px" height="16px" viewBox="0 0 16 16" enable-background="new 0 0 16 16" xml:space="preserve">
<path fill="#FFFFFF" d="M1.5,1.5C1.224,1.5,1,1.724,1,2v4.8c0,1.381,1.119,2.5,2.5,2.5h9.793l-3.347,3.347
	c-0.196,0.195-0.196,0.512,0,0.707c0.195,0.196,0.513,0.196,0.708,0l4.199-4.199c0.196-0.195,0.196-0.512,0.002-0.708
	c-0.001,0-0.001,0-0.002,0l-4-4c-0.195-0.196-0.512-0.196-0.707,0c-0.196,0.195-0.196,0.512,0,0.708L13.293,8.3H3.5
	C2.672,8.3,2,7.628,2,6.8V2C2,1.724,1.776,1.5,1.5,1.5z"/>
</svg>
