<?xml version="1.0" encoding="utf-8"?>
<!-- Generator: Adobe Illustrator 16.0.0, SVG Export Plug-In . SVG Version: 6.00 Build 0)  -->
<!DOCTYPE svg PUBLIC "-//W3C//DTD SVG 1.1//EN" "http://www.w3.org/Graphics/SVG/1.1/DTD/svg11.dtd">
<svg version="1.1" id="Layer_1" xmlns="http://www.w3.org/2000/svg" xmlns:xlink="http://www.w3.org/1999/xlink" x="0px" y="0px"
	 width="320.071px" height="320.344px" viewBox="0 0 320.071 320.344" enable-background="new 0 0 320.071 320.344"
	 xml:space="preserve">
<path fill-rule="evenodd" clip-rule="evenodd" fill="#0E89CC" d="M158.047,89.969c24.266,24.266,48.282,48.283,72.41,72.411
	c-14.859,12.526-29.849,25.166-44.841,37.801c-29.706,25.036-59.386,50.104-89.131,75.093c-20.594,17.302-50.563,9.326-58.86-15.722
	c-4.319-13.041-1.526-24.884,7.217-35.328c12.991-15.517,26.069-30.961,39.111-46.435c24.071-28.56,48.142-57.121,72.215-85.679
	C156.811,91.348,157.482,90.612,158.047,89.969z"/>
<path fill-rule="evenodd" clip-rule="evenodd" d="M320.071,80.583c-0.487,23.968-9.509,44.036-27.372,60.133
	c-1.813,1.633-2.835,1.845-4.713-0.04c-35.988-36.116-72.033-72.175-108.163-108.148c-2.08-2.07-1.771-3.14-0.014-5.018
	c22.935-24.527,50.979-33.255,82.998-23.75c32.19,9.556,50.824,32.371,56.482,65.594C319.924,73.077,319.924,76.814,320.071,80.583z
	"/>
<path fill-rule="evenodd" clip-rule="evenodd" fill="#0E89CC" d="M170.1,41.578c36.387,36.39,72.564,72.572,108.738,108.75
	c-9.219,5.244-19.4,8.287-30.162,9.606c-1.645,0.202-2.536-0.489-3.534-1.488c-27.631-27.654-55.267-55.303-82.938-82.916
	c-1.271-1.266-1.694-2.456-1.501-4.272C161.824,60.7,165.029,50.836,170.1,41.578z"/>
<path fill-rule="evenodd" clip-rule="evenodd" fill="#EF0000" d="M24.678,261.745C30.455,278.769,41.66,290,58.637,295.607
	c-7.723,7.813-15.227,15.616-23.002,23.14c-2.277,2.204-5.535,2.102-7.854-0.155c-8.763-8.525-17.406-17.176-25.962-25.909
	c-2.279-2.327-2.461-5.6-0.293-7.857C9.011,277.029,16.812,269.538,24.678,261.745z"/>
<text transform="matrix(0.7068 -0.7074 0.7074 0.7068 97.3887 250.5176)" fill="#EF0000" font-family="'MyriadPro-Regular'" font-size="51.8592">NEWS</text>
</svg>
