<?xml version="1.0" encoding="utf-8"?>
<!-- Generator: Adobe Illustrator 16.0.0, SVG Export Plug-In . SVG Version: 6.00 Build 0)  -->
<!DOCTYPE svg PUBLIC "-//W3C//DTD SVG 1.1//EN" "http://www.w3.org/Graphics/SVG/1.1/DTD/svg11.dtd">
<svg version="1.1" id="Layer_1" xmlns="http://www.w3.org/2000/svg" xmlns:xlink="http://www.w3.org/1999/xlink" x="0px" y="0px"
	 width="16px" height="16px" viewBox="0 0 16 16" enable-background="new 0 0 16 16" xml:space="preserve">
<path fill="#FFFFFF" d="M2,0C0.896,0,0,0.896,0,2v12c0,1.104,0.896,2,2,2h12c1.104,0,2-0.896,2-2V2c0-1.104-0.896-2-2-2H2z
	 M5.354,4.646L8,7.293l2.646-2.647c0.195-0.196,0.512-0.196,0.707,0c0.196,0.196,0.196,0.512,0,0.708L8.707,8l2.646,2.646
	c0.196,0.195,0.196,0.512,0,0.707c-0.195,0.196-0.512,0.196-0.707,0L8,8.707l-2.646,2.646c-0.196,0.196-0.512,0.196-0.708,0
	c-0.196-0.195-0.196-0.512,0-0.707L7.293,8L4.646,5.354c-0.196-0.196-0.196-0.512,0-0.708S5.158,4.45,5.354,4.646z"/>
</svg>
