<svg width="103" height="90" viewBox="0 0 103 90" fill="none" xmlns="http://www.w3.org/2000/svg">
<path d="M73.3485 51.5586L70.1085 42.6502C69.2776 40.3633 66.719 38.5713 64.2858 38.5713H38.5715C36.1383 38.5713 33.5797 40.3633 32.7472 42.6502L29.5152 51.5361C27.3456 52.0054 25.7144 53.9404 25.7144 56.2499V69.107C25.7144 71.7652 27.8776 73.9284 30.5358 73.9284H46.6072V77.1427H27.3215C26.4344 77.1427 25.7144 77.8611 25.7144 78.7499V88.3927C25.7144 89.2815 26.4344 89.9999 27.3215 89.9999H75.5358C76.4229 89.9999 77.1429 89.2815 77.1429 88.3927V78.7499C77.1429 77.8611 76.4229 77.1427 75.5358 77.1427H56.2501V73.9284H72.3215C74.9797 73.9284 77.1429 71.7652 77.1429 69.107V56.2499C77.1429 53.9758 75.5615 52.0649 73.3485 51.5586ZM73.9286 86.7856H28.9286V80.357H48.2144H54.6429H73.9286V86.7856ZM53.0358 77.1427H49.8215V73.9284H53.0358V77.1427ZM73.9286 69.107C73.9286 69.9941 73.207 70.7141 72.3215 70.7141H54.6429H48.2144H30.5358C29.6502 70.7141 28.9286 69.9941 28.9286 69.107V56.2499C28.9286 55.3627 29.6502 54.6427 30.682 54.6427C31.357 54.6427 31.9613 54.22 32.1927 53.5852L35.7686 43.7495C36.1431 42.7209 37.4786 41.7856 38.5715 41.7856H64.2858C65.3786 41.7856 66.7142 42.7209 67.0886 43.7495L70.6661 53.5852C70.896 54.22 71.6465 54.6427 72.3215 54.6427C73.207 54.6427 73.9286 55.3627 73.9286 56.2499V69.107Z" fill="white"/>
<path d="M37.522 54.6429H65.3352C65.8591 54.6429 66.3509 54.3873 66.6515 53.9566C66.9536 53.5275 67.0243 52.9795 66.8459 52.4861L64.5075 46.0575C64.2761 45.4227 63.6734 45 62.9968 45H39.8604C39.1838 45 38.5811 45.4227 38.3497 46.0575L36.0113 52.4861C35.8329 52.9795 35.9052 53.5275 36.2057 53.9566C36.5063 54.3873 36.9981 54.6429 37.522 54.6429ZM40.9854 48.2143H61.8718L63.0402 51.4286H39.817L40.9854 48.2143Z" fill="white"/>
<path d="M36.9645 57.8569C34.3063 57.8569 32.1431 60.0201 32.1431 62.6784C32.1431 65.3366 34.3063 67.4998 36.9645 67.4998C39.6227 67.4998 41.7859 65.3366 41.7859 62.6784C41.7859 60.0201 39.6227 57.8569 36.9645 57.8569ZM36.9645 64.2855C36.079 64.2855 35.3574 63.5655 35.3574 62.6784C35.3574 61.7912 36.079 61.0712 36.9645 61.0712C37.85 61.0712 38.5716 61.7912 38.5716 62.6784C38.5716 63.5655 37.85 64.2855 36.9645 64.2855Z" fill="white"/>
<path d="M65.8927 57.8569C63.2345 57.8569 61.0713 60.0201 61.0713 62.6784C61.0713 65.3366 63.2345 67.4998 65.8927 67.4998C68.5509 67.4998 70.7141 65.3366 70.7141 62.6784C70.7141 60.0201 68.5509 57.8569 65.8927 57.8569ZM65.8927 64.2855C65.0072 64.2855 64.2856 63.5655 64.2856 62.6784C64.2856 61.7912 65.0072 61.0712 65.8927 61.0712C66.7783 61.0712 67.4999 61.7912 67.4999 62.6784C67.4999 63.5655 66.7783 64.2855 65.8927 64.2855Z" fill="white"/>
<path d="M57.0534 64.2856H45.8034C44.9163 64.2856 44.1963 65.004 44.1963 65.8928C44.1963 66.7815 44.9163 67.4999 45.8034 67.4999H57.0534C57.9406 67.4999 58.6606 66.7815 58.6606 65.8928C58.6606 65.004 57.9406 64.2856 57.0534 64.2856Z" fill="white"/>
<path d="M48.2141 59.4644C47.3269 59.4644 46.6069 60.1827 46.6069 61.0715C46.6069 61.9602 47.3269 62.6786 48.2141 62.6786H54.6426C55.5298 62.6786 56.2498 61.9602 56.2498 61.0715C56.2498 60.1827 55.5298 59.4644 54.6426 59.4644H48.2141Z" fill="white"/>
<path d="M17.6786 61.0714H16.0714V14.4241C16.6645 13.9757 17.1884 13.4502 17.6384 12.8571H34.3655C35.1048 13.5032 35.9855 13.9805 36.9659 14.2361V25.0473L34.2225 27.7907C33.9188 28.0929 33.75 28.5011 33.75 28.9286V32.1429C33.75 33.0316 34.47 33.75 35.3571 33.75C36.2443 33.75 36.9643 33.0316 36.9643 32.1429V29.5939L38.5714 27.9868L40.1786 29.5939V32.1429C40.1786 33.0316 40.8986 33.75 41.7857 33.75C42.6729 33.75 43.3929 33.0316 43.3929 32.1429V28.9286C43.3929 28.5011 43.2225 28.0929 42.922 27.7923L40.1786 25.0489V14.2377C42.9429 13.5193 45 11.0234 45 8.03732C45 4.49196 42.1168 1.60875 38.5714 1.60875C36.9562 1.60875 35.4954 2.22911 34.3639 3.21589H17.6384C16.1679 1.27446 13.8648 0 11.25 0C6.81911 0 3.21429 3.60482 3.21429 8.03571C3.21429 10.6505 4.48875 12.9552 6.42857 14.4241V61.0714H4.82143C2.16321 61.0714 0 63.2346 0 65.8929V85.1786C0 87.8368 2.16321 90 4.82143 90H17.6786C20.3368 90 22.5 87.8368 22.5 85.1786V65.8929C22.5 63.2346 20.3368 61.0714 17.6786 61.0714ZM41.7857 8.03571C41.7857 9.80679 40.3441 11.25 38.5714 11.25C36.7987 11.25 35.3571 9.80679 35.3571 8.03571C35.3571 6.26464 36.7987 4.82143 38.5714 4.82143C40.3441 4.82143 41.7857 6.26464 41.7857 8.03571ZM32.3711 6.42857C32.2377 6.94446 32.1429 7.47643 32.1429 8.03571C32.1429 8.595 32.2377 9.12696 32.3711 9.64286H19.1234C19.2295 9.12375 19.2857 8.58696 19.2857 8.03571C19.2857 7.48446 19.2295 6.94768 19.1234 6.42857H32.3711ZM11.25 3.21429C13.9082 3.21429 16.0714 5.3775 16.0714 8.03571C16.0714 10.6939 13.9082 12.8571 11.25 12.8571C8.59179 12.8571 6.42857 10.6939 6.42857 8.03571C6.42857 5.3775 8.59179 3.21429 11.25 3.21429ZM9.64286 15.9075C10.162 16.0152 10.7004 16.0714 11.25 16.0714C11.7996 16.0714 12.338 16.0152 12.8571 15.9075V61.0714H9.64286V15.9075ZM17.6786 86.7857H4.82143C3.93589 86.7857 3.21429 86.0657 3.21429 85.1786V65.8929C3.21429 65.0057 3.93589 64.2857 4.82143 64.2857H8.03571H14.4643H17.6786C18.5641 64.2857 19.2857 65.0057 19.2857 65.8929V67.5H11.25C10.3629 67.5 9.64286 68.2184 9.64286 69.1071C9.64286 69.9959 10.3629 70.7143 11.25 70.7143H19.2857V80.3571H11.25C10.3629 80.3571 9.64286 81.0755 9.64286 81.9643C9.64286 82.853 10.3629 83.5714 11.25 83.5714H19.2857V85.1786C19.2857 86.0657 18.5641 86.7857 17.6786 86.7857Z" fill="white"/>
<path d="M98.0356 61.0715H96.4285V28.8885C98.3683 27.4195 99.6428 25.1149 99.6428 22.5001C99.6428 18.0692 96.038 14.4644 91.6071 14.4644C88.9923 14.4644 86.6876 15.7388 85.2187 17.6786H78.1344C77.003 16.6919 75.5437 16.0715 73.9269 16.0715C70.9408 16.0715 68.4449 18.127 67.7265 20.8929H57.8571C55.1989 20.8929 53.0356 23.0561 53.0356 25.7144C53.0356 27.8069 54.3824 29.5731 56.2499 30.2385V32.1429C56.2499 33.0317 56.9699 33.7501 57.8571 33.7501C58.7442 33.7501 59.4642 33.0317 59.4642 32.1429V30.2385C61.3317 29.5731 62.6785 27.8052 62.6785 25.7144C62.6785 25.147 62.5628 24.6135 62.3828 24.1072H67.7281C68.4465 26.8731 70.9424 28.9286 73.9285 28.9286C75.5437 28.9286 77.0046 28.3083 78.136 27.3215H85.2203C85.6687 27.9145 86.1942 28.4385 86.7873 28.8885V61.0715H85.1801C82.5219 61.0715 80.3587 63.2347 80.3587 65.8929V85.1786C80.3587 87.8369 82.5219 90.0001 85.1801 90.0001H98.0373C100.695 90.0001 102.859 87.8369 102.859 85.1786V65.8929C102.857 63.2347 100.694 61.0715 98.0356 61.0715ZM91.6071 17.6786C94.2653 17.6786 96.4285 19.8419 96.4285 22.5001C96.4285 25.1583 94.2653 27.3215 91.6071 27.3215C88.9489 27.3215 86.7856 25.1583 86.7856 22.5001C86.7856 19.8419 88.9489 17.6786 91.6071 17.6786ZM59.4642 25.7144C59.4642 26.6015 58.7426 27.3215 57.8571 27.3215C56.9715 27.3215 56.2499 26.6015 56.2499 25.7144C56.2499 24.8272 56.9715 24.1072 57.8571 24.1072C58.7426 24.1072 59.4642 24.8272 59.4642 25.7144ZM70.7142 22.5001C70.7142 20.7274 72.1558 19.2858 73.9285 19.2858C75.7012 19.2858 77.1428 20.7274 77.1428 22.5001C77.1428 24.2727 75.7012 25.7144 73.9285 25.7144C72.1558 25.7144 70.7142 24.2727 70.7142 22.5001ZM80.1289 24.1072C80.2623 23.5913 80.3571 23.0594 80.3571 22.5001C80.3571 21.9408 80.2623 21.4088 80.1289 20.8929H83.7337C83.6276 21.412 83.5714 21.9488 83.5714 22.5001C83.5714 23.0513 83.6276 23.5881 83.7337 24.1072H80.1289ZM89.9999 30.3719C90.519 30.4795 91.0574 30.5358 91.6071 30.5358C92.1567 30.5358 92.6951 30.4795 93.2142 30.3719V61.0715H89.9999V30.3719ZM98.0356 86.7858H85.1785C84.293 86.7858 83.5714 86.0658 83.5714 85.1786V65.8929C83.5714 65.0058 84.293 64.2858 85.1785 64.2858H88.3928H94.8214H98.0356C98.9212 64.2858 99.6428 65.0058 99.6428 65.8929V67.5001H91.6071C90.7199 67.5001 89.9999 68.2185 89.9999 69.1072C89.9999 69.996 90.7199 70.7144 91.6071 70.7144H99.6428V80.3572H91.6071C90.7199 80.3572 89.9999 81.0756 89.9999 81.9644C89.9999 82.8531 90.7199 83.5715 91.6071 83.5715H99.6428V85.1786C99.6428 86.0658 98.9212 86.7858 98.0356 86.7858Z" fill="white"/>
</svg>
