<svg width="80" height="80" viewBox="0 0 80 80" fill="none" xmlns="http://www.w3.org/2000/svg">
<g clip-path="url(#clip0_517_299)">
<path d="M17.1354 72.1484V30.2604H2.32422V73.2292H16.276C15.856 73.8756 15.5848 74.6071 15.4818 75.3711L15.4427 75.5534H1.16536C0.858534 75.5534 0.564075 75.4324 0.345897 75.2167C0.127719 75.0009 0.00342828 74.7079 0 74.401L0 29.6354C0.00339246 29.182 0.183191 28.7476 0.501302 28.4245C0.660339 28.2655 0.849135 28.1394 1.05691 28.0534C1.26468 27.9674 1.48737 27.9231 1.71224 27.9232H17.1354V2.04428C17.1349 1.77672 17.1876 1.51174 17.2904 1.26473C17.3932 1.01772 17.5442 0.793626 17.7344 0.605475C17.9232 0.413879 18.1482 0.261695 18.3963 0.157757C18.6444 0.0538195 18.9107 0.000198339 19.1797 6.12489e-06H60.638C60.9066 -0.000653318 61.1726 0.0519432 61.4207 0.154753C61.6687 0.257563 61.894 0.408545 62.0833 0.598964L62.1745 0.696621C62.5066 1.06682 62.6898 1.54693 62.6888 2.04428V27.9232H78.3138C78.7658 27.9241 79.199 28.1044 79.5182 28.4245C79.8371 28.7445 80.0172 29.1772 80.0195 29.6289V74.3945C80.0195 74.7036 79.8968 75 79.6782 75.2186C79.4597 75.4371 79.1632 75.5599 78.8542 75.5599H64.5573L64.5182 75.3776C64.4167 74.6133 64.1453 73.8814 63.724 73.2357H77.6758V30.2669H62.7018V71.9336C62.5391 71.7253 62.3568 71.4974 62.1615 71.237C61.7461 70.69 61.27 70.1921 60.7422 69.7526L60.3906 69.4727V2.32422H19.4596V69.6029L19.2904 69.7396C18.757 70.1751 18.2783 70.6735 17.8646 71.224C17.5846 71.5885 17.3438 71.875 17.1354 72.1484ZM48.2552 68.8086C50.3058 70.2015 52.5323 71.3158 54.8763 72.1224C59.6419 73.7305 59.6224 73.1315 59.6224 79.9349H43.724L48.2813 68.8216L48.2552 68.8086ZM31.4323 68.8086C29.3809 70.2 27.1546 71.3143 24.8112 72.1224C20.0456 73.7305 20.0586 73.1315 20.0586 79.9349H35.9635L31.4063 68.8216L31.4323 68.8086ZM34.6875 65.8333C34.8047 64.8893 32.0247 61.3281 31.5169 59.5964C30.4232 57.8646 30.0391 55.0977 31.2305 53.2878C31.6992 52.5586 31.4974 51.9271 31.4974 50.9245C31.4974 40.9766 48.9323 40.9701 48.9323 50.9245C48.9323 52.1875 48.6523 52.4805 49.3294 53.4766C50.4688 55.1237 49.8828 58.0339 48.9193 59.6029C48.2682 61.4063 45.3841 64.8112 45.599 65.8333C45.7813 70.9375 34.6745 70.7682 34.707 65.8333H34.6875ZM41.0482 74.6615H41.6667C41.798 74.6623 41.9283 74.6372 42.0499 74.5875C42.1715 74.5378 42.282 74.4646 42.3752 74.372C42.4684 74.2794 42.5424 74.1693 42.5928 74.0481C42.6433 73.9268 42.6693 73.7967 42.6693 73.6654V72.0378C42.6693 71.7719 42.5636 71.5168 42.3756 71.3288C42.1876 71.1408 41.9326 71.0352 41.6667 71.0352H38.0534C37.922 71.0352 37.792 71.0611 37.6707 71.1116C37.5494 71.1621 37.4393 71.236 37.3467 71.3292C37.2541 71.4224 37.1809 71.533 37.1312 71.6546C37.0816 71.7762 37.0564 71.9064 37.0573 72.0378V73.6589C37.0564 73.7902 37.0816 73.9204 37.1312 74.042C37.1809 74.1636 37.2541 74.2742 37.3467 74.3674C37.4393 74.4606 37.5494 74.5346 37.6707 74.585C37.792 74.6355 37.922 74.6615 38.0534 74.6615H38.7044L37.513 79.9219H42.2461L41.1003 74.6615H41.0482ZM67.207 52.526H72.0378C72.1419 52.526 72.2331 52.5911 72.2331 52.6628V56.4583C72.2331 56.5365 72.1419 56.6081 72.0378 56.6081H67.207C67.1029 56.6081 67.0117 56.543 67.0117 56.4583V52.6562C67.0117 52.5846 67.1029 52.5195 67.207 52.5195V52.526ZM7.8125 52.5195H12.6432C12.7474 52.5195 12.8385 52.5846 12.8385 52.6562V56.4518C12.8385 56.5299 12.7474 56.6016 12.6432 56.6016H7.8125C7.70833 56.6016 7.61719 56.5365 7.61719 56.4518V52.6562C7.61719 52.5846 7.70833 52.5195 7.8125 52.5195ZM24.6745 6.83594H55.1497C55.3955 6.83766 55.6307 6.93651 55.8038 7.11092C55.977 7.28532 56.0742 7.52114 56.0742 7.76693V21.3477C56.0742 21.5935 55.977 21.8293 55.8038 22.0037C55.6307 22.1781 55.3955 22.2769 55.1497 22.2787H24.6745C24.4287 22.2769 24.1936 22.1781 24.0204 22.0037C23.8472 21.8293 23.75 21.5935 23.75 21.3477V7.76693C23.7483 7.64474 23.7709 7.52343 23.8167 7.41012C23.8625 7.29681 23.9304 7.19378 24.0165 7.10707C24.1026 7.02035 24.2052 6.95171 24.3181 6.90515C24.4311 6.85859 24.5523 6.83506 24.6745 6.83594ZM67.2331 44.2318H72.0638C72.168 44.2318 72.2591 44.2969 72.2591 44.375V48.1771C72.2591 48.2487 72.168 48.3203 72.0638 48.3203H67.2331C67.1289 48.3203 67.0378 48.2552 67.0378 48.1771V44.375C67.0378 44.2839 67.1289 44.2318 67.2331 44.2318ZM67.2331 35.931H72.0638C72.168 35.931 72.2591 35.9961 72.2591 36.0742V39.8698C72.2591 39.9414 72.168 40.013 72.0638 40.013H67.2331C67.1289 40.013 67.0378 39.9479 67.0378 39.8698V36.0742C67.0378 35.9961 67.1289 35.931 67.2331 35.931ZM7.8125 44.2318H12.6432C12.7474 44.2318 12.8385 44.2969 12.8385 44.375V48.1771C12.8385 48.2487 12.7474 48.3203 12.6432 48.3203H7.8125C7.70833 48.3203 7.61719 48.2552 7.61719 48.1771V44.375C7.61719 44.2839 7.70833 44.2318 7.8125 44.2318ZM7.8125 35.931H12.6432C12.7474 35.931 12.8385 35.9961 12.8385 36.0742V39.8698C12.8385 39.9414 12.7474 40.013 12.6432 40.013H7.8125C7.70833 40.013 7.61719 39.9479 7.61719 39.8698V36.0742C7.61719 35.9961 7.70833 35.931 7.8125 35.931ZM49.082 41.0156H55.1172C55.1679 41.0173 55.2159 41.0386 55.2511 41.0751C55.2863 41.1115 55.306 41.1602 55.306 41.2109V48.0794C55.306 48.1295 55.2861 48.1775 55.2507 48.2129C55.2153 48.2483 55.1673 48.2682 55.1172 48.2682H52.6823C52.5838 47.0995 52.3117 45.9519 51.875 44.8633C51.4334 43.7672 50.7983 42.7594 50 41.888C49.7101 41.5808 49.4036 41.2895 49.082 41.0156ZM24.7005 41.0156H31.543C31.0076 41.476 30.5172 41.9861 30.0781 42.5391C29.2855 43.5404 28.6991 44.6888 28.3529 45.918C28.2682 46.224 28.1966 46.5169 28.1445 46.8034C28.0924 47.0898 28.0534 47.3698 28.0208 47.6758V47.8516V48.2487H24.7005C24.6498 48.2487 24.6011 48.229 24.5647 48.1938C24.5282 48.1586 24.5069 48.1106 24.5052 48.0599V41.224C24.5068 41.1727 24.5279 41.1239 24.5642 41.0877C24.6005 41.0514 24.6492 41.0303 24.7005 41.0286V41.0156ZM48.2617 27.7214H55.1172C55.1679 27.723 55.2159 27.7444 55.2511 27.7808C55.2863 27.8173 55.306 27.866 55.306 27.9167V34.7721C55.306 34.8228 55.2863 34.8715 55.2511 34.908C55.2159 34.9444 55.1679 34.9658 55.1172 34.9674H48.2617C48.2104 34.9658 48.1617 34.9447 48.1254 34.9084C48.0891 34.8722 48.068 34.8234 48.0664 34.7721V27.9167C48.068 27.8654 48.0891 27.8166 48.1254 27.7804C48.1617 27.7441 48.2104 27.723 48.2617 27.7214ZM36.4779 27.7214H43.3333C43.3846 27.723 43.4334 27.7441 43.4696 27.7804C43.5059 27.8166 43.527 27.8654 43.5286 27.9167V34.7721C43.527 34.8234 43.5059 34.8722 43.4696 34.9084C43.4334 34.9447 43.3846 34.9658 43.3333 34.9674H36.4583C36.4077 34.9658 36.3596 34.9444 36.3244 34.908C36.2892 34.8715 36.2695 34.8228 36.2695 34.7721V27.9167C36.2695 27.866 36.2892 27.8173 36.3244 27.7808C36.3596 27.7444 36.4077 27.723 36.4583 27.7214H36.4779ZM24.7005 27.7214H31.556C31.6073 27.723 31.656 27.7441 31.6923 27.7804C31.7286 27.8166 31.7497 27.8654 31.7513 27.9167V34.7721C31.7497 34.8234 31.7286 34.8722 31.6923 34.9084C31.656 34.9447 31.6073 34.9658 31.556 34.9674H24.7005C24.6492 34.9658 24.6005 34.9447 24.5642 34.9084C24.5279 34.8722 24.5068 34.8234 24.5052 34.7721V27.9167C24.5068 27.8654 24.5279 27.8166 24.5642 27.7804C24.6005 27.7441 24.6492 27.723 24.7005 27.7214Z" fill="#0A6495"/>
</g>
<defs>
<clipPath id="clip0_517_299">
<rect width="80" height="79.9219" fill="white"/>
</clipPath>
</defs>
</svg>
