<svg width="90" height="90" viewBox="0 0 90 90" fill="none" xmlns="http://www.w3.org/2000/svg">
<path d="M15.3245 67.6924H10.784C9.84386 67.6924 9.0813 68.4551 9.0813 69.3951C9.0813 70.335 9.84405 71.0978 10.784 71.0978H15.3245C16.2646 71.0978 17.0272 70.335 17.0272 69.3951C17.0272 68.4551 16.2646 67.6924 15.3245 67.6924Z" fill="white"/>
<path d="M15.3245 76.7734H10.784C9.84386 76.7734 9.0813 77.5362 9.0813 78.4761C9.0813 79.4161 9.84405 80.1788 10.784 80.1788H15.3245C16.2646 80.1788 17.0272 79.4161 17.0272 78.4761C17.0272 77.5362 16.2646 76.7734 15.3245 76.7734Z" fill="white"/>
<path d="M28.9461 67.6924H26.6758C25.7357 67.6924 24.9731 68.4551 24.9731 69.3951C24.9731 70.335 25.7359 71.0978 26.6758 71.0978H28.9461C29.8862 71.0978 30.6488 70.335 30.6488 69.3951C30.6488 68.4551 29.8862 67.6924 28.9461 67.6924Z" fill="white"/>
<path d="M28.9461 76.7734H26.6758C25.7357 76.7734 24.9731 77.5362 24.9731 78.4761C24.9731 79.4161 25.7359 80.1788 26.6758 80.1788H28.9461C29.8862 80.1788 30.6488 79.4161 30.6488 78.4761C30.6488 77.5362 29.8862 76.7734 28.9461 76.7734Z" fill="white"/>
<path d="M15.3245 58.6113H10.784C9.84386 58.6113 9.0813 59.3741 9.0813 60.314C9.0813 61.254 9.84405 62.0167 10.784 62.0167H15.3245C16.2646 62.0167 17.0272 61.254 17.0272 60.314C17.0272 59.3741 16.2646 58.6113 15.3245 58.6113Z" fill="white"/>
<path d="M40.2976 51.8004C39.3575 51.8004 38.5949 52.5631 38.5949 53.5031V56.7954H26.1083V42.1516C26.1083 41.2115 25.3456 40.4489 24.4056 40.4489C23.4655 40.4489 22.7029 41.2117 22.7029 42.1516V47.2597H3.40538V37.6109C3.40538 36.6708 2.64263 35.9082 1.70269 35.9082C0.762752 35.9082 0 36.6711 0 37.6111V86.4223C0 87.9876 1.27257 89.2601 2.83782 89.2601H39.1625C40.7277 89.2601 42.0003 87.9876 42.0003 86.4223V53.5032C42.0005 52.5631 41.2377 51.8004 40.2976 51.8004ZM38.5949 85.8548H3.40538V50.6652H22.7029V60.2009H38.5949V85.8548Z" fill="white"/>
<path d="M87.9738 0.0649414H17.1789C16.4583 0.0649414 15.7865 0.45288 15.4195 1.08476L9.30497 11.7845C8.94684 12.4096 8.94797 13.1857 9.30947 13.811C9.67078 14.434 10.3426 14.822 11.0632 14.822H32.4114C32.3615 14.9815 32.3116 21.4953 32.3116 21.4953H16.3585C14.8497 21.4953 13.6216 22.7236 13.6216 24.2334V30.5831C13.6216 32.0928 14.8499 33.3211 16.3585 33.3211H50.6147C52.1235 33.3211 53.3516 32.0928 53.3516 30.5831V24.2334C53.3516 22.7236 52.1233 21.4953 50.6147 21.4953H35.717C35.717 21.4953 35.666 14.9815 35.6173 14.822H65.7928V89.9344H69.1982V77.3393L77.1443 85.2854V89.9346H80.5497V14.8218H87.9736C89.0911 14.8218 89.9999 13.9128 89.9999 12.7932V2.09126C90.0001 0.973943 89.0911 0.0649414 87.9738 0.0649414ZM49.9462 29.9158H17.027V24.9007H49.9462V29.9158ZM69.1982 25.8296L75.6721 32.3034L69.1982 38.7772V25.8296ZM69.1982 42.6928L75.6721 49.1666L69.1982 55.6404V42.6928ZM72.0572 40.7351L77.1443 35.648V45.8222L72.0572 40.7351ZM77.1443 28.9589L72.0572 23.8719L77.1443 18.7848V28.9589ZM67.1098 11.4164L73.5417 4.98458L79.9724 11.4164H67.1098ZM37.0539 5.79608L42.6742 11.4164H31.4347L37.0539 5.79608ZM28.1358 9.8999L21.7062 3.47032H34.5643L28.1358 9.8999ZM39.5448 3.47032H52.4018L45.9733 9.8999L39.5448 3.47032ZM54.8925 5.79608L60.5128 11.4164H49.2722L54.8925 5.79608ZM63.8119 9.8999L57.3823 3.47032H70.2403L63.8119 9.8999ZM17.65 4.04576C17.7322 4.24414 24.8368 11.4164 24.8368 11.4164H13.4377L17.65 4.04576ZM76.2919 14.8218L69.1984 21.9142V14.8218H76.2919ZM69.1982 59.5547L75.9625 66.3178L69.1982 73.3892V59.5547ZM77.1443 80.4685L72.0306 75.3548L77.1443 70.0093V80.4685ZM72.0572 57.5981L77.1443 52.5111V62.6841L72.0572 57.5981ZM86.5947 11.4164H84.7656C84.7478 11.3965 76.8428 3.47032 76.8428 3.47032H86.5947V11.4164Z" fill="white"/>
</svg>
