<svg width="90" height="90" viewBox="0 0 90 90" fill="none" xmlns="http://www.w3.org/2000/svg">
<g clip-path="url(#clip0_517_304)">
<path d="M13.8983 57.5371C13.0932 57.5371 12.4404 58.1899 12.4404 58.995V60.5501C12.4404 61.3552 13.0932 62.008 13.8983 62.008C14.7035 62.008 15.3562 61.3552 15.3562 60.5501V58.995C15.3562 58.1899 14.7035 57.5371 13.8983 57.5371Z" fill="#0A6495"/>
<path d="M13.8983 63.7578C13.0932 63.7578 12.4404 64.4106 12.4404 65.2157V66.7708C12.4404 67.5759 13.0932 68.2287 13.8983 68.2287C14.7035 68.2287 15.3562 67.5759 15.3562 66.7708V65.2157C15.3562 64.4106 14.7035 63.7578 13.8983 63.7578Z" fill="#0A6495"/>
<path d="M13.8983 69.9775C13.0932 69.9775 12.4404 70.6303 12.4404 71.4354V72.9905C12.4404 73.7956 13.0932 74.4484 13.8983 74.4484C14.7035 74.4484 15.3562 73.7956 15.3562 72.9905V71.4354C15.3562 70.6303 14.7035 69.9775 13.8983 69.9775Z" fill="#0A6495"/>
<path d="M20.119 57.5371C19.3139 57.5371 18.6611 58.1899 18.6611 58.995V60.5501C18.6611 61.3552 19.3139 62.008 20.119 62.008C20.9242 62.008 21.5769 61.3552 21.5769 60.5501V58.995C21.5769 58.1899 20.9242 57.5371 20.119 57.5371Z" fill="#0A6495"/>
<path d="M20.119 63.7578C19.3139 63.7578 18.6611 64.4106 18.6611 65.2157V66.7708C18.6611 67.5759 19.3139 68.2287 20.119 68.2287C20.9242 68.2287 21.5769 67.5759 21.5769 66.7708V65.2157C21.5769 64.4106 20.9242 63.7578 20.119 63.7578Z" fill="#0A6495"/>
<path d="M20.119 69.9775C19.3139 69.9775 18.6611 70.6303 18.6611 71.4354V72.9905C18.6611 73.7956 19.3139 74.4484 20.119 74.4484C20.9242 74.4484 21.5769 73.7956 21.5769 72.9905V71.4354C21.5769 70.6303 20.9242 69.9775 20.119 69.9775Z" fill="#0A6495"/>
<path d="M32.5594 57.5371C31.7543 57.5371 31.1016 58.1899 31.1016 58.995V60.5501C31.1016 61.3552 31.7543 62.008 32.5594 62.008C33.3646 62.008 34.0173 61.3552 34.0173 60.5501V58.995C34.0173 58.1899 33.3646 57.5371 32.5594 57.5371Z" fill="#0A6495"/>
<path d="M32.5594 63.7578C31.7543 63.7578 31.1016 64.4106 31.1016 65.2157V66.7708C31.1016 67.5759 31.7543 68.2287 32.5594 68.2287C33.3646 68.2287 34.0173 67.5759 34.0173 66.7708V65.2157C34.0173 64.4106 33.3646 63.7578 32.5594 63.7578Z" fill="#0A6495"/>
<path d="M32.5594 69.9775C31.7543 69.9775 31.1016 70.6303 31.1016 71.4354V72.9905C31.1016 73.7956 31.7543 74.4484 32.5594 74.4484C33.3646 74.4484 34.0173 73.7956 34.0173 72.9905V71.4354C34.0173 70.6303 33.3646 69.9775 32.5594 69.9775Z" fill="#0A6495"/>
<path d="M38.7797 57.5371C37.9745 57.5371 37.3218 58.1899 37.3218 58.995V60.5501C37.3218 61.3552 37.9745 62.008 38.7797 62.008C39.5848 62.008 40.2375 61.3552 40.2375 60.5501V58.995C40.2375 58.1899 39.5848 57.5371 38.7797 57.5371Z" fill="#0A6495"/>
<path d="M38.7797 63.7578C37.9745 63.7578 37.3218 64.4106 37.3218 65.2157V66.7708C37.3218 67.5759 37.9745 68.2287 38.7797 68.2287C39.5848 68.2287 40.2375 67.5759 40.2375 66.7708V65.2157C40.2375 64.4106 39.5848 63.7578 38.7797 63.7578Z" fill="#0A6495"/>
<path d="M38.7797 69.9775C37.9745 69.9775 37.3218 70.6303 37.3218 71.4354V72.9905C37.3218 73.7956 37.9745 74.4484 38.7797 74.4484C39.5848 74.4484 40.2375 73.7956 40.2375 72.9905V71.4354C40.2375 70.6303 39.5848 69.9775 38.7797 69.9775Z" fill="#0A6495"/>
<path d="M51.2201 57.5371C50.4149 57.5371 49.7622 58.1899 49.7622 58.995V60.5501C49.7622 61.3552 50.4149 62.008 51.2201 62.008C52.0252 62.008 52.678 61.3552 52.678 60.5501V58.995C52.678 58.1899 52.0252 57.5371 51.2201 57.5371Z" fill="#0A6495"/>
<path d="M51.2201 63.7578C50.4149 63.7578 49.7622 64.4106 49.7622 65.2157V66.7708C49.7622 67.5759 50.4149 68.2287 51.2201 68.2287C52.0252 68.2287 52.678 67.5759 52.678 66.7708V65.2157C52.678 64.4106 52.0252 63.7578 51.2201 63.7578Z" fill="#0A6495"/>
<path d="M51.2201 69.9775C50.4149 69.9775 49.7622 70.6303 49.7622 71.4354V72.9905C49.7622 73.7956 50.4149 74.4484 51.2201 74.4484C52.0252 74.4484 52.678 73.7956 52.678 72.9905V71.4354C52.678 70.6303 52.0252 69.9775 51.2201 69.9775Z" fill="#0A6495"/>
<path d="M57.4408 57.5371C56.6357 57.5371 55.9829 58.1899 55.9829 58.995V60.5501C55.9829 61.3552 56.6357 62.008 57.4408 62.008C58.2459 62.008 58.8987 61.3552 58.8987 60.5501V58.995C58.8987 58.1899 58.2459 57.5371 57.4408 57.5371Z" fill="#0A6495"/>
<path d="M57.4408 63.7578C56.6357 63.7578 55.9829 64.4106 55.9829 65.2157V66.7708C55.9829 67.5759 56.6357 68.2287 57.4408 68.2287C58.2459 68.2287 58.8987 67.5759 58.8987 66.7708V65.2157C58.8987 64.4106 58.2459 63.7578 57.4408 63.7578Z" fill="#0A6495"/>
<path d="M57.4408 69.9775C56.6357 69.9775 55.9829 70.6303 55.9829 71.4354V72.9905C55.9829 73.7956 56.6357 74.4484 57.4408 74.4484C58.2459 74.4484 58.8987 73.7956 58.8987 72.9905V71.4354C58.8987 70.6303 58.2459 69.9775 57.4408 69.9775Z" fill="#0A6495"/>
<path d="M69.8812 62.008C70.6864 62.008 71.3391 61.3552 71.3391 60.5501V58.995C71.3391 58.1899 70.6864 57.5371 69.8812 57.5371C69.0761 57.5371 68.4233 58.1899 68.4233 58.995V60.5501C68.4233 61.3552 69.0761 62.008 69.8812 62.008Z" fill="#0A6495"/>
<path d="M69.8812 68.2287C70.6864 68.2287 71.3391 67.5759 71.3391 66.7708V65.2157C71.3391 64.4106 70.6864 63.7578 69.8812 63.7578C69.0761 63.7578 68.4233 64.4106 68.4233 65.2157V66.7708C68.4233 67.5759 69.0761 68.2287 69.8812 68.2287Z" fill="#0A6495"/>
<path d="M69.8812 74.4484C70.6864 74.4484 71.3391 73.7956 71.3391 72.9905V71.4354C71.3391 70.6303 70.6864 69.9775 69.8812 69.9775C69.0761 69.9775 68.4233 70.6303 68.4233 71.4354V72.9905C68.4233 73.7956 69.0761 74.4484 69.8812 74.4484Z" fill="#0A6495"/>
<path d="M76.1014 62.008C76.9066 62.008 77.5593 61.3552 77.5593 60.5501V58.995C77.5593 58.1899 76.9066 57.5371 76.1014 57.5371C75.2963 57.5371 74.6436 58.1899 74.6436 58.995V60.5501C74.6436 61.3552 75.2963 62.008 76.1014 62.008Z" fill="#0A6495"/>
<path d="M76.1014 68.2287C76.9066 68.2287 77.5593 67.5759 77.5593 66.7708V65.2157C77.5593 64.4106 76.9066 63.7578 76.1014 63.7578C75.2963 63.7578 74.6436 64.4106 74.6436 65.2157V66.7708C74.6436 67.5759 75.2963 68.2287 76.1014 68.2287Z" fill="#0A6495"/>
<path d="M76.1014 74.4484C76.9066 74.4484 77.5593 73.7956 77.5593 72.9905V71.4354C77.5593 70.6303 76.9066 69.9775 76.1014 69.9775C75.2963 69.9775 74.6436 70.6303 74.6436 71.4354V72.9905C74.6436 73.7956 75.2963 74.4484 76.1014 74.4484Z" fill="#0A6495"/>
<path d="M88.5421 77.7534H83.7797V46.5547C83.7797 46.086 83.5544 45.646 83.1742 45.3721C82.794 45.0982 82.3053 45.0237 81.8607 45.1717L69.6036 49.2574L68.282 12.2458H68.3261C69.1313 12.2458 69.784 11.5931 69.784 10.788C69.784 9.98282 69.1313 9.33008 68.3261 9.33008H58.9957C58.1905 9.33008 57.5378 9.98282 57.5378 10.788C57.5378 11.5931 58.1905 12.2458 58.9957 12.2458H59.0398L57.7996 46.9717L50.9427 49.2572L49.6211 12.2458H49.6652C50.4704 12.2458 51.1231 11.5931 51.1231 10.788C51.1231 9.98282 50.4704 9.33008 49.6652 9.33008H40.3348C39.5296 9.33008 38.8769 9.98282 38.8769 10.788C38.8769 11.5931 39.5296 12.2458 40.3348 12.2458H40.3789L39.1387 46.9717L32.2818 49.2572L30.9602 12.2458H31.0043C31.8095 12.2458 32.4622 11.5931 32.4622 10.788C32.4622 9.98282 31.8095 9.33008 31.0043 9.33008H21.6739C20.8687 9.33008 20.216 9.98282 20.216 10.788C20.216 11.5931 20.8687 12.2458 21.6739 12.2458H21.718L20.4778 46.9717L7.21711 51.392C6.6219 51.5904 6.2203 52.1475 6.2203 52.775V77.7534H1.45788C0.652743 77.7534 0 78.4061 0 79.2113C0 80.0164 0.652743 80.6692 1.45788 80.6692H88.5421C89.3473 80.6692 90 80.0164 90 79.2113C90 78.4061 89.3473 77.7534 88.5421 77.7534ZM80.8639 77.7534H65.1188V53.8258L80.8639 48.5775V77.7534ZM27.797 53.8258L43.5421 48.5775V77.7534H27.797V53.8258ZM46.4579 53.8258L62.203 48.5775V77.7534H46.4579V53.8258ZM61.4022 27.7966H65.9199L66.0934 32.6562H61.2288L61.4022 27.7966ZM65.8157 24.8808H61.5063L61.6799 20.0212H65.6423L65.8157 24.8808ZM61.1244 35.572H66.1974L66.371 40.4316H60.9508L61.1244 35.572ZM65.3643 12.2458L65.5379 17.1055H61.7839L61.9575 12.2458H65.3643ZM60.8468 43.3474H66.4752L66.7205 50.2185L65.1188 50.7524V46.5547C65.1188 46.086 64.8935 45.646 64.5133 45.3721C64.1331 45.0982 63.6446 45.0237 63.1998 45.1717L60.7523 45.9875L60.8468 43.3474ZM42.7413 27.7966H47.2589L47.4325 32.6562H42.5679L42.7413 27.7966ZM47.1548 24.8808H42.8454L43.019 20.0212H46.9814L47.1548 24.8808ZM42.4635 35.572H47.5365L47.7101 40.4316H42.2899L42.4635 35.572ZM46.7034 12.2458L46.877 17.1055H43.123L43.2966 12.2458H46.7034ZM42.1857 43.3474H47.8141L48.0594 50.2185L46.4577 50.7524V46.5547C46.4577 46.086 46.2324 45.646 45.8522 45.3721C45.472 45.0982 44.9833 45.0237 44.5387 45.1717L42.0912 45.9875L42.1857 43.3474ZM24.0803 27.7966H28.598L28.7716 32.6562H23.907L24.0803 27.7966ZM28.4938 24.8808H24.1845L24.3581 20.0212H28.3203L28.4938 24.8808ZM23.8026 35.572H28.8756L29.0492 40.4316H23.6292L23.8026 35.572ZM28.0425 12.2458L28.2161 17.1055H24.4621L24.6357 12.2458H28.0425ZM23.525 43.3474H29.1534L29.3987 50.2185L27.797 50.7524V46.5547C27.797 46.086 27.5717 45.646 27.1915 45.3721C26.8113 45.0982 26.3226 45.0237 25.878 45.1717L23.4305 45.9875L23.525 43.3474ZM9.13607 53.8258L24.8812 48.5775V77.7534H9.13607V53.8258Z" fill="#0A6495"/>
</g>
<defs>
<clipPath id="clip0_517_304">
<rect width="90" height="90" fill="white"/>
</clipPath>
</defs>
</svg>
