<svg width="80" height="80" viewBox="0 0 80 80" fill="none" xmlns="http://www.w3.org/2000/svg">
<path d="M52.9468 30.7541L49.1466 25.8657L49.661 23.9131L64.1855 27.7397L52.9468 30.7541Z" stroke="white"/>
<path d="M7.89844 44.3028V35.7217C7.89844 30.9825 11.7403 27.1406 16.4795 27.1406C21.2188 27.1406 25.0606 30.9825 25.0606 35.7217V44.3028H7.89844Z" stroke="white"/>
<path d="M10.5767 35.7217V44.3028H7.89844V35.7217C7.89844 31.1955 11.4026 27.4879 15.8461 27.1637C12.7204 28.7414 10.5767 31.9808 10.5767 35.7217Z" stroke="white"/>
<path d="M1.28906 78.7108V59.3281H78.711V78.7108H1.28906Z" stroke="white"/>
<path d="M1.28906 78.7108V59.3281H3.96736V78.7108H1.28906Z" stroke="white"/>
<path d="M45.1489 58.1426V38.9932H74.326V58.1426H45.1489Z" stroke="white"/>
<path d="M45.1489 58.1426V38.9932H47.8272V58.1426H45.1489Z" stroke="white"/>
<path d="M58.5029 53.7492V42.6499H69.6022V53.7492H58.5029Z" stroke="white"/>
<path d="M58.5029 53.7492V42.6499H61.1812V53.7492H58.5029Z" stroke="white"/>
<path d="M1.28906 54.5124V50.0757H31.3669V54.5124H1.28906Z" stroke="white"/>
<path d="M1.28906 54.5124V50.0757H3.96736V54.5124H1.28906Z" stroke="white"/>
<path d="M5.11475 71.4535V55.5122H27.5409V71.4535H5.11475Z" stroke="white"/>
<path d="M5.11475 71.4535V55.5122H7.79304V71.4535H5.11475Z" stroke="white"/>
<path d="M6.73047 49.0757V45.3027H25.9252V49.0757H6.73047Z" stroke="white"/>
<path d="M6.73047 49.0757V45.3027H9.40877V49.0757H6.73047Z" stroke="white"/>
<path d="M16.4795 39.5C12.3273 39.5 8.96143 36.1341 8.96143 31.9819V8.80718C8.96143 4.65497 12.3273 1.28906 16.4795 1.28906C20.6317 1.28906 23.9977 4.65497 23.9977 8.80718V31.9819C23.9977 36.1341 20.6316 39.5 16.4795 39.5Z" stroke="white"/>
<path d="M11.6396 8.80718V31.9819C11.6396 35.2338 13.4621 38.0578 16.1406 39.4925C12.1457 39.3153 8.96143 36.0205 8.96143 31.9819V8.80718C8.96143 4.76856 12.1457 1.47381 16.1406 1.29657C13.4621 2.73129 11.6396 5.55525 11.6396 8.80718Z" stroke="white"/>
<path d="M50.149 18.1368C49.5806 20.2944 47.3707 21.5826 45.2131 21.0143L16.0762 13.338C16.0762 13.338 16.0762 13.338 16.0762 13.338C13.9187 12.7695 12.6304 10.5597 13.1989 8.40199C13.7673 6.24449 15.9772 4.95621 18.1347 5.5245C18.1347 5.5245 18.1347 5.5245 18.1347 5.5245L47.2717 13.2008C49.4292 13.7692 50.7175 15.9791 50.149 18.1368Z" stroke="white"/>
<path d="M15.9106 8.14714L15.9106 8.14714C15.2707 10.5765 16.5175 13.0591 18.7458 14.0412L16.0764 13.3379C13.9187 12.7694 12.6304 10.5597 13.1989 8.40204C13.7302 6.38523 15.6955 5.12803 17.7119 5.4367C16.8582 6.09207 16.2062 7.02503 15.9106 8.14714Z" stroke="white"/>
<path d="M48.2457 25.3672L39.7671 23.1332L43.5775 8.67232L52.056 10.9064L48.2457 25.3672Z" stroke="white"/>
<path d="M42.3579 23.3615L42.246 23.7863L39.7657 23.1328L43.5755 8.67191L46.0559 9.32534L42.3579 23.3615Z" stroke="white"/>
<path d="M52.9616 23.7492L49.9175 22.9471L52.3181 13.8368L55.3621 14.6389L52.9616 23.7492Z" stroke="white"/>
<path d="M67.1291 16.5682L52.6045 12.7416L53.0867 10.9114L58.8385 8.41142L67.1291 16.5682Z" stroke="white"/>
<path d="M66.6488 23.8198L50.7916 19.6415L51.4501 17.1422L67.3074 21.3205L66.6488 23.8198Z" stroke="white"/>
<path d="M20.5188 31.3314C20.5188 33.6459 18.6425 35.5222 16.328 35.5222C14.0135 35.5222 12.1372 33.6459 12.1372 31.3314C12.1372 29.0169 14.0135 27.1406 16.328 27.1406C18.6425 27.1406 20.5188 29.0169 20.5188 31.3314Z" stroke="white"/>
<path d="M16.8925 27.1783C15.6318 28.1249 14.8155 29.6323 14.8155 31.3314C14.8155 33.0304 15.6318 34.5379 16.8925 35.4845C16.708 35.5093 16.5196 35.5222 16.328 35.5222C14.0134 35.5222 12.1372 33.646 12.1372 31.3314C12.1372 29.0168 14.0134 27.1406 16.328 27.1406C16.5196 27.1406 16.708 27.1535 16.8925 27.1783Z" stroke="white"/>
<path d="M18.5326 9.32414C18.5326 10.1115 17.8943 10.7498 17.1069 10.7498C16.3195 10.7498 15.6812 10.1115 15.6812 9.32414C15.6812 8.53675 16.3195 7.89844 17.1069 7.89844C17.8943 7.89844 18.5326 8.53675 18.5326 9.32414Z" stroke="white"/>
<mask id="path-28-inside-1_366_1213" fill="white">
<path d="M79.211 58.0391H75.6149V38.4928C75.6149 38.0569 75.2616 37.7038 74.8259 37.7038H44.6488C44.2131 37.7038 43.8598 38.0569 43.8598 38.4928V58.0389H28.83V55.8011H31.8668C32.3025 55.8011 32.6559 55.4479 32.6559 55.0121V49.5755C32.6559 49.1396 32.3025 48.7865 31.8668 48.7865H27.2144V44.8025C27.2144 44.3666 26.8611 44.0135 26.4254 44.0135H26.3495V35.7214C26.3495 34.1225 25.9649 32.6131 25.2865 31.2766V17.0967L39.0664 20.727L38.3918 23.2879C38.2807 23.7092 38.5324 24.1408 38.9537 24.2518L48.1414 26.6723L52.1331 31.8072C52.2849 32.0024 52.5162 32.1121 52.7561 32.1121C52.8241 32.1121 52.8927 32.1032 52.9604 32.0851L66.3364 28.4972C66.6818 28.4046 66.9217 28.0912 66.9211 27.7334C66.9203 27.3755 66.679 27.0632 66.3331 26.9722L54.2803 23.7968L54.7492 22.0174L66.8019 25.1928C66.8693 25.2104 66.9368 25.219 67.0034 25.219C67.353 25.219 67.6727 24.9849 67.7659 24.6307L68.6792 21.1643C68.7325 20.962 68.7031 20.7467 68.5979 20.5659C68.4925 20.385 68.3195 20.2536 68.1172 20.2004L56.0645 17.025L56.5668 15.1184L68.6195 18.2938C68.6864 18.3113 68.754 18.3198 68.8206 18.3198C69.0991 18.3198 69.3634 18.1718 69.5062 17.9212C69.6833 17.6102 69.6288 17.2193 69.374 16.9684L59.5021 7.25576C59.2727 7.02994 58.9294 6.96681 58.6342 7.09464L52.6014 9.7169L43.4206 7.2982C42.9993 7.18727 42.5677 7.43881 42.4566 7.86031L41.7816 10.4207L24.805 5.94818C23.6152 2.49175 20.3347 0 16.4794 0C11.623 0 7.67221 3.95083 7.67221 8.80715V31.2743C6.99332 32.6114 6.60922 34.122 6.60922 35.7216V44.0136H6.23065C5.79495 44.0136 5.44162 44.3668 5.44162 44.8027V48.7866H0.789029C0.353327 48.7866 0 49.1398 0 49.5757V55.0124C0 55.4482 0.353327 55.8014 0.789029 55.8014H3.82585V58.0393H0.789029C0.353327 58.0393 0 58.3924 0 58.8283V79.211C0 79.6468 0.353327 80 0.789029 80H79.211C79.6467 80 80 79.6468 80 79.211V58.8281C80 58.3923 79.6467 58.0391 79.211 58.0391ZM45.4378 39.2818H74.0368V57.8534H45.4378V39.2818ZM63.0606 27.742L53.0573 30.4251L49.4625 25.8009L49.5544 25.4525L49.867 24.266L53.1151 25.1216L63.0606 27.742ZM50.2691 22.74L50.7379 20.9606L53.223 21.6153L52.7542 23.3949L51.7556 23.1318L50.2691 22.74ZM66.952 21.5254L66.4408 23.4657L51.1425 19.4352L51.6536 17.4948L66.952 21.5254ZM53.3303 11.1204L58.7746 8.75396L66.1513 16.0115L52.9574 12.5356L53.3303 11.1204ZM52.5219 14.1886L55.007 14.8434L54.5382 16.623L52.0531 15.9682L52.5219 14.1886ZM43.7812 9.02492L51.7008 11.1114L48.0383 25.0135L40.1188 22.9268L43.7812 9.02492ZM41.3795 11.9465L39.4683 19.2009L16.1499 13.0576C14.1498 12.5307 12.9513 10.475 13.4782 8.47481C13.9212 6.79386 15.444 5.67912 17.1062 5.67912C17.4216 5.67912 17.7421 5.71936 18.061 5.80331L41.3795 11.9465ZM9.25026 8.80699C9.25026 4.82081 12.4932 1.5779 16.4794 1.5779C19.2492 1.5779 21.6571 3.14523 22.87 5.43831L18.4631 4.27733C15.6214 3.52901 12.701 5.23126 11.9524 8.07287C11.2037 10.9143 12.9065 13.835 15.7479 14.5836L23.7084 16.6809V31.9817C23.7084 35.9679 20.4655 39.211 16.4794 39.211C12.4932 39.211 9.25026 35.9679 9.25026 31.9817V8.80699ZM8.18728 35.7214C8.18728 35.4894 8.1988 35.2601 8.21774 35.0329C9.46157 38.3897 12.6952 40.7889 16.4794 40.7889C20.2627 40.7889 23.496 38.3905 24.7403 35.0345C24.7591 35.2612 24.7714 35.4897 24.7714 35.7214V44.0135H8.18728V35.7214ZM7.01952 45.5915H7.3981H25.5603H25.6362V48.7865H7.01952V45.5915ZM1.57806 54.2232V50.3645H31.0778V54.2232H1.57806ZM27.252 55.8013V71.1643H5.4039V55.8013H27.252ZM78.4219 78.4218H1.57806V59.6172H3.82585V71.9535C3.82585 72.3893 4.17917 72.7425 4.61487 72.7425H28.041C28.4767 72.7425 28.83 72.3893 28.83 71.9535V59.6172H78.4219V78.4218Z"/>
</mask>
<path d="M79.211 58.0391H75.6149V38.4928C75.6149 38.0569 75.2616 37.7038 74.8259 37.7038H44.6488C44.2131 37.7038 43.8598 38.0569 43.8598 38.4928V58.0389H28.83V55.8011H31.8668C32.3025 55.8011 32.6559 55.4479 32.6559 55.0121V49.5755C32.6559 49.1396 32.3025 48.7865 31.8668 48.7865H27.2144V44.8025C27.2144 44.3666 26.8611 44.0135 26.4254 44.0135H26.3495V35.7214C26.3495 34.1225 25.9649 32.6131 25.2865 31.2766V17.0967L39.0664 20.727L38.3918 23.2879C38.2807 23.7092 38.5324 24.1408 38.9537 24.2518L48.1414 26.6723L52.1331 31.8072C52.2849 32.0024 52.5162 32.1121 52.7561 32.1121C52.8241 32.1121 52.8927 32.1032 52.9604 32.0851L66.3364 28.4972C66.6818 28.4046 66.9217 28.0912 66.9211 27.7334C66.9203 27.3755 66.679 27.0632 66.3331 26.9722L54.2803 23.7968L54.7492 22.0174L66.8019 25.1928C66.8693 25.2104 66.9368 25.219 67.0034 25.219C67.353 25.219 67.6727 24.9849 67.7659 24.6307L68.6792 21.1643C68.7325 20.962 68.7031 20.7467 68.5979 20.5659C68.4925 20.385 68.3195 20.2536 68.1172 20.2004L56.0645 17.025L56.5668 15.1184L68.6195 18.2938C68.6864 18.3113 68.754 18.3198 68.8206 18.3198C69.0991 18.3198 69.3634 18.1718 69.5062 17.9212C69.6833 17.6102 69.6288 17.2193 69.374 16.9684L59.5021 7.25576C59.2727 7.02994 58.9294 6.96681 58.6342 7.09464L52.6014 9.7169L43.4206 7.2982C42.9993 7.18727 42.5677 7.43881 42.4566 7.86031L41.7816 10.4207L24.805 5.94818C23.6152 2.49175 20.3347 0 16.4794 0C11.623 0 7.67221 3.95083 7.67221 8.80715V31.2743C6.99332 32.6114 6.60922 34.122 6.60922 35.7216V44.0136H6.23065C5.79495 44.0136 5.44162 44.3668 5.44162 44.8027V48.7866H0.789029C0.353327 48.7866 0 49.1398 0 49.5757V55.0124C0 55.4482 0.353327 55.8014 0.789029 55.8014H3.82585V58.0393H0.789029C0.353327 58.0393 0 58.3924 0 58.8283V79.211C0 79.6468 0.353327 80 0.789029 80H79.211C79.6467 80 80 79.6468 80 79.211V58.8281C80 58.3923 79.6467 58.0391 79.211 58.0391ZM45.4378 39.2818H74.0368V57.8534H45.4378V39.2818ZM63.0606 27.742L53.0573 30.4251L49.4625 25.8009L49.5544 25.4525L49.867 24.266L53.1151 25.1216L63.0606 27.742ZM50.2691 22.74L50.7379 20.9606L53.223 21.6153L52.7542 23.3949L51.7556 23.1318L50.2691 22.74ZM66.952 21.5254L66.4408 23.4657L51.1425 19.4352L51.6536 17.4948L66.952 21.5254ZM53.3303 11.1204L58.7746 8.75396L66.1513 16.0115L52.9574 12.5356L53.3303 11.1204ZM52.5219 14.1886L55.007 14.8434L54.5382 16.623L52.0531 15.9682L52.5219 14.1886ZM43.7812 9.02492L51.7008 11.1114L48.0383 25.0135L40.1188 22.9268L43.7812 9.02492ZM41.3795 11.9465L39.4683 19.2009L16.1499 13.0576C14.1498 12.5307 12.9513 10.475 13.4782 8.47481C13.9212 6.79386 15.444 5.67912 17.1062 5.67912C17.4216 5.67912 17.7421 5.71936 18.061 5.80331L41.3795 11.9465ZM9.25026 8.80699C9.25026 4.82081 12.4932 1.5779 16.4794 1.5779C19.2492 1.5779 21.6571 3.14523 22.87 5.43831L18.4631 4.27733C15.6214 3.52901 12.701 5.23126 11.9524 8.07287C11.2037 10.9143 12.9065 13.835 15.7479 14.5836L23.7084 16.6809V31.9817C23.7084 35.9679 20.4655 39.211 16.4794 39.211C12.4932 39.211 9.25026 35.9679 9.25026 31.9817V8.80699ZM8.18728 35.7214C8.18728 35.4894 8.1988 35.2601 8.21774 35.0329C9.46157 38.3897 12.6952 40.7889 16.4794 40.7889C20.2627 40.7889 23.496 38.3905 24.7403 35.0345C24.7591 35.2612 24.7714 35.4897 24.7714 35.7214V44.0135H8.18728V35.7214ZM7.01952 45.5915H7.3981H25.5603H25.6362V48.7865H7.01952V45.5915ZM1.57806 54.2232V50.3645H31.0778V54.2232H1.57806ZM27.252 55.8013V71.1643H5.4039V55.8013H27.252ZM78.4219 78.4218H1.57806V59.6172H3.82585V71.9535C3.82585 72.3893 4.17917 72.7425 4.61487 72.7425H28.041C28.4767 72.7425 28.83 72.3893 28.83 71.9535V59.6172H78.4219V78.4218Z" stroke="white" stroke-width="2" mask="url(#path-28-inside-1_366_1213)"/>
<path d="M16.328 36.8107C19.3495 36.8107 21.8078 34.3525 21.8078 31.3309C21.8078 28.3092 19.3495 25.8511 16.328 25.8511C13.3064 25.8511 10.8481 28.3092 10.8481 31.3309C10.8481 34.3525 13.3064 36.8107 16.328 36.8107ZM16.328 27.4293C18.4793 27.4293 20.2297 29.1797 20.2297 31.331C20.2297 33.4824 18.4793 35.2328 16.328 35.2328C14.1766 35.2328 12.4262 33.4824 12.4262 31.331C12.4262 29.1797 14.1766 27.4293 16.328 27.4293Z" fill="white"/>
<path d="M14.3921 9.32362C14.3921 10.8206 15.6099 12.0385 17.1068 12.0385C18.6038 12.0385 19.8217 10.8206 19.8217 9.32362C19.8217 7.82683 18.6039 6.60889 17.1068 6.60889C15.6099 6.60889 14.3921 7.82683 14.3921 9.32362ZM18.2435 9.32362C18.2435 9.95058 17.7336 10.4605 17.1067 10.4605C16.4799 10.4605 15.97 9.95058 15.97 9.32362C15.97 8.69682 16.4799 8.18695 17.1067 8.18695C17.7336 8.18695 18.2435 8.69697 18.2435 9.32362Z" fill="white"/>
<path d="M16.3278 51.4995C15.8889 51.4995 15.5332 51.8552 15.5332 52.2941C15.5332 52.7329 15.8889 53.0888 16.3278 53.0888C16.7666 53.0888 17.1223 52.7331 17.1223 52.2941C17.1225 51.8554 16.7666 51.4995 16.3278 51.4995Z" fill="white"/>
<path d="M7.64758 51.4995C7.20872 51.4995 6.85303 51.8552 6.85303 52.2941C6.85303 52.7329 7.20872 53.0888 7.64758 53.0888C8.08644 53.0888 8.44213 52.7331 8.44213 52.2941C8.44213 51.8554 8.08644 51.4995 7.64758 51.4995Z" fill="white"/>
<path d="M25.3883 51.4995C24.9494 51.4995 24.5938 51.8552 24.5938 52.2941C24.5938 52.7329 24.9494 53.0888 25.3883 53.0888C25.8272 53.0888 26.1829 52.7331 26.1829 52.2941C26.1829 51.8554 25.8272 51.4995 25.3883 51.4995Z" fill="white"/>
<path d="M54.9615 45.8811C55.4004 45.8811 55.7561 45.5254 55.7561 45.0865C55.7561 44.6477 55.4004 44.292 54.9615 44.292C54.5227 44.292 54.167 44.6477 54.167 45.0865C54.167 45.5254 54.5227 45.8811 54.9615 45.8811Z" fill="white"/>
<path d="M51.4419 45.8794C51.8796 45.8483 52.2092 45.4682 52.1781 45.0305C52.147 44.5928 51.7669 44.2631 51.3292 44.2943C50.8915 44.3254 50.5618 44.7054 50.593 45.1432C50.6241 45.5809 51.0041 45.9105 51.4419 45.8794Z" fill="white"/>
<path d="M48.7348 45.1647C48.778 44.728 48.4591 44.339 48.0224 44.2958C47.5857 44.2525 47.1967 44.5715 47.1535 45.0082C47.1102 45.4448 47.4292 45.8339 47.8659 45.8771C48.3025 45.9203 48.6916 45.6014 48.7348 45.1647Z" fill="white"/>
<path d="M54.9615 49.1614C55.4004 49.1614 55.7561 48.8056 55.7561 48.3668C55.7561 47.928 55.4004 47.5723 54.9615 47.5723C54.5227 47.5723 54.167 47.928 54.167 48.3668C54.167 48.8056 54.5227 49.1614 54.9615 49.1614Z" fill="white"/>
<path d="M51.4419 49.1597C51.8796 49.1285 52.2092 48.7485 52.1781 48.3108C52.147 47.873 51.7669 47.5434 51.3292 47.5745C50.8915 47.6056 50.5618 47.9857 50.593 48.4234C50.6241 48.8611 51.0041 49.1908 51.4419 49.1597Z" fill="white"/>
<path d="M48.7348 48.445C48.778 48.0083 48.4591 47.6193 48.0224 47.576C47.5857 47.5328 47.1967 47.8518 47.1535 48.2884C47.1102 48.7251 47.4292 49.1141 47.8659 49.1574C48.3025 49.2006 48.6916 48.8816 48.7348 48.445Z" fill="white"/>
<path d="M54.9615 50.9233C54.5227 50.9233 54.167 51.279 54.167 51.7181C54.167 52.1569 54.5227 52.5126 54.9615 52.5126C55.4004 52.5126 55.7561 52.1569 55.7561 51.7181C55.7563 51.2792 55.4004 50.9233 54.9615 50.9233Z" fill="white"/>
<path d="M51.3839 50.9233C50.9451 50.9233 50.5894 51.279 50.5894 51.7181C50.5894 52.1569 50.9451 52.5126 51.3839 52.5126C51.8228 52.5126 52.1785 52.1569 52.1785 51.7181C52.1786 51.2792 51.8228 50.9233 51.3839 50.9233Z" fill="white"/>
<path d="M47.9474 50.9233C47.5085 50.9233 47.1528 51.279 47.1528 51.7181C47.1528 52.1569 47.5085 52.5126 47.9474 52.5126C48.3862 52.5126 48.7419 52.1569 48.7419 51.7181C48.7419 51.2792 48.3862 50.9233 47.9474 50.9233Z" fill="white"/>
</svg>
