<svg width="80" height="76" viewBox="0 0 80 76" fill="none" xmlns="http://www.w3.org/2000/svg">
<g clip-path="url(#clip0_517_331)">
<path d="M53.2682 11.3148L26.7253 2.51918V61.5491L53.2682 73.0465V11.3148ZM59.2448 14.8955L73.3073 9.47231V25.5465L59.2448 32.6364V14.8955ZM49.0169 14.5895L31.0091 8.63246V58.6325L48.9909 66.6012V14.5895H49.0169ZM61.0547 62.4411C60.7906 62.5669 60.4877 62.5844 60.2109 62.4898C59.9341 62.3952 59.7053 62.196 59.5734 61.9348C59.4416 61.6737 59.4171 61.3713 59.5054 61.0924C59.5936 60.8135 59.7875 60.5801 60.0456 60.4424L72.9167 53.9059C73.0486 53.826 73.1955 53.7743 73.3483 53.7539C73.5012 53.7334 73.6565 53.7448 73.8048 53.7872C73.953 53.8296 74.0909 53.9022 74.2098 54.0004C74.3286 54.0986 74.4259 54.2202 74.4956 54.3578C74.5653 54.4953 74.6058 54.6458 74.6146 54.7997C74.6235 54.9536 74.6004 55.1077 74.5469 55.2523C74.4934 55.3969 74.4106 55.5289 74.3037 55.64C74.1969 55.7511 74.0682 55.839 73.9258 55.8981L61.0482 62.4085L61.0547 62.4411ZM61.0547 54.8043C60.7906 54.9302 60.4877 54.9477 60.2109 54.8531C59.9341 54.7585 59.7053 54.5593 59.5734 54.2981C59.4416 54.037 59.4171 53.7346 59.5054 53.4557C59.5936 53.1767 59.7875 52.9434 60.0456 52.8056L72.9232 46.2952C73.1873 46.1694 73.4901 46.1519 73.767 46.2465C74.0438 46.3411 74.2726 46.5403 74.4045 46.8014C74.5363 47.0626 74.5607 47.365 74.4725 47.6439C74.3843 47.9228 74.1904 48.1561 73.9323 48.2939L61.0286 54.8043H61.0547ZM61.0547 47.1676C60.7893 47.2996 60.4827 47.3217 60.2011 47.229C59.9196 47.1364 59.6859 46.9366 59.5508 46.6728C59.417 46.4078 59.394 46.1004 59.4868 45.8184C59.5796 45.5364 59.7806 45.3028 60.0456 45.1689L72.9232 38.6585C73.1873 38.5327 73.4901 38.5152 73.767 38.6098C74.0438 38.7044 74.2726 38.9036 74.4045 39.1647C74.5363 39.4259 74.5607 39.7282 74.4725 40.0072C74.3843 40.2861 74.1904 40.5194 73.9323 40.6572L61.0286 47.1676H61.0547ZM61.0547 39.5309C60.9236 39.6013 60.7799 39.645 60.6318 39.6595C60.4837 39.674 60.3343 39.659 60.192 39.6155C60.0497 39.5719 59.9175 39.5005 59.803 39.4056C59.6885 39.3106 59.5939 39.1939 59.5247 39.0621C59.391 38.7971 59.368 38.4898 59.4608 38.2078C59.5536 37.9257 59.7545 37.6921 60.0195 37.5582L72.9167 30.9892C73.0483 30.919 73.1926 30.8757 73.3412 30.862C73.4898 30.8483 73.6396 30.8644 73.7819 30.9094C73.9241 30.9544 74.056 31.0274 74.1696 31.1241C74.2833 31.2207 74.3765 31.3391 74.4437 31.4723C74.511 31.6055 74.5509 31.7508 74.5612 31.8997C74.5715 32.0485 74.552 32.1979 74.5037 32.3391C74.4555 32.4803 74.3795 32.6105 74.2803 32.7219C74.181 32.8333 74.0605 32.9237 73.9258 32.9879L61.0482 39.4983L61.0547 39.5309ZM7.05078 64.9215C6.90921 64.9983 6.75367 65.0459 6.59338 65.0615C6.43309 65.0772 6.27129 65.0605 6.11755 65.0125C5.96382 64.9645 5.82128 64.8861 5.69835 64.782C5.57543 64.678 5.47463 64.5503 5.40191 64.4066C5.32919 64.2629 5.28602 64.1061 5.27497 63.9454C5.26392 63.7848 5.28521 63.6235 5.33757 63.4712C5.38994 63.3189 5.47231 63.1786 5.57983 63.0587C5.68735 62.9388 5.81783 62.8417 5.96354 62.7731L19.8242 55.7223C20.11 55.5781 20.4413 55.5534 20.7453 55.6535C21.0493 55.7536 21.3011 55.9704 21.4453 56.2562C21.5895 56.5419 21.6142 56.8733 21.5141 57.1773C21.414 57.4813 21.1972 57.7331 20.9115 57.8773L7.02474 64.928L7.05078 64.9215ZM7.05078 56.6858C6.76502 56.83 6.43368 56.8548 6.12967 56.7547C5.82566 56.6545 5.57386 56.4378 5.42969 56.152C5.28551 55.8662 5.26076 55.5349 5.36088 55.2309C5.46099 54.9269 5.67778 54.6751 5.96354 54.5309L19.8242 47.4866C19.9657 47.4152 20.1199 47.3724 20.2779 47.3606C20.436 47.3488 20.5948 47.3682 20.7453 47.4178C20.8959 47.4674 21.0352 47.5461 21.1553 47.6495C21.2754 47.7529 21.3739 47.879 21.4453 48.0205C21.5167 48.162 21.5595 48.3161 21.5713 48.4742C21.5831 48.6322 21.5637 48.7911 21.5141 48.9416C21.4646 49.0921 21.3858 49.2314 21.2824 49.3515C21.179 49.4716 21.053 49.5702 20.9115 49.6416L7.02474 56.6924L7.05078 56.6858ZM7.05078 48.4502C6.76502 48.5943 6.43368 48.6191 6.12967 48.519C5.82566 48.4189 5.57386 48.2021 5.42969 47.9163C5.28551 47.6305 5.26076 47.2992 5.36088 46.9952C5.46099 46.6912 5.67778 46.4394 5.96354 46.2952L19.8242 39.251C19.9657 39.1796 20.1199 39.1367 20.2779 39.1249C20.436 39.1131 20.5948 39.1326 20.7453 39.1821C20.8959 39.2317 21.0352 39.3104 21.1553 39.4139C21.2754 39.5173 21.3739 39.6433 21.4453 39.7848C21.5167 39.9263 21.5595 40.0805 21.5713 40.2385C21.5831 40.3966 21.5637 40.5554 21.5141 40.7059C21.4646 40.8564 21.3858 40.9957 21.2824 41.1158C21.179 41.236 21.053 41.3345 20.9115 41.4059L7.02474 48.4567L7.05078 48.4502ZM7.05078 40.2145C6.90929 40.2859 6.75511 40.3287 6.59707 40.3405C6.43902 40.3523 6.2802 40.3329 6.12967 40.2833C5.97914 40.2337 5.83984 40.155 5.71974 40.0516C5.59964 39.9482 5.50108 39.8221 5.42969 39.6806C5.3583 39.5391 5.31548 39.385 5.30367 39.2269C5.29186 39.0689 5.3113 38.9101 5.36088 38.7595C5.41045 38.609 5.48919 38.4697 5.59259 38.3496C5.696 38.2295 5.82205 38.1309 5.96354 38.0595L19.8242 31.0153C19.9679 30.9439 20.1241 30.9015 20.2842 30.8905C20.4442 30.8795 20.6048 30.9001 20.7568 30.9512C20.9089 31.0023 21.0494 31.0828 21.1703 31.1882C21.2912 31.2936 21.3902 31.4218 21.4616 31.5654C21.533 31.709 21.5754 31.8653 21.5864 32.0253C21.5974 32.1854 21.5767 32.346 21.5256 32.498C21.4746 32.6501 21.394 32.7906 21.2886 32.9115C21.1833 33.0324 21.0551 33.1314 20.9115 33.2028L7.02474 40.221L7.05078 40.2145ZM6.36068 15.4749L20.4232 10.0517V26.1194L6.33464 33.2028V15.4684L6.36068 15.4749ZM54.3294 9.43324L78.5612 0.071266C78.8229 -0.0286741 79.1134 -0.0211092 79.3695 0.0923112C79.6257 0.205732 79.8265 0.415808 79.9284 0.676735C79.9741 0.797463 79.9983 0.925257 80 1.05434V62.2523C79.9996 62.461 79.9376 62.665 79.8218 62.8387C79.706 63.0124 79.5415 63.1481 79.349 63.2288L54.8047 75.5986C54.6583 75.6724 54.4966 75.7109 54.3327 75.7109C54.1687 75.7109 54.0071 75.6724 53.8607 75.5986L25.7031 63.3981L1.52995 75.5921C1.28034 75.7167 0.991545 75.7373 0.726768 75.6495C0.46199 75.5616 0.242803 75.3724 0.117188 75.1233C0.0404518 74.9767 0.000251122 74.8136 0 74.6481L0 10.5465C0.000525875 10.3177 0.0749705 10.0953 0.212237 9.91225C0.349503 9.72922 0.54224 9.59546 0.761719 9.5309L25.2214 0.0973076C25.4668 -0.0155752 25.7457 -0.0318469 26.0026 0.0517347L54.3034 9.42673L54.3294 9.43324ZM77.8841 2.60382L55.3906 11.2692V72.9163L77.8841 61.5882V2.60382ZM24.6094 2.60382L2.11589 11.2692V72.9163L24.6094 61.5882V2.60382Z" fill="#0A6495"/>
</g>
<defs>
<clipPath id="clip0_517_331">
<rect width="80" height="75.7031" fill="white"/>
</clipPath>
</defs>
</svg>
