<svg width="90" height="90" viewBox="0 0 90 90" fill="none" xmlns="http://www.w3.org/2000/svg">
<path d="M45.0151 73.5097C60.7404 73.5097 73.5246 60.7255 73.5246 45.0002C73.5246 29.275 60.7404 16.4907 45.0151 16.4907C29.2899 16.4907 16.5056 29.275 16.5056 45.0002C16.5056 60.7255 29.2899 73.5097 45.0151 73.5097ZM30.0851 65.6321C28.2695 64.3117 26.634 62.7962 25.2235 61.0556L33.1162 64.4017L30.0701 65.6321H30.0851ZM60.7554 37.0026L64.6567 38.6531L60.7404 40.2436L56.8391 38.5931L60.7554 37.0026ZM56.8691 32.0959L60.8004 30.5054L64.7017 32.1559L60.7704 33.7465L56.8691 32.0959ZM52.8627 43.4397L48.9614 41.7892L52.9077 40.1836L56.8091 41.8342L52.8627 43.4397ZM56.749 48.3463L52.8327 49.9369L48.9164 48.2863L52.8327 46.6958L56.749 48.3463ZM45.0601 40.1386L41.1438 38.473L45.1052 36.8675L49.0215 38.5331L45.0751 40.1386H45.0601ZM45.0301 43.3797L48.9314 45.0302L45.0151 46.6208L41.1138 44.9702L45.0451 43.3797H45.0301ZM48.9014 51.5274L44.9701 53.1179L41.0688 51.4674L45.0001 49.8769L48.9014 51.5274ZM37.1975 43.3197L33.2962 41.6691L37.2125 40.0786L41.1288 41.7291L37.2125 43.3197H37.1975ZM37.1675 46.5607L41.0688 48.2113L37.1375 49.8018L33.2362 48.1513L37.1675 46.5607ZM37.1225 53.0579L41.0238 54.7085L37.0925 56.299L33.1912 54.6484L37.1225 53.0579ZM44.9401 56.359L48.8564 58.0096L44.9251 59.6001L41.0088 57.9495L44.9401 56.359ZM52.7577 59.6601L56.659 61.3107L52.7277 62.9162L48.8264 61.2656L52.7577 59.6751V59.6601ZM52.7877 56.419L48.8714 54.7685L52.8027 53.178L56.704 54.8285L52.7727 56.419H52.7877ZM60.6353 56.4791L64.5366 58.1296L60.6053 59.7351L56.704 58.0846L60.6353 56.4941V56.4791ZM60.6653 53.238L56.764 51.5874L60.6803 49.9969L64.5816 51.6474L60.6653 53.238ZM60.6953 46.7558L56.779 45.1053L60.7254 43.4997L64.6417 45.1503L60.6953 46.7558ZM52.9528 36.9425L49.0515 35.277L52.9678 33.6865L56.8841 35.337L52.9678 36.9275L52.9528 36.9425ZM45.1352 33.6264L41.2189 31.9759L45.1352 30.3854L49.0515 32.0359L45.1352 33.6264ZM37.3025 30.3253L33.4012 28.6748L37.3326 27.0843L41.2339 28.7348L37.3176 30.3253H37.3025ZM37.2725 33.5664L41.1888 35.217L37.2425 36.8225L33.3262 35.172L37.2725 33.5664ZM29.4099 33.5214L25.5236 31.8708L29.4699 30.2653L33.3712 31.9159L29.4249 33.5214H29.4099ZM29.3799 36.7775L33.2962 38.428L29.3799 40.0186L25.4636 38.353L29.3799 36.7625V36.7775ZM29.3499 43.2747L33.2662 44.9252L29.3349 46.5157L25.4336 44.8652L29.3649 43.2747H29.3499ZM29.3049 49.7718L33.2212 51.4224L29.2899 53.0129L25.3886 51.3624L29.3199 49.7718H29.3049ZM29.2599 56.269L33.1612 57.9195L29.2299 59.5101L25.3286 57.8595L29.2449 56.269H29.2599ZM37.0625 59.5701L40.9788 61.2206L37.0625 62.8112L33.1462 61.1456L37.0775 59.5551L37.0625 59.5701ZM37.1375 69.2633C35.772 68.8132 34.4666 68.258 33.2212 67.6128L37.0325 66.0672L40.9488 67.7178L37.1525 69.2633H37.1375ZM44.8801 62.8862L48.7814 64.5367L44.8651 66.1273L40.9488 64.4767L44.8651 62.8862H44.8801ZM45.0151 70.5237C44.1148 70.5237 43.2295 70.4787 42.3592 70.3887L44.8351 69.3834L47.2809 70.4187C46.5306 70.4787 45.7804 70.5387 45.0151 70.5387V70.5237ZM52.5626 69.3834L48.7814 67.7778L52.6977 66.1873L56.4639 67.7778C55.2185 68.408 53.9281 68.9632 52.5626 69.3834ZM59.645 65.8722L56.614 64.5968L64.5666 61.3707C63.1412 63.0813 61.4756 64.5968 59.645 65.8722ZM67.8527 56.299L64.5516 54.9035L68.4679 53.313L69.0231 53.5531C68.693 54.4984 68.3029 55.4137 67.8527 56.299ZM69.8634 50.6571L69.0531 50.312C69.0531 50.312 68.9781 50.282 68.9331 50.267L64.5666 48.4214L68.528 46.8158L70.3736 47.5961C70.2685 48.6314 70.0885 49.6518 69.8484 50.6571H69.8634ZM70.4786 44.385L69.1282 43.8148C69.1282 43.8148 69.0531 43.7848 69.0081 43.7698L64.6267 41.9092L68.558 40.3187L70.1635 40.9939C70.3436 42.1043 70.4486 43.2296 70.4786 44.37V44.385ZM68.0028 34.0766C68.513 35.1569 68.9781 36.2523 69.3382 37.4077L69.1582 37.3327C69.1582 37.3327 69.0831 37.3027 69.0381 37.2877L64.6567 35.442L67.9878 34.0916L68.0028 34.0766ZM59.9301 24.3984C61.7457 25.7038 63.3812 27.2343 64.7917 28.9749L56.8991 25.6288L59.9301 24.3984ZM52.9378 30.4754L49.0215 28.8098L52.9528 27.2193L56.8691 28.8849L52.9378 30.4754ZM52.8627 20.7822C54.2282 21.2323 55.5336 21.7875 56.779 22.4327L52.9678 23.9782L49.0515 22.3277L52.8477 20.7822H52.8627ZM45.1052 27.1593L41.2038 25.5087L45.1202 23.9182L49.0215 25.5687L45.0901 27.1593H45.1052ZM44.9851 19.5217C45.8854 19.5217 46.7707 19.5667 47.641 19.6568L45.1502 20.6621L42.7043 19.6268C43.4546 19.5667 44.2048 19.5067 44.9701 19.5067L44.9851 19.5217ZM37.4376 20.6621L41.2339 22.2676L37.3176 23.8582L33.5513 22.2676C34.7967 21.6374 36.0871 21.0823 37.4526 20.6621H37.4376ZM30.3552 24.1733L33.3862 25.4637L28.9898 27.2493C28.9898 27.2493 28.8997 27.2793 28.8697 27.2943L25.4486 28.6898C26.8741 26.9792 28.5396 25.4637 30.3702 24.1883L30.3552 24.1733ZM22.1475 33.7465L25.4486 35.1419L21.0671 36.9125C21.0671 36.9125 20.9771 36.9425 20.9471 36.9575L20.797 37.0176C21.1722 35.8772 21.6373 34.7968 22.1625 33.7315L22.1475 33.7465ZM19.8817 40.6338L21.5023 39.9736L25.4186 41.6391L19.5366 44.0249C19.5816 42.8695 19.7017 41.7441 19.8967 40.6338H19.8817ZM19.5816 47.236L21.4423 46.4857L25.3436 48.1363L20.0168 50.297C19.8067 49.3067 19.6717 48.2713 19.5816 47.236ZM20.8421 53.193L21.4123 52.9679L25.3286 54.6184L21.9974 55.9689C21.5623 55.0686 21.1872 54.1383 20.8571 53.193H20.8421Z" fill="white"/>
<path d="M67.9425 23.3778L70.1332 21.3221C69.473 20.6168 68.7378 19.8966 67.8825 19.1313L65.8718 21.3671C66.6521 22.0723 67.3423 22.7325 67.9425 23.3778Z" fill="white"/>
<path d="M76.5255 45C76.5255 62.3758 62.3908 76.5105 45.015 76.5105C37.8876 76.5105 31.1654 74.1847 25.5835 69.7882L23.7229 72.144C29.8449 76.9606 37.2124 79.4965 45.015 79.4965C64.0413 79.4965 79.5265 64.0113 79.5265 44.985C79.5265 37.1824 76.9757 29.8149 72.1741 23.6929L69.8183 25.5535C74.2147 31.1354 76.5405 37.8576 76.5405 44.985L76.5255 45Z" fill="white"/>
<path d="M19.5964 63.6361C15.6201 58.2043 13.5044 51.7672 13.5044 44.9999C13.5044 27.6241 27.6391 13.4894 45.0149 13.4894C51.7822 13.4894 58.2193 15.5901 63.6511 19.5814L65.4217 17.1656C59.4797 12.7992 52.4124 10.5034 45.0149 10.5034C25.9886 10.5034 10.5034 25.9886 10.5034 45.0149C10.5034 52.4274 12.8142 59.4797 17.1656 65.4217L19.5814 63.6511L19.5964 63.6361Z" fill="white"/>
<path d="M21.3822 65.8569L19.1465 67.8676C19.9117 68.7229 20.632 69.4581 21.3372 70.1184L23.3929 67.9276C22.7477 67.3274 22.0875 66.6522 21.3822 65.8569Z" fill="white"/>
<path d="M1.5005 54.003H5.50684C6.51217 58.4745 8.26776 62.6909 10.7136 66.5622L7.87763 69.3981C7.29243 69.9833 7.29243 70.9286 7.87763 71.5138L18.4862 82.1224C19.0714 82.7076 20.0167 82.7076 20.6019 82.1224L23.4378 79.2864C27.3091 81.7322 31.5255 83.4728 35.997 84.4932V88.4995C35.997 89.3248 36.6722 90 37.4975 90H52.5025C53.3278 90 54.003 89.3248 54.003 88.4995V84.4932C58.4745 83.4878 62.6909 81.7322 66.5622 79.2864L69.3981 82.1224C69.9833 82.7076 70.9286 82.7076 71.5138 82.1224L82.1224 71.5138C82.7076 70.9286 82.7076 69.9833 82.1224 69.3981L79.2864 66.5622C81.7322 62.6909 83.4728 58.4745 84.4932 54.003H88.4995C89.3248 54.003 90 53.3278 90 52.5025V37.4975C90 36.6722 89.3248 35.997 88.4995 35.997H84.4932C83.4878 31.5255 81.7322 27.3091 79.2864 23.4378L82.1224 20.6019C82.7076 20.0167 82.7076 19.0714 82.1224 18.4862L71.5138 7.87763C70.9286 7.29243 69.9833 7.29243 69.3981 7.87763L66.5622 10.7136C62.6909 8.26776 58.4745 6.52718 54.003 5.50684V1.5005C54.003 0.675225 53.3278 0 52.5025 0H37.4975C36.6722 0 35.997 0.675225 35.997 1.5005V5.50684C31.5255 6.51217 27.3091 8.26776 23.4378 10.7136L20.6019 7.87763C20.0167 7.29243 19.0714 7.29243 18.4862 7.87763L7.87763 18.4862C7.29243 19.0714 7.29243 20.0167 7.87763 20.6019L10.7136 23.4378C8.26776 27.3091 6.52718 31.5255 5.50684 35.997H1.5005C0.675225 35.997 0 36.6722 0 37.4975V52.5025C0 53.3278 0.675225 54.003 1.5005 54.003ZM3.001 38.998H6.73725C7.45749 38.998 8.07269 38.4878 8.20774 37.7826C9.16806 32.846 11.0737 28.2394 13.8796 24.068C14.2848 23.4678 14.2097 22.6726 13.6996 22.1624L11.0587 19.5215L19.5515 11.0287L22.1924 13.6696C22.7026 14.1797 23.4978 14.2548 24.098 13.8496C28.2694 11.0437 32.876 9.13805 37.8126 8.17773C38.5178 8.04268 39.028 7.42748 39.028 6.70724V2.97099H51.032V6.70724C51.032 7.42748 51.5422 8.04268 52.2474 8.17773C57.1841 9.13805 61.7906 11.0437 65.962 13.8496C66.5622 14.2548 67.3575 14.1797 67.8676 13.6696L70.5085 11.0287L79.0013 19.5215L76.3605 22.1624C75.8503 22.6726 75.7753 23.4678 76.1804 24.068C78.9863 28.2394 80.892 32.846 81.8523 37.7826C81.9873 38.4878 82.6025 38.998 83.3228 38.998H87.059V51.002H83.3228C82.6025 51.002 81.9873 51.5122 81.8523 52.2174C80.892 57.1541 78.9863 61.7606 76.1804 65.932C75.7753 66.5322 75.8503 67.3274 76.3605 67.8376L79.0013 70.4785L70.5085 78.9713L67.8676 76.3305C67.3575 75.8203 66.5622 75.7452 65.962 76.1504C61.7906 78.9563 57.1841 80.862 52.2474 81.8223C51.5422 81.9573 51.032 82.5725 51.032 83.2928V87.029H39.028V83.2928C39.028 82.5725 38.5178 81.9573 37.8126 81.8223C32.876 80.862 28.2694 78.9563 24.098 76.1504C23.4978 75.7452 22.7026 75.8203 22.1924 76.3305L19.5515 78.9713L11.0587 70.4785L13.6996 67.8376C14.2097 67.3274 14.2848 66.5322 13.8796 65.932C11.0737 61.7606 9.16806 57.1541 8.20774 52.2174C8.07269 51.5122 7.45749 51.002 6.73725 51.002H3.001V38.998Z" fill="white"/>
</svg>
