<svg width="80" height="80" viewBox="0 0 80 80" fill="none" xmlns="http://www.w3.org/2000/svg">
<path d="M74.304 35.1041L59.6 44.9041C59.6 41.9281 58.2481 39.2961 56.1521 37.5041C61.1361 34.5041 64.496 29.0961 64.496 22.8561C64.496 13.3841 56.816 5.7041 47.344 5.7041C37.872 5.7041 30.192 13.3841 30.192 22.8561C30.192 27.6641 32.184 31.9921 35.368 35.1041H26.384C28.728 32.5041 30.2 29.0881 30.2 25.3041C30.2 17.1841 23.616 10.6001 15.496 10.6001C7.38405 10.6001 0.800049 17.1841 0.800049 25.3041C0.800049 29.7361 2.80005 33.6561 5.90405 36.3521C2.87205 38.0161 0.800049 41.2001 0.800049 44.9041V64.5041C0.800049 69.9121 5.19205 74.3041 10.6 74.3041H49.8C55.208 74.3041 59.6 69.9121 59.6 64.5041V62.0561L74.304 74.3041C77.008 74.3041 79.208 72.1121 79.208 69.4001V40.0001C79.2 37.2961 77.008 35.1041 74.304 35.1041ZM5.70405 25.3041C5.70405 19.8881 10.096 15.5041 15.504 15.5041C20.912 15.5041 25.304 19.8881 25.304 25.3041C25.304 30.7201 20.912 35.1041 15.504 35.1041C10.088 35.0961 5.70405 30.7121 5.70405 25.3041ZM54.704 64.5041C54.704 67.2081 52.512 69.4081 49.8 69.4081H10.6C7.89605 69.4081 5.69605 67.2161 5.69605 64.5041V44.9041C5.69605 42.2001 7.88805 40.0001 10.6 40.0001H49.8C52.504 40.0001 54.704 42.1921 54.704 44.9041V64.5041ZM47.3521 35.1281C40.5681 35.1281 35.072 29.6321 35.072 22.8481C35.072 16.0641 40.5681 10.5681 47.3521 10.5681C54.1361 10.5681 59.632 16.0641 59.632 22.8481C59.632 29.6321 54.128 35.1281 47.3521 35.1281ZM74.304 43.6721V66.1681C74.304 66.2961 74.304 66.3441 74.304 66.3441V69.3921L59.6 57.1521V52.2481C59.6 50.9521 59.6 51.2641 59.6 49.8001L74.304 40.0001C74.304 43.4401 74.304 41.6481 74.304 43.6721Z" fill="#0A6495"/>
</svg>
