<?xml version="1.0" encoding="utf-8"?>
<!-- Generator: Adobe Illustrator 16.0.0, SVG Export Plug-In . SVG Version: 6.00 Build 0)  -->
<!DOCTYPE svg PUBLIC "-//W3C//DTD SVG 1.1//EN" "http://www.w3.org/Graphics/SVG/1.1/DTD/svg11.dtd">
<svg version="1.1" id="Layer_1" xmlns="http://www.w3.org/2000/svg" xmlns:xlink="http://www.w3.org/1999/xlink" x="0px" y="0px"
	 width="491.565px" height="491.761px" viewBox="0 0 491.565 491.761" enable-background="new 0 0 491.565 491.761"
	 xml:space="preserve">
<path fill-rule="evenodd" clip-rule="evenodd" fill="#E12026" d="M235.815,209.96c-6.24-7.693-5.891-13.606,1.221-20.719
	c7.659-7.66,15.259-15.379,23.016-22.938c2.139-2.083,2.433-3.632,0.039-5.608c-1.535-1.268-2.852-2.799-4.265-4.215
	c-5.496-5.508-5.295-8.263,0.986-13.512c3.073-2.26,5.739-4.926,7.999-7.999c5.419-6.642,8.617-6.864,14.488-1.01
	c6.519,6.5,6.519,6.5,13.025-0.006c19.999-19.999,39.948-40.049,60.061-59.933c2.493-2.464,2.809-3.968-0.046-6.064
	c-1.325-0.974-2.378-2.319-3.555-3.495c-5.927-5.927-5.711-8.991,1.017-14.481c2.727-2.322,5.981-4.181,6.999-7.999
	c8.51-6.667,9.821-6.243,21.539,5.958c6.438-6.438,13.19-12.599,19.212-19.406c4.52-5.109,9.486-7.68,16.242-6.55
	c7.832,1.645,14.253,6.248,20.231,10.986c10.958,8.685,21.078,18.382,28.608,30.381c2.894,4.612,6.199,9.052,7.153,14.625
	c1.156,6.808-1.797,11.526-6.611,16.312c-53.938,53.617-107.657,107.455-161.435,161.232c-5.842,5.842-12.266,6.327-18.931,1.433
	c-7.496-8.627-15.918-16.351-23.986-24.416C251.227,224.942,243.983,216.977,235.815,209.96z"/>
<path fill-rule="evenodd" clip-rule="evenodd" fill="#1589CA" d="M129.829,417.934c-0.021,11.4,0.027,22.6-4.739,33.567
	c-5.926,13.639-15.214,23.737-27.592,31.449c-9.602,5.983-20.288,8.854-31.318,8.811c-24.107-0.095-43.141-10.364-56.339-30.785
	c-5.166-7.992-7.645-16.826-9.147-26.275c-4.336-27.275,12.201-54.369,34.522-65.775c8.363-4.272,17.129-7.03,26.63-6.987
	c3.997,0.018,7.994,0.003,11.99,0.003c4.292,1.976,9.07,2.027,13.516,3.705c22.379,8.444,35.411,24.854,41.494,47.444
	C129.275,414.685,127.851,416.655,129.829,417.934z"/>
<path fill-rule="evenodd" clip-rule="evenodd" fill="#1589CA" d="M235.815,209.96c13.551,13.384,27.115,26.756,40.641,40.166
	c2.206,2.188,4.24,4.548,6.354,6.827c-2.49-0.308-3.339,1.907-4.649,3.215c-41.914,41.835-83.78,83.719-125.667,125.581
	c-1.143,1.143-2.441,2.129-3.667,3.188c-10.213-20.449-25.544-35.781-45.994-45.994c0.756-0.589,1.585-1.105,2.258-1.778
	c42.994-42.971,85.976-85.953,128.947-128.946C234.709,211.544,235.227,210.716,235.815,209.96z"/>
<path fill-rule="evenodd" clip-rule="evenodd" fill="#1589CA" d="M469.786,77.977c-2.804-10.291-9.087-18.599-15.973-26.294
	c-9.063-10.129-18.936-19.497-30.999-26.157c-2.846-1.572-5.771-2.982-9.021-3.542c6.474-6.64,12.976-13.251,19.408-19.93
	c3.385-3.515,7.12-1.708,10.519-0.514c7.782,2.733,14.685,7.27,20.701,12.75c10.007,9.117,19.61,18.716,24.825,31.659
	c3.02,7.497,3.9,9.007-2.393,15.405C481.286,67.015,475.484,72.445,469.786,77.977z"/>
<path fill-rule="evenodd" clip-rule="evenodd" fill="#E12026" d="M102.833,342.943c20.45,10.213,35.781,25.545,45.994,45.994
	c2.726,7.08-0.504,11.902-5.731,16.342c-4.651,3.95-8.861,8.417-13.267,12.655c-1.33-4.856-2.151-9.924-4.075-14.531
	c-8.384-20.074-22.664-33.704-43.996-39.59c-2.634-0.728-5.657,0.23-7.922-1.872c5.887-6.053,11.729-12.15,17.679-18.14
	C94.967,340.327,99.006,342.573,102.833,342.943z"/>
<path fill-rule="evenodd" clip-rule="evenodd" fill="#1589CA" d="M356.8,41.981c-1.018,3.817-4.271,5.679-6.999,7.999
	c-2.965-3.214-6.49-4.772-10.891-3.597c-6.72,1.795-12.777,0.215-17.581-4.528c-5.014-4.952-7.535-10.667-5.735-18.391
	c2.653-11.387,11.18-15.245,18.341-15.285c10.638-0.061,15.805,4.77,19.514,14.348c1.145,2.957,0.667,6.892-0.085,10.145
	C352.402,36.837,353.224,39.769,356.8,41.981z"/>
<path fill-rule="evenodd" clip-rule="evenodd" fill="#1589CA" d="M264.812,134.969c-2.259,3.074-4.926,5.74-7.999,7.999
	c-0.928-3.362-3.496-3.806-6.512-4.062c-5.718-0.486-11.494,1.29-17.185-1.754c-8.406-4.496-11.325-11.399-10.21-20.255
	c0.995-7.904,6.065-13.435,13.322-15.428c5.869-1.612,12.559-1.659,17.743,3.188c5.451,5.096,9.154,10.668,7.081,18.888
	C260.023,127.624,259.918,132.374,264.812,134.969z"/>
<rect x="-995.153" y="-655.012" fill-rule="evenodd" clip-rule="evenodd" fill="#1589CA" width="88" height="98"/>
<rect x="-867.153" y="-655.012" fill-rule="evenodd" clip-rule="evenodd" fill="#E12026" width="88" height="98"/>
</svg>
