<?xml version="1.0" encoding="utf-8"?>
<!-- Generator: Adobe Illustrator 16.0.0, SVG Export Plug-In . SVG Version: 6.00 Build 0)  -->
<!DOCTYPE svg PUBLIC "-//W3C//DTD SVG 1.1//EN" "http://www.w3.org/Graphics/SVG/1.1/DTD/svg11.dtd">
<svg version="1.1" id="Layer_1" xmlns="http://www.w3.org/2000/svg" xmlns:xlink="http://www.w3.org/1999/xlink" x="0px" y="0px"
	 width="626.836px" height="493.961px" viewBox="0 0 626.836 493.961" enable-background="new 0 0 626.836 493.961"
	 xml:space="preserve">
<g>
	<path fill-rule="evenodd" clip-rule="evenodd" fill="#E12026" d="M526.744,783.857c-6.24-7.693-5.891-13.606,1.221-20.719
		c7.659-7.66,15.259-15.379,23.016-22.938c2.139-2.083,2.433-3.632,0.039-5.608c-1.535-1.268-2.852-2.799-4.265-4.215
		c-5.496-5.508-5.295-8.263,0.986-13.512c3.073-2.26,5.739-4.926,7.999-7.999c5.419-6.642,8.617-6.864,14.488-1.01
		c6.519,6.5,6.519,6.5,13.025-0.006c19.999-19.999,39.948-40.049,60.061-59.933c2.493-2.464,2.809-3.968-0.046-6.064
		c-1.325-0.974-2.378-2.319-3.555-3.495c-5.927-5.927-5.711-8.991,1.017-14.481c2.727-2.322,5.981-4.181,6.999-7.999
		c8.51-6.667,9.821-6.243,21.539,5.958c6.438-6.438,13.19-12.599,19.212-19.406c4.52-5.109,9.486-7.68,16.242-6.55
		c7.832,1.645,14.253,6.248,20.231,10.986c10.958,8.685,21.078,18.382,28.608,30.381c2.894,4.612,6.199,9.052,7.153,14.625
		c1.156,6.808-1.797,11.526-6.611,16.312c-53.938,53.617-107.657,107.455-161.435,161.232c-5.842,5.842-12.266,6.327-18.931,1.433
		c-7.496-8.627-15.918-16.351-23.986-24.416C542.155,798.838,534.912,790.874,526.744,783.857z"/>
	<path fill-rule="evenodd" clip-rule="evenodd" fill="#1589CA" d="M420.758,991.831c-0.021,11.4,0.027,22.6-4.739,33.567
		c-5.926,13.639-15.214,23.737-27.592,31.449c-9.602,5.983-20.288,8.854-31.318,8.811c-24.107-0.095-43.141-10.364-56.339-30.785
		c-5.166-7.992-7.645-16.826-9.147-26.275c-4.336-27.275,12.201-54.369,34.522-65.775c8.363-4.272,17.129-7.03,26.63-6.987
		c3.997,0.018,7.994,0.003,11.99,0.003c4.292,1.976,9.07,2.027,13.516,3.705c22.379,8.444,35.411,24.854,41.494,47.444
		C420.204,988.582,418.779,990.551,420.758,991.831z"/>
	<path fill-rule="evenodd" clip-rule="evenodd" fill="#1589CA" d="M526.744,783.857c13.551,13.384,27.115,26.756,40.641,40.166
		c2.206,2.188,4.24,4.548,6.354,6.827c-2.49-0.308-3.339,1.907-4.649,3.215c-41.914,41.835-83.78,83.719-125.667,125.581
		c-1.143,1.143-2.441,2.129-3.667,3.188c-10.213-20.449-25.544-35.781-45.994-45.994c0.756-0.589,1.585-1.105,2.258-1.778
		c42.994-42.971,85.976-85.953,128.947-128.946C525.638,785.441,526.155,784.613,526.744,783.857z"/>
	<path fill-rule="evenodd" clip-rule="evenodd" fill="#1589CA" d="M760.715,651.873c-2.804-10.291-9.087-18.599-15.973-26.294
		c-9.063-10.129-18.936-19.497-30.999-26.157c-2.846-1.572-5.771-2.982-9.021-3.542c6.474-6.64,12.976-13.251,19.408-19.93
		c3.385-3.515,7.12-1.708,10.519-0.514c7.782,2.733,14.685,7.27,20.701,12.75c10.007,9.117,19.61,18.716,24.825,31.659
		c3.02,7.497,3.9,9.007-2.393,15.405C772.215,640.912,766.413,646.341,760.715,651.873z"/>
	<path fill-rule="evenodd" clip-rule="evenodd" fill="#E12026" d="M393.761,916.839c20.45,10.213,35.781,25.545,45.994,45.994
		c2.726,7.08-0.504,11.902-5.731,16.342c-4.651,3.95-8.861,8.417-13.267,12.655c-1.33-4.856-2.151-9.924-4.075-14.531
		c-8.384-20.074-22.664-33.704-43.996-39.59c-2.634-0.728-5.657,0.23-7.922-1.872c5.887-6.053,11.729-12.15,17.679-18.14
		C385.896,914.223,389.935,916.469,393.761,916.839z"/>
	<path fill-rule="evenodd" clip-rule="evenodd" fill="#1589CA" d="M647.729,615.877c-1.018,3.817-4.271,5.679-6.999,7.999
		c-2.965-3.214-6.49-4.772-10.891-3.597c-6.72,1.795-12.777,0.215-17.581-4.528c-5.014-4.952-7.535-10.667-5.735-18.391
		c2.653-11.387,11.18-15.245,18.341-15.285c10.638-0.061,15.805,4.77,19.514,14.348c1.145,2.957,0.667,6.892-0.085,10.145
		C643.331,610.734,644.153,613.665,647.729,615.877z"/>
	<path fill-rule="evenodd" clip-rule="evenodd" fill="#1589CA" d="M555.741,708.866c-2.259,3.074-4.926,5.74-7.999,7.999
		c-0.928-3.362-3.496-3.806-6.512-4.062c-5.718-0.486-11.494,1.29-17.185-1.754c-8.406-4.496-11.325-11.399-10.21-20.255
		c0.995-7.904,6.065-13.435,13.322-15.428c5.869-1.612,12.559-1.659,17.743,3.188c5.451,5.096,9.154,10.668,7.081,18.888
		C550.952,701.521,550.847,706.27,555.741,708.866z"/>
</g>
<rect x="-704.225" y="-81.116" fill-rule="evenodd" clip-rule="evenodd" fill="#1589CA" width="88" height="98"/>
<rect x="-576.225" y="-81.116" fill-rule="evenodd" clip-rule="evenodd" fill="#E12026" width="88" height="98"/>
<path fill-rule="evenodd" clip-rule="evenodd" fill="#1589CA" d="M140.78,318.309c29.478-10.403,48.891-29.453,60.273-58.234
	c2.014,2.452,3.312,4.291,4.898,5.873c50.298,50.348,100.646,100.625,150.879,151.033c2.491,2.491,4.854,3.6,8.389,3.555
	c15.908-0.194,31.814,0,47.722-0.154c3.098-0.021,4.525,0.218,4.485,4.033c-0.219,21.824-0.219,43.649,0,65.449
	c0.04,3.75-1.278,4.073-4.446,4.073c-61.178-0.085-122.335-0.085-183.519,0.025c-4.202,0-5.635-1.149-5.59-5.465
	c0.194-20.8,0.214-41.605,0-62.391c-0.045-4.615,1.452-6.092,5.938-5.724c4.4,0.348,8.822,0.069,13.113,0.069
	C209.094,386.617,175.175,352.705,140.78,318.309z"/>
<path fill="#E12026" d="M187.03,185.157c-4.684-24.146-16.579-44.54-36.842-59.363c-15.39-11.267-32.596-17.747-51.71-18.592
	c-19.637-0.845-37.951,3.943-54.529,14.649c-17.554,11.333-30.338,26.593-37.901,46.271c-2.8,7.26-3.904,14.868-6.047,22.257
	c0,7.345,0,14.694,0,22.019c3.033,2.904,1.298,6.892,2.188,10.338c7.15,27.737,23.252,48.329,48.264,61.81
	c17.469,9.403,36.126,12.958,56.131,10.035c11.527-1.671,22.516-5.008,32.421-10.467c18.161-10.035,31.88-24.664,40.612-43.844
	C187.682,222.581,190.67,204.009,187.03,185.157z M93.948,272.362c-41.87,0.87-71.755-33.744-71.626-71.103
	c0.13-39.165,30.383-67.469,63.908-70.935c47.941-4.942,82.227,35.112,79.125,76.524C162.908,239.856,134.3,273.381,93.948,272.362z
	"/>
<path fill="#1589CA" d="M90.327,162.03c-16.295,1.064-36.886,18.27-35.235,38.816c-2.367,20.522,18.309,41.393,41.501,39.94
	c17.922-1.124,38.314-17.902,36.947-42.218C132.61,182.422,117.463,160.254,90.327,162.03z"/>
<path fill="#E12026" d="M624.047,100.33c-4.356-4.44-10.079-4.292-15.062,0.586c-20.482,20.025-40.92,40.07-61.357,60.139
	c-6.39,6.286-12.805,12.571-18.985,19.07c-2.511,2.625-4.525,3.511-8.08,1.586c-16.644-9.105-33.267-18.294-50.303-26.639
	c-6.977-3.445-9.9-8.408-11.422-15.495c-4.092-19.095-8.603-38.1-12.979-57.125c-0.542-2.361-0.806-4.4,0.91-6.678
	c12.675-16.966,25.227-34.067,37.772-51.168c1.825-2.471,2.993-3.53,6.892-2.208c36.042,12.223,72.257,23.923,108.428,35.778
	c5.743,1.889,11.964-0.368,13.371-4.789c1.8-5.679-1.432-11.571-7.543-13.61C566.898,26.884,528.106,13.965,489.27,1.136
	c-4.858-1.602-9.776-2.163-13.396,2.799c-10.532,14.431-20.999,28.912-31.661,43.277c-2.734,3.685-4.555,9.06-9.667,9.731
	c-8.041,1.04-15.628,4.117-23.665,4.898c-4.097,0.412-5.51,2.968-4.53,6.35c0.995,3.317,1.104,7.15,2.641,9.905
	c2.625,4.679-0.478,5.137-3.208,5.763c-1.46,0.342-2.922,0.672-4.383,1.01l19.052,80.441c1.706-0.4,3.413-0.796,5.118-1.198
	c2.994-0.696,3.535,0.194,3.988,2.337c0.87,4.143,1.582,8.304,2.426,12.442c0.502,2.491,1.239,3.923,4.575,3.033
	c8.15-2.144,16.514-3.421,24.665-5.634c3.987-1.104,7.324-0.975,10.944,0.975c15.688,8.473,31.447,16.842,47.246,25.141
	c7.389,3.879,10.293,3.272,16.339-2.561c17.663-17.056,34.331-35.126,52.6-51.601c11.939-10.771,22.904-22.646,34.262-34.067
	C627.752,109.021,628.165,104.537,624.047,100.33z"/>
<path fill="#1589CA" d="M357.068,94.934c-17.339,4.008-34.589,8.409-51.969,12.203c-14.196,3.119-28.368,6.391-42.521,9.751
	c-23.669,5.57-47.463,10.642-71.217,15.887c-2.602,0.562-3.074,1.994-1.691,3.944c8.543,11.765,14.435,24.729,16.559,39.14
	c1.039,7.001,2.904,14.087,1.606,21.193c-1.064,5.788-1.78,11.551-2.561,19.005c2.561-3.356,4.793-1.904,6.653-2.402
	c21.089-5.704,42.501-9.905,63.74-14.848c24.813-5.743,49.651-11.288,74.445-17.121c23.431-5.493,46.904-10.878,70.341-16.375
	L401.401,84.87C386.641,88.283,371.837,91.522,357.068,94.934z"/>
</svg>
