<?xml version="1.0" encoding="utf-8"?>
<!-- Generator: Adobe Illustrator 16.0.0, SVG Export Plug-In . SVG Version: 6.00 Build 0)  -->
<!DOCTYPE svg PUBLIC "-//W3C//DTD SVG 1.1//EN" "http://www.w3.org/Graphics/SVG/1.1/DTD/svg11.dtd">
<svg version="1.1" id="Layer_1" xmlns="http://www.w3.org/2000/svg" xmlns:xlink="http://www.w3.org/1999/xlink" x="0px" y="0px"
	 width="434.793px" height="408.793px" viewBox="0 0 434.793 408.793" enable-background="new 0 0 434.793 408.793"
	 xml:space="preserve">
<path fill-rule="evenodd" clip-rule="evenodd" fill="#E21D23" d="M434.793,286.489c-16.841-0.02-33.681,0.007-50.521-0.11
	c-2.365-0.017-3.425,0.583-3.009,3.014c0.023,0.137,0.012,0.282,0.001,0.424c-0.302,3.895,1.721,9.101-0.847,11.322
	c-2.209,1.911-7.272,0.584-11.074,0.585c-43.021,0.016-86.043-0.035-129.065,0.094c-3.463,0.011-4.729-0.692-4.404-4.327
	c0.312-3.478,1.257-8.171-0.516-10.233c-2.081-2.423-6.891-0.757-10.505-0.786c-12.878-0.103-25.757-0.115-38.634,0.021
	c-2.749,0.029-3.921-0.336-3.89-3.556c0.171-18.113,0.156-36.229,0.008-54.343c-0.024-2.911,0.966-3.272,3.559-3.456
	c4.215-0.299,6.398,0.759,7.652,5.252c2.101,7.529,5.955,14.339,11.685,19.855c9.348,8.999,23.992,9.521,34.12,1.361
	c6.04-4.865,6.798-11.351,5.901-18.413c-1.009-7.941-0.994-7.944,6.824-7.944c4.812,0,9.629-0.142,14.433,0.059
	c2.542,0.105,4.062-0.765,5.566-2.815c19.071-25.985,38.276-51.873,57.335-77.867c1.841-2.511,3.647-3.619,6.897-3.604
	c31.416,0.148,62.834,0.086,94.251,0.096c1.411,0,2.821,0.104,4.231,0.16C434.793,189.68,434.793,238.085,434.793,286.489z"/>
<path fill-rule="evenodd" clip-rule="evenodd" fill="#0E89CC" d="M434.793,381.601c-1.906,2.826-2.033,6.274-3.291,9.354
	c-4.783,11.708-13.524,17.828-26.109,17.83c-67.08,0.008-134.16,0.013-201.242-0.002c-20.456-0.004-36.943-16.375-37.045-36.747
	c-0.04-8.066,0.372-16.154-0.084-24.195c-0.978-17.242,10.434-25.729,22.926-29.212c3.978-1.109,8.03-1.613,12.156-1.612
	c68.354,0.003,136.708-0.003,205.063,0.007c9.157,0.001,17.354,2.237,23.068,10.135c2.425,3.353,3.036,7.424,4.559,11.133
	C434.793,352.728,434.793,367.164,434.793,381.601z"/>
<path fill-rule="evenodd" clip-rule="evenodd" fill="#E21D23" d="M0,261.014c2.437-5.087,2.364-10.826,4.34-16.082
	c4.932-13.118,13.126-23.232,26.108-29.854c-1.588,5.231-2.042,10.146,0.027,15.03c2.029,4.791,5.389,8.261,10.145,10.292
	c9.012,3.848,17.871,0.73,24.809-9.014c0.168,1.739,0.372,3.032,0.408,4.329c0.682,24.613,1.331,49.228,2.037,73.839
	c0.05,1.764-0.318,3.307-1.116,4.851c-3.497,6.767-7.059,13.504-10.339,20.375c-1.143,2.394-2.388,2.943-4.884,2.278
	c-26.624-7.096-44.835-22.482-50.334-50.594c-0.219-1.122,0.27-2.644-1.201-3.372c0-4.813,0-9.624,0-14.437
	c0.524-0.469,0.417-1.101,0.438-1.699c-0.019-0.599,0.085-1.229-0.438-1.697C0,263.844,0,262.429,0,261.014z"/>
<path fill-rule="evenodd" clip-rule="evenodd" fill="#E21D23" d="M169.792,34.964c0,8.769,1.986,18.171-0.554,26.129
	c-2.582,8.088-9.589,14.779-14.722,22.037c-30.992,43.836-62.006,87.657-92.991,131.497c-1.052,1.489-1.992,3.082-2.79,4.721
	c-2.952,6.061-9.375,8.797-15.13,6.36c-5.891-2.494-8.369-8.694-5.899-15.233c7.621-20.173,15.314-40.318,22.973-60.478
	c15.166-39.923,30.357-79.837,45.43-119.796c1.165-3.088,2.806-5.208,5.722-6.819c13.334-7.374,26.588-14.894,39.791-22.5
	c1.974-1.137,3.359-1.215,5.301,0.004c4.179,2.623,9.937,3.998,12.441,7.665c2.536,3.714,0.529,9.599,0.643,14.531
	c0.091,3.959,0.018,7.921,0.018,11.882C169.946,34.964,169.869,34.964,169.792,34.964z"/>
<path fill-rule="evenodd" clip-rule="evenodd" fill="#0E89CC" d="M182.329,77.945c7.819,23.35,15.556,46.015,22.993,68.778
	c8.229,25.185,16.204,50.453,24.235,75.702c1.067,3.354,1.878,6.795,2.694,10.223c1.188,4.979-0.481,9.147-4.403,11.307
	c-4.867,2.68-9.552,2.19-13.277-1.375c-1.565-1.498-2.469-3.407-3.421-5.306c-20.094-40.077-40.164-80.166-60.39-120.175
	c-1.422-2.813-1.041-4.348,1.001-6.494C161.889,99.967,171.852,89.173,182.329,77.945z"/>
<path fill-rule="evenodd" clip-rule="evenodd" fill="#E21D23" d="M78.085,313.82c3.112,10.567,5.9,20.137,8.761,29.684
	c0.834,2.782-1.27,4.474-2.313,6.467c-4.417,8.441-4.494,8.4-12.877,3.866c-3.095-1.674-6.147-3.435-9.303-4.984
	c-1.87-0.918-2.422-1.695-1.254-3.79C66.714,334.988,72.137,324.807,78.085,313.82z"/>
</svg>
