<?xml version="1.0" encoding="utf-8"?>
<!-- Generator: Adobe Illustrator 16.0.0, SVG Export Plug-In . SVG Version: 6.00 Build 0)  -->
<!DOCTYPE svg PUBLIC "-//W3C//DTD SVG 1.1//EN" "http://www.w3.org/Graphics/SVG/1.1/DTD/svg11.dtd">
<svg version="1.1" id="Layer_1" xmlns="http://www.w3.org/2000/svg" xmlns:xlink="http://www.w3.org/1999/xlink" x="0px" y="0px"
	 width="348.711px" height="105.035px" viewBox="3.267 24.538 348.711 105.035"
	 enable-background="new 3.267 24.538 348.711 105.035" xml:space="preserve">
<linearGradient id="SVGID_1_" gradientUnits="userSpaceOnUse" x1="-971.6846" y1="676.1279" x2="-1332.0789" y2="570.5019" gradientTransform="matrix(0.9884 0.1519 0.1519 -0.9884 1223.6479 858.8693)">
	<stop  offset="0" style="stop-color:#E21D23;stop-opacity:0.17"/>
	<stop  offset="1" style="stop-color:#2387C3;stop-opacity:0.23"/>
</linearGradient>
<path fill="url(#SVGID_1_)" d="M351.978,32.786c-15.265,29.056-39.284,53.474-69.399,70.556
	c-30.115,17.08-65.154,26.159-101.242,26.231c-36.09,0.073-71.822-8.864-103.248-25.823C46.663,86.794,20.768,62.474,3.267,33.484
	l17.694-8.32C36.653,51.16,59.873,72.965,88.053,88.172c28.179,15.206,60.22,23.22,92.58,23.154
	c32.36-0.063,63.78-8.204,90.785-23.521c27.002-15.316,48.539-37.212,62.229-63.267L351.978,32.786z"/>
</svg>
