<svg width="120" height="120" viewBox="0 0 120 120" fill="none" xmlns="http://www.w3.org/2000/svg">
<path d="M102.857 68.5714V17.1428H38.5716C38.5716 28.9585 28.9588 38.5714 17.1431 38.5714V120H90.0002V107.102C84.8081 103.187 81.4288 96.99 81.4288 90C81.4288 78.1842 91.0416 68.5714 102.857 68.5714Z" fill="#F0F0F0"/>
<path d="M68.5712 8.57143C68.5712 3.83786 64.7334 0 59.9998 0C55.2662 0 51.4284 3.83786 51.4284 8.57143H42.8569V17.1429H77.1426V8.57143H68.5712ZM59.9998 12.8571C57.6319 12.8571 55.7141 10.9393 55.7141 8.57143C55.7141 6.20357 57.6319 4.28571 59.9998 4.28571C62.3676 4.28571 64.2855 6.20357 64.2855 8.57143C64.2855 10.9393 62.3676 12.8571 59.9998 12.8571Z" fill="#505050"/>
<path d="M94.2861 102.857V120L102.858 111.429L111.429 120V102.857H94.2861Z" fill="#FA6450"/>
<path d="M98.5718 102.857H94.2861V120L98.5718 115.714V102.857Z" fill="#DC4632"/>
<path d="M102.857 107.143C112.324 107.143 120 99.4678 120 90C120 80.5323 112.324 72.8572 102.857 72.8572C93.389 72.8572 85.7139 80.5323 85.7139 90C85.7139 99.4678 93.389 107.143 102.857 107.143Z" fill="#3CC8B4"/>
<path d="M89.9632 90C89.9632 81.2529 96.5182 74.0508 104.982 73.0029C104.284 72.915 103.577 72.8572 102.857 72.8572C93.3896 72.8572 85.7139 80.5329 85.7139 90C85.7139 99.4672 93.3896 107.143 102.857 107.143C103.577 107.143 104.284 107.085 104.98 106.997C96.5182 105.949 89.9632 98.7472 89.9632 90Z" fill="#1EAA96"/>
<path d="M113.572 85.7144L100.714 98.5716L92.1431 90.0001L96.4288 85.7144L100.714 90.0001L109.286 81.4287L113.572 85.7144Z" fill="#F0F0F0"/>
<path d="M17.1431 38.5714V120H25.7145V36.7693C23.0874 37.9221 20.1902 38.5714 17.1431 38.5714Z" fill="#D2D2D2"/>
<path d="M17.1429 34.2857C26.6106 34.2857 34.2857 26.6106 34.2857 17.1429C34.2857 7.67512 26.6106 0 17.1429 0C7.67512 0 0 7.67512 0 17.1429C0 26.6106 7.67512 34.2857 17.1429 34.2857Z" fill="#64C8F0"/>
<path d="M4.24929 17.1429C4.24929 8.39571 10.8043 1.19357 19.2686 0.145714C18.57 0.0578568 17.8629 0 17.1429 0C7.67571 0 0 7.67571 0 17.1429C0 26.61 7.67571 34.2857 17.1429 34.2857C17.8629 34.2857 18.57 34.2279 19.2664 34.14C10.8043 33.0921 4.24929 25.89 4.24929 17.1429Z" fill="#46AAD2"/>
<path d="M4.28613 18.1819L8.05113 14.4169C13.0718 9.39619 21.2126 9.39619 26.2333 14.4169L30.0004 18.1819L26.2354 21.9469C21.2147 26.9676 13.074 26.9676 8.05328 21.9469L4.28613 18.1819Z" fill="#F0F0F0"/>
<path d="M19.2855 18.1822C18.1026 18.1822 17.1426 17.2222 17.1426 16.0393C17.1426 15.1758 17.6591 14.4429 18.3941 14.1043C17.9955 13.9822 17.5819 13.8965 17.1426 13.8965C14.7748 13.8965 12.8569 15.8143 12.8569 18.1822C12.8569 20.5501 14.7748 22.4679 17.1426 22.4679C19.5105 22.4679 21.4284 20.5501 21.4284 18.1822C21.4284 17.7429 21.3426 17.3293 21.2205 16.9308C20.8819 17.6658 20.1491 18.1822 19.2855 18.1822Z" fill="#64C8F0"/>
<path d="M47.1433 38.5713H34.2861V51.4284H47.1433V38.5713Z" fill="#3CC8B4"/>
<path d="M85.7149 47.1428H51.4292V51.4285H85.7149V47.1428Z" fill="#505050"/>
<path d="M47.1433 55.7141H34.2861V68.5713H47.1433V55.7141Z" fill="#3CC8B4"/>
<path d="M85.7149 64.2859H51.4292V68.5716H85.7149V64.2859Z" fill="#505050"/>
<path d="M47.1433 72.8572H34.2861V85.7143H47.1433V72.8572Z" fill="#FA6450"/>
<path d="M47.1433 90H34.2861V102.857H47.1433V90Z" fill="#FA6450"/>
<path d="M51.4292 85.7144H81.8621C82.1663 84.223 82.6356 82.7916 83.2313 81.4287H51.4292V85.7144Z" fill="#505050"/>
<path d="M51.4292 102.857H85.7149V102.756C84.7463 101.464 83.9256 100.065 83.2678 98.5713H51.4292V102.857Z" fill="#505050"/>
</svg>
