<svg width="120" height="121" viewBox="0 0 120 121" fill="none" xmlns="http://www.w3.org/2000/svg">
<path d="M18.482 6.30737C17.9525 12.9258 11.0693 13.9848 11.0693 13.9848C16.9995 14.2495 18.482 22.0328 18.482 22.0328C18.5879 16.4733 26.1064 13.9318 26.1064 13.9318C20.441 13.5612 18.482 6.30737 18.482 6.30737Z" fill="#D7E057"/>
<path d="M26.1088 13.0846C21.1318 12.8198 19.2786 6.14846 19.2786 6.09552C19.1727 5.72488 18.8021 5.46015 18.4315 5.51309C18.0608 5.56604 17.7431 5.83078 17.6902 6.25436C17.2137 12.1315 11.1777 13.1375 10.9129 13.1905C10.4893 13.2434 10.2246 13.6141 10.2246 14.0376C10.2246 14.4612 10.5952 14.7789 10.9659 14.7789C16.1547 15.0436 17.5843 22.0856 17.6373 22.1915C17.6902 22.5622 18.0608 22.8269 18.4315 22.8269H18.4844C18.908 22.774 19.2257 22.4563 19.2257 22.0327C19.3316 17.1086 26.2147 14.673 26.3206 14.6201C26.6913 14.5142 26.9031 14.1435 26.8501 13.7729C26.7972 13.4023 26.4795 13.1375 26.1088 13.0846ZM18.3785 19.1206C17.5843 17.2674 16.2077 15.0436 13.878 13.8788C15.5723 13.0846 17.6902 11.6021 18.6962 9.00763C19.5963 10.8078 21.1318 13.0846 23.6203 14.1435C21.873 15.0436 19.4904 16.685 18.3785 19.1206Z" fill="#3A312A"/>
<path d="M6.09553 16.0498C5.72489 20.7092 0.800781 21.4504 0.800781 21.4504C4.98363 21.6622 6.04258 27.1158 6.04258 27.1158C6.14847 23.1977 11.4432 21.3975 11.4432 21.3975C7.47216 21.1328 6.09553 16.0498 6.09553 16.0498Z" fill="#D7E057"/>
<path d="M11.4935 20.6035C8.15781 20.3917 6.88707 15.8911 6.88707 15.8382C6.78118 15.4676 6.41055 15.2028 6.03992 15.2558C5.66928 15.3087 5.3516 15.5735 5.29865 15.997C4.98097 19.9681 0.851065 20.6564 0.692223 20.7094C0.268643 20.7623 0.00390625 21.1329 0.00390625 21.5565C0.00390625 21.9801 0.374538 22.2978 0.74517 22.2978C4.2397 22.4566 5.2457 27.2748 5.2457 27.3278C5.29865 27.6984 5.66928 27.9632 6.03992 27.9632H6.09286C6.51644 27.9102 6.83413 27.5925 6.83413 27.1689C6.88707 23.8333 11.6523 22.1919 11.7053 22.1389C12.0759 22.033 12.2877 21.6624 12.2348 21.2918C12.1818 20.9211 11.8641 20.6035 11.4935 20.6035ZM5.98697 24.5216C5.45749 23.4097 4.61033 22.1389 3.3396 21.3447C4.45149 20.7623 5.56339 19.8092 6.2517 18.3797C6.88707 19.4916 7.84013 20.7623 9.21676 21.5036C8.10487 22.1919 6.78118 23.1979 5.98697 24.5216Z" fill="#3A312A"/>
<path d="M6.09553 0.800781C5.72489 5.46016 0.800781 6.20142 0.800781 6.20142C5.03658 6.41321 6.04258 11.8668 6.04258 11.8668C6.14847 7.94869 11.4432 6.09553 11.4432 6.09553C7.47216 5.88374 6.09553 0.800781 6.09553 0.800781Z" fill="#D7E057"/>
<path d="M11.4935 5.35444C8.15781 5.14265 6.88707 0.642115 6.88707 0.589168C6.78118 0.218536 6.41055 -0.046201 6.03992 0.00674641C5.66928 0.0596939 5.3516 0.324431 5.29865 0.748011C4.98097 4.71907 0.851065 5.40739 0.692223 5.46033C0.268643 5.51328 0.00390625 5.88391 0.00390625 6.30749C0.00390625 6.73107 0.374538 7.04876 0.74517 7.04876C4.2397 7.2076 5.2457 12.0258 5.2457 12.0788C5.29865 12.4494 5.66928 12.7141 6.03992 12.7141H6.09286C6.51644 12.6612 6.83413 12.3435 6.83413 11.9199C6.88707 8.58423 11.6523 6.94286 11.7053 6.88991C12.0759 6.78402 12.2877 6.41339 12.2348 6.04276C12.1818 5.67212 11.8641 5.35444 11.4935 5.35444ZM5.98697 9.3255C5.45749 8.2136 4.61033 6.94286 3.3396 6.14865C4.45149 5.56623 5.56339 4.61317 6.2517 3.18359C6.88707 4.29549 7.84013 5.56623 9.21676 6.30749C8.10487 6.94286 6.78118 7.94886 5.98697 9.3255Z" fill="#3A312A"/>
<path d="M119.242 85.517C117.495 54.3309 91.6563 29.5515 60.0467 29.5515C28.4371 29.5515 2.54576 54.3309 0.798495 85.517C0.6926 87.3172 2.12218 88.8527 3.92239 88.8527H116.065C117.918 88.8527 119.295 87.3172 119.242 85.517Z" fill="#8AC6DD"/>
<path d="M119.984 85.464C118.237 53.6426 91.8688 28.7573 59.9944 28.7573C28.1201 28.7573 1.75224 53.6956 0.00497683 85.464C-0.0479706 86.5759 0.322662 87.6349 1.06393 88.4291C1.80519 89.2233 2.81119 89.6469 3.92309 89.6469H9.90615C10.3297 89.6469 10.7004 89.2763 10.7004 88.8527C10.7004 88.4291 10.3297 88.0585 9.90615 88.0585H3.92309C3.28772 88.0585 2.65235 87.7937 2.22877 87.3172C1.75224 86.8407 1.54045 86.2053 1.5934 85.5699C3.28772 54.5957 28.9672 30.3457 59.9944 30.3457C91.0216 30.3457 116.701 54.5957 118.395 85.5699C118.448 86.2053 118.184 86.8407 117.76 87.3172C117.337 87.7937 116.701 88.0585 116.066 88.0585H17.6365C17.2129 88.0585 16.8423 88.4291 16.8423 88.8527C16.8423 89.2763 17.2129 89.6469 17.6365 89.6469H116.066C117.178 89.6469 118.184 89.2233 118.925 88.4291C119.666 87.6349 120.09 86.5759 119.984 85.464Z" fill="#3A312A"/>
<path d="M59.9929 52.2659C39.767 52.2659 23.4062 68.6266 23.4062 88.8526H96.5796C96.5796 68.6266 80.2189 52.2659 59.9929 52.2659Z" fill="#D7E057"/>
<path d="M59.9942 51.4717C39.3976 51.4717 22.6133 68.256 22.6133 88.8526C22.6133 89.2762 22.9839 89.6468 23.4075 89.6468H96.5809C97.0045 89.6468 97.3751 89.2762 97.3751 88.8526C97.3751 68.256 80.5907 51.4717 59.9942 51.4717ZM24.2547 88.0584C24.6782 68.6796 40.5625 53.0601 60.0471 53.0601C79.5318 53.0601 95.416 68.6796 95.8396 88.0584H24.2547Z" fill="#3A312A"/>
<path d="M12.8722 43.8474C6.30668 43.8474 0.958984 49.1951 0.958984 55.7606C0.958984 62.3261 6.30668 67.6738 12.8722 67.6738C19.4376 67.6738 24.7853 62.3261 24.7853 55.7606C24.7853 49.1951 19.4376 43.8474 12.8722 43.8474Z" fill="#FCE8CB"/>
<path d="M12.8695 43.0532C5.88044 43.0532 0.162109 48.7715 0.162109 55.7606C0.162109 62.7497 5.88044 68.468 12.8695 68.468C19.8586 68.468 25.5769 62.7497 25.5769 55.7606C25.5769 48.7715 19.8586 43.0532 12.8695 43.0532ZM12.8695 66.9325C6.72759 66.9325 1.75053 61.9555 1.75053 55.8136C1.75053 49.6717 6.72759 44.6946 12.8695 44.6946C19.0114 44.6946 23.9885 49.6717 23.9885 55.8136C23.9885 61.9555 19.0114 66.9325 12.8695 66.9325Z" fill="#3A312A"/>
<path d="M9.95824 50.0422C9.26992 50.0422 8.6875 50.6247 8.6875 51.313C8.6875 52.0013 9.26992 52.5837 9.95824 52.5837C10.6466 52.5837 11.229 52.0013 11.229 51.313C11.229 50.6247 10.6466 50.0422 9.95824 50.0422Z" fill="#3A312A"/>
<path d="M15.5715 50.042C14.8832 50.042 14.3008 50.6244 14.3008 51.3127C14.3008 52.001 14.8832 52.5835 15.5715 52.5835C16.2598 52.5835 16.8423 52.001 16.8423 51.3127C16.8423 50.6244 16.2598 50.042 15.5715 50.042Z" fill="#3A312A"/>
<path d="M12.7645 53.9072C8.89929 53.9072 5.77539 57.0311 5.77539 60.8963C5.77539 61.3199 6.14602 61.6905 6.5696 61.6905C6.99318 61.6905 7.36381 61.3199 7.36381 60.8963C7.36381 57.9312 9.7994 55.4957 12.7645 55.4957C15.7295 55.4957 18.1651 57.9312 18.1651 60.8963C18.1651 61.3199 18.5357 61.6905 18.9593 61.6905C19.3829 61.6905 19.7535 61.3199 19.7535 60.8963C19.7535 57.0311 16.6296 53.9072 12.7645 53.9072Z" fill="#3A312A"/>
<path d="M107.276 43.8472C100.711 43.8472 95.3633 49.1949 95.3633 55.7603C95.3633 62.3258 100.711 67.6735 107.276 67.6735C113.842 67.6735 119.19 62.3258 119.19 55.7603C119.19 49.1949 113.842 43.8472 107.276 43.8472Z" fill="#FCE8CB"/>
<path d="M107.278 43.0532C100.289 43.0532 94.5703 48.7715 94.5703 55.7606C94.5703 62.7497 100.289 68.468 107.278 68.468C114.267 68.468 119.985 62.7497 119.985 55.7606C119.985 48.7715 114.32 43.0532 107.278 43.0532ZM107.278 66.9325C101.136 66.9325 96.1587 61.9555 96.1587 55.8136C96.1587 49.6717 101.136 44.6946 107.278 44.6946C113.42 44.6946 118.397 49.6717 118.397 55.8136C118.397 61.9555 113.42 66.9325 107.278 66.9325Z" fill="#3A312A"/>
<path d="M104.364 50.0422C103.675 50.0422 103.093 50.6247 103.093 51.313C103.093 52.0013 103.675 52.5837 104.364 52.5837C105.052 52.5837 105.634 52.0013 105.634 51.313C105.634 50.6247 105.052 50.0422 104.364 50.0422Z" fill="#3A312A"/>
<path d="M109.978 50.0422C109.289 50.0422 108.707 50.6247 108.707 51.313C108.707 52.0013 109.289 52.5837 109.978 52.5837C110.666 52.5837 111.249 52.0013 111.249 51.313C111.249 50.6247 110.719 50.0422 109.978 50.0422Z" fill="#3A312A"/>
<path d="M100.978 54.7017C100.978 58.1432 103.731 60.8965 107.172 60.8965C110.614 60.8965 113.367 58.1432 113.367 54.7017H100.978Z" fill="#FCE8CB"/>
<path d="M113.418 53.9072H100.975C100.551 53.9072 100.181 54.2779 100.181 54.7014C100.181 58.5666 103.305 61.6905 107.17 61.6905C111.035 61.6905 114.159 58.5666 114.159 54.7014C114.212 54.2249 113.841 53.9072 113.418 53.9072ZM107.17 60.1021C104.469 60.1021 102.193 58.0901 101.822 55.4957H112.517C112.147 58.0901 109.923 60.1021 107.17 60.1021Z" fill="#3A312A"/>
<path d="M39.6632 46.1769C46.2426 46.1769 51.5764 40.8432 51.5764 34.2638C51.5764 27.6843 46.2426 22.3506 39.6632 22.3506C33.0837 22.3506 27.75 27.6843 27.75 34.2638C27.75 40.8432 33.0837 46.1769 39.6632 46.1769Z" fill="#FCE8CB"/>
<path d="M39.6644 21.5562C32.6754 21.5562 26.957 27.2745 26.957 34.2635C26.957 41.2526 32.6754 46.9709 39.6644 46.9709C46.6535 46.9709 52.3718 41.2526 52.3718 34.2635C52.3718 27.2215 46.6535 21.5562 39.6644 21.5562ZM39.6644 45.3825C33.5225 45.3825 28.5455 40.4054 28.5455 34.2635C28.5455 28.1216 33.5225 23.1446 39.6644 23.1446C45.8063 23.1446 50.7834 28.1216 50.7834 34.2635C50.7834 40.4054 45.8063 45.3825 39.6644 45.3825Z" fill="#3A312A"/>
<path d="M36.7493 28.5457C36.0609 28.5457 35.4785 29.1281 35.4785 29.8164C35.4785 30.5047 36.0609 31.0871 36.7493 31.0871C37.4376 31.0871 38.02 30.5047 38.02 29.8164C38.02 29.0751 37.4376 28.5457 36.7493 28.5457Z" fill="#3A312A"/>
<path d="M42.3635 28.5457C41.6752 28.5457 41.0928 29.1281 41.0928 29.8164C41.0928 30.5047 41.6752 31.0871 42.3635 31.0871C43.0518 31.0871 43.6343 30.5047 43.6343 29.8164C43.6343 29.0751 43.1048 28.5457 42.3635 28.5457Z" fill="#3A312A"/>
<path d="M45.7503 35.4817H33.3606C32.937 35.4817 32.5664 35.8523 32.5664 36.2759C32.5664 36.6995 32.937 37.0701 33.3606 37.0701H45.7503C46.1739 37.0701 46.5445 36.6995 46.5445 36.2759C46.5445 35.8523 46.2269 35.4817 45.7503 35.4817Z" fill="#3A312A"/>
<path d="M82.2913 46.0197C88.7859 44.9657 93.1964 38.8463 92.1423 32.3517C91.0883 25.8571 84.9689 21.4467 78.4743 22.5007C71.9797 23.5547 67.5693 29.6741 68.6233 36.1687C69.6774 42.6633 75.7967 47.0737 82.2913 46.0197Z" fill="#FCE8CB"/>
<path d="M80.3783 21.5562C73.3892 21.5562 67.6709 27.2745 67.6709 34.2635C67.6709 41.2526 73.3892 46.9709 80.3783 46.9709C87.3674 46.9709 93.0857 41.2526 93.0857 34.2635C93.0857 27.2215 87.3674 21.5562 80.3783 21.5562ZM80.3783 45.3825C74.2364 45.3825 69.2593 40.4054 69.2593 34.2635C69.2593 28.1216 74.2364 23.1446 80.3783 23.1446C86.5202 23.1446 91.4973 28.1216 91.4973 34.2635C91.4973 40.4054 86.4672 45.3825 80.3783 45.3825Z" fill="#3A312A"/>
<path d="M77.4143 28.5457C76.726 28.5457 76.1436 29.1281 76.1436 29.8164C76.1436 30.5047 76.726 31.0871 77.4143 31.0871C78.1026 31.0871 78.685 30.5047 78.685 29.8164C78.685 29.0751 78.1556 28.5457 77.4143 28.5457Z" fill="#3A312A"/>
<path d="M83.0803 28.5457C82.392 28.5457 81.8096 29.1281 81.8096 29.8164C81.8096 30.5047 82.392 31.0871 83.0803 31.0871C83.7686 31.0871 84.351 30.5047 84.351 29.8164C84.351 29.0751 83.7686 28.5457 83.0803 28.5457Z" fill="#3A312A"/>
<path d="M86.4671 32.3577C86.0435 32.3577 85.6729 32.7283 85.6729 33.1519C85.6729 36.1169 83.2373 38.5525 80.2723 38.5525C77.3072 38.5525 74.8716 36.1169 74.8716 33.1519C74.8716 32.7283 74.501 32.3577 74.0774 32.3577C73.6538 32.3577 73.2832 32.7283 73.2832 33.1519C73.2832 37.017 76.4071 40.1409 80.2723 40.1409C84.1374 40.1409 87.2613 37.017 87.2613 33.1519C87.2613 32.7283 86.8907 32.3577 86.4671 32.3577Z" fill="#3A312A"/>
<path d="M98.2744 62.5908C98.0096 62.2202 97.5331 62.1143 97.1625 62.379L59.5698 88.2174C59.1992 88.4821 59.0933 88.9586 59.358 89.3293C59.5168 89.541 59.7816 89.6469 59.9934 89.6469C60.1522 89.6469 60.3111 89.594 60.4169 89.4881L98.0096 63.6497C98.4332 63.4379 98.4862 62.9614 98.2744 62.5908Z" fill="#3A312A"/>
<path d="M59.9927 81.4929C55.9158 81.4929 52.633 84.7757 52.5801 88.8526H67.3524C67.4054 84.7757 64.0697 81.4929 59.9927 81.4929Z" fill="#F16C7A"/>
<path d="M59.994 80.6987C55.4934 80.6987 51.8401 84.3521 51.7871 88.8526C51.7871 89.0644 51.893 89.2762 51.9989 89.4351C52.1577 89.5939 52.3695 89.6468 52.5813 89.6468H67.3537C67.5655 89.6468 67.7772 89.541 67.9361 89.4351C68.0949 89.2762 68.1479 89.0644 68.1479 88.8526C68.2008 84.3521 64.4945 80.6987 59.994 80.6987ZM53.4814 88.0584C53.905 84.8286 56.6583 82.2872 60.0469 82.2872C63.3826 82.2872 66.1888 84.8286 66.6124 88.0584H53.4814Z" fill="#3A312A"/>
<path d="M114.743 104.26H4.93047C2.70668 104.26 0.853516 106.061 0.853516 108.337C0.853516 110.561 2.65373 112.414 4.93047 112.414H114.691C116.914 112.414 118.767 110.614 118.767 108.337C118.767 106.061 116.967 104.26 114.743 104.26Z" fill="#F16C7A"/>
<path d="M114.741 103.466H89.8026C89.379 103.466 89.0084 103.837 89.0084 104.261C89.0084 104.684 89.379 105.055 89.8026 105.055H114.741C116.541 105.055 118.024 106.537 118.024 108.337C118.024 110.138 116.541 111.62 114.741 111.62H4.92781C3.12759 111.62 1.64506 110.138 1.64506 108.337C1.64506 106.537 3.12759 105.055 4.92781 105.055H82.0722C82.4958 105.055 82.8665 104.684 82.8665 104.261C82.8665 103.837 82.4958 103.466 82.0722 103.466H4.92781C2.22749 103.466 0.0566406 105.637 0.0566406 108.337C0.0566406 111.038 2.22749 113.209 4.92781 113.209H114.688C117.388 113.209 119.559 111.038 119.559 108.337C119.559 105.637 117.388 103.466 114.741 103.466Z" fill="#3A312A"/>
<path d="M102.987 97.3772C101.08 97.3772 99.5449 98.9127 99.5449 100.819V115.803C99.5449 117.709 101.08 119.244 102.987 119.244C104.893 119.244 106.428 117.709 106.428 115.803V100.819C106.428 98.9127 104.893 97.3772 102.987 97.3772Z" fill="#D7E057"/>
<path d="M102.988 96.583C100.658 96.583 98.752 98.4891 98.752 100.819V115.803C98.752 118.133 100.658 120.039 102.988 120.039C105.317 120.039 107.224 118.133 107.224 115.803V100.819C107.224 98.4891 105.317 96.583 102.988 96.583ZM105.635 115.803C105.635 117.285 104.47 118.45 102.988 118.45C101.505 118.45 100.34 117.285 100.34 115.803V100.819C100.34 99.3363 101.505 98.1714 102.988 98.1714C104.47 98.1714 105.635 99.3363 105.635 100.819V115.803Z" fill="#3A312A"/>
<path d="M114.109 66.5088C112.15 67.7795 109.82 68.5208 107.279 68.5208C107.067 68.5208 106.908 68.5208 106.696 68.5208C108.655 73.8685 109.873 79.5868 110.191 85.5699C110.244 86.5759 109.82 87.476 109.132 88.1114H116.068C116.703 88.1114 117.339 87.8466 117.762 87.3701C118.239 86.8936 118.451 86.2582 118.398 85.6228C118.027 78.8455 116.545 72.4389 114.109 66.5088Z" fill="#68A8BC"/>
<path d="M91.8156 39.7173C91.1272 41.0939 90.2271 42.3647 89.1152 43.4236C91.5508 45.4356 93.8276 47.7123 95.8925 50.095C96.7397 48.3477 98.0104 46.8652 99.5459 45.7003C97.1633 43.5295 94.5688 41.5175 91.8156 39.7173Z" fill="#68A8BC"/>
<path d="M114.742 105.055H108.177C109.183 105.796 109.818 106.961 109.818 108.337C109.818 109.661 109.183 110.879 108.177 111.62H114.742C116.542 111.62 118.025 110.138 118.025 108.337C117.972 106.484 116.542 105.055 114.742 105.055Z" fill="#CE4E61"/>
</svg>
