<svg width="120" height="117" viewBox="0 0 120 117" fill="none" xmlns="http://www.w3.org/2000/svg">
<path d="M108.1 96.2715H11.8996C7.67342 96.2715 4.24756 92.8456 4.24756 88.6195V8.40031C4.24756 4.17415 7.67342 0.748291 11.8996 0.748291H108.101C112.327 0.748291 115.753 4.17415 115.753 8.40031V88.6195C115.753 92.8456 112.326 96.2715 108.1 96.2715Z" fill="#CECECE"/>
<path d="M11.5691 88.6197V8.40056C11.5691 4.1744 14.9949 0.748535 19.2211 0.748535H11.8991C7.67293 0.748535 4.24707 4.1744 4.24707 8.40056V88.6197C4.24707 92.8459 7.67293 96.2718 11.8991 96.2718H19.2216C14.9949 96.2723 11.5691 92.8459 11.5691 88.6197Z" fill="#AFAFAF"/>
<path d="M108.429 88.6197V8.40056C108.429 4.1744 105.004 0.748535 100.777 0.748535H108.1C112.326 0.748535 115.752 4.1744 115.752 8.40056V88.6197C115.752 92.8459 112.326 96.2718 108.1 96.2718H100.777C105.004 96.2723 108.429 92.8459 108.429 88.6197Z" fill="#E2E2E2"/>
<path d="M115.753 8.40031C115.753 4.17415 112.327 0.748291 108.101 0.748291H11.8996C7.67342 0.748291 4.24756 4.17415 4.24756 8.40031V21.7168H115.753V8.40031Z" fill="#F8AF23"/>
<path d="M19.2211 0.748535H11.8991C7.67293 0.748535 4.24707 4.1744 4.24707 8.40056V21.7171H11.5696V8.40056C11.5691 4.1744 14.9949 0.748535 19.2211 0.748535Z" fill="#F87023"/>
<path d="M100.777 0.748535H108.1C112.326 0.748535 115.752 4.1744 115.752 8.40056V21.7171H108.429V8.40056C108.429 4.1744 105.004 0.748535 100.777 0.748535Z" fill="#F8D323"/>
<path d="M17.9069 14.7273C19.837 14.7273 21.4016 13.1627 21.4016 11.2326C21.4016 9.30245 19.837 7.73779 17.9069 7.73779C15.9768 7.73779 14.4121 9.30245 14.4121 11.2326C14.4121 13.1627 15.9768 14.7273 17.9069 14.7273Z" fill="#F46275"/>
<path d="M31.3678 14.7273C33.2979 14.7273 34.8626 13.1627 34.8626 11.2326C34.8626 9.30245 33.2979 7.73779 31.3678 7.73779C29.4377 7.73779 27.873 9.30245 27.873 11.2326C27.873 13.1627 29.4377 14.7273 31.3678 14.7273Z" fill="#F46275"/>
<path d="M44.8283 14.7273C46.7584 14.7273 48.323 13.1627 48.323 11.2326C48.323 9.30245 46.7584 7.73779 44.8283 7.73779C42.8982 7.73779 41.3335 9.30245 41.3335 11.2326C41.3335 13.1627 42.8982 14.7273 44.8283 14.7273Z" fill="#F46275"/>
<path d="M102.925 14.1243H58.7045C57.2402 14.1243 56.042 12.9261 56.042 11.4618C56.042 9.99752 57.2402 8.79932 58.7045 8.79932H102.925C104.389 8.79932 105.587 9.99752 105.587 11.4618C105.588 12.9261 104.389 14.1243 102.925 14.1243Z" fill="#F46275"/>
<path d="M93.3681 86.2457L62.5888 109.68C61.0591 110.845 58.9403 110.845 57.4111 109.68L26.6317 86.2457C25.5703 85.4374 24.9468 84.1797 24.9468 82.8453V39.6101C24.9468 37.6925 26.2239 36.01 28.0706 35.4938L58.8499 26.8957C59.6023 26.6855 60.3976 26.6855 61.1495 26.8957L91.9288 35.4938C93.7755 36.0095 95.0526 37.6925 95.0526 39.6101V82.8453C95.0526 84.1793 94.4296 85.4374 93.3681 86.2457Z" fill="#63BCE7"/>
<path d="M32.2688 82.845V39.6099C32.2688 37.6922 33.5459 36.0098 35.3926 35.4935L63.6607 27.5974L61.1495 26.8959C60.3971 26.6857 59.6018 26.6857 58.8499 26.8959L28.0706 35.4935C26.2239 36.0093 24.9468 37.6922 24.9468 39.6099V82.845C24.9468 84.1795 25.5698 85.4371 26.6317 86.2454L57.4111 109.68C58.9408 110.844 61.0596 110.844 62.5888 109.68L63.6612 108.863L33.9538 86.2454C32.8924 85.4371 32.2688 84.179 32.2688 82.845Z" fill="#6377E7"/>
<path d="M87.7313 82.845V39.6099C87.7313 37.6922 86.4542 36.0098 84.6075 35.4935L56.3394 27.5974L58.8506 26.8959C59.603 26.6857 60.3983 26.6857 61.1501 26.8959L91.9295 35.494C93.7762 36.0097 95.0533 37.6927 95.0533 39.6104V82.8455C95.0533 84.18 94.4302 85.4376 93.3683 86.2459L62.589 109.68C61.0593 110.845 58.9405 110.845 57.4113 109.68L56.3389 108.864L86.0458 86.2459C87.1077 85.4371 87.7313 84.179 87.7313 82.845Z" fill="#63E2E7"/>
<path d="M75.5062 55.8037H44.4927V87.0059H75.5062V55.8037Z" fill="#F8AF23"/>
<path d="M71.6854 54.0319C71.6854 47.5886 66.4437 42.3469 60.0004 42.3469C53.5576 42.3469 48.3154 47.5886 48.3154 54.0319V55.8032H51.8881V54.0314C51.8881 49.5511 55.5201 45.9191 60.0004 45.9191C64.4807 45.9191 68.1127 49.5511 68.1127 54.0314V55.8032H71.6854V54.0319Z" fill="#F8AF23"/>
<path d="M64.9159 60.7783H55.0851C52.847 60.7783 51.0327 62.5926 51.0327 64.8307V81.7728H68.9688V64.8307C68.9683 62.5926 67.154 60.7783 64.9159 60.7783Z" fill="#CECECE"/>
<path d="M63.133 75.6342L62.0111 71.0021C62.4605 70.5303 62.7366 69.8923 62.7366 69.1899C62.7366 67.7375 61.5593 66.5603 60.107 66.5603C58.6547 66.5603 57.4774 67.7375 57.4774 69.1899C57.4774 69.8928 57.7535 70.5308 58.2029 71.0021L57.081 75.6342C56.7815 76.8713 57.7186 78.062 58.9912 78.062H60.1065H61.2218C62.4949 78.0625 63.4325 76.8713 63.133 75.6342Z" fill="#707070"/>
<path d="M9.7369 115.282H0.748877C0.334997 115.282 0 115.617 0 116.031C0 116.445 0.334997 116.78 0.748877 116.78H9.7369C10.1508 116.78 10.4858 116.445 10.4858 116.031C10.4858 115.617 10.1508 115.282 9.7369 115.282Z" fill="#3F3679"/>
<path d="M119.252 115.282H110.264C109.85 115.282 109.515 115.617 109.515 116.031C109.515 116.445 109.85 116.78 110.264 116.78H119.252C119.665 116.78 120 116.445 120 116.031C120 115.617 119.665 115.282 119.252 115.282Z" fill="#3F3679"/>
<path d="M105.172 115.282H14.8285C14.4146 115.282 14.0796 115.617 14.0796 116.031C14.0796 116.445 14.4146 116.78 14.8285 116.78H105.172C105.586 116.78 105.921 116.445 105.921 116.031C105.921 115.617 105.586 115.282 105.172 115.282Z" fill="#3F3679"/>
<path d="M0.748877 111.302H119.251C119.665 111.302 120 110.967 120 110.553C120 110.139 119.665 109.804 119.251 109.804H63.6615L80.4518 97.021H108.1C112.732 97.021 116.501 93.2521 116.501 88.6201V21.7169V8.4009C116.501 5.50574 115.029 2.94808 112.794 1.43684C111.453 0.530205 109.837 0 108.1 0H11.8997C10.1628 0 8.54668 0.530205 7.20569 1.43684C4.97054 2.94808 3.49825 5.50574 3.49825 8.4009V21.7169V88.6196C3.49825 93.2516 7.2671 97.0205 11.8992 97.0205H39.4618C39.4878 97.0205 39.5122 97.0155 39.5377 97.013L56.338 109.804H0.748877C0.334997 109.804 0 110.139 0 110.553C0 110.967 0.334997 111.302 0.748877 111.302ZM27.0854 85.65C26.2152 84.9875 25.6955 83.9391 25.6955 82.8452V39.6101C25.6955 38.035 26.7549 36.639 28.2721 36.2152L59.0514 27.6171C59.362 27.5302 59.681 27.4873 60 27.4873C60.319 27.4873 60.6381 27.5302 60.9481 27.6171L91.7274 36.2152C93.2446 36.639 94.304 38.035 94.304 39.6101V82.8452C94.304 83.9386 93.7843 84.9875 92.9141 85.65L62.1348 109.084C60.8772 110.041 59.1218 110.041 57.8642 109.084L27.0854 85.65ZM11.8997 1.49725H108.1C108.576 1.49725 109.041 1.54568 109.49 1.63754C112.633 2.28258 115.003 5.0699 115.003 8.4004V20.9676H4.99651V8.4009C4.99651 5.07039 7.36745 2.28258 10.5102 1.63804C10.9591 1.54568 11.4239 1.49725 11.8997 1.49725ZM11.8997 95.5227C8.09286 95.5227 4.99651 92.4259 4.99651 88.6196V22.4658H115.004V88.6196C115.004 92.4264 111.907 95.5227 108.101 95.5227H82.4194L93.8223 86.8412C95.0619 85.8972 95.8023 84.4034 95.8023 82.8452V39.6101C95.8023 37.3655 94.2926 35.3764 92.1308 34.7728L61.3515 26.1747C60.4673 25.9281 59.5327 25.9281 58.649 26.1747L27.8697 34.7723C25.7079 35.3759 24.1982 37.3655 24.1982 39.6096V82.8447C24.1982 84.4029 24.9386 85.8967 26.1782 86.8407L37.5811 95.5222L11.8997 95.5227Z" fill="#3F3679"/>
<path d="M17.9067 15.4763C20.2467 15.4763 22.1504 13.5726 22.1504 11.2326C22.1504 8.89266 20.2467 6.98901 17.9067 6.98901C15.5667 6.98901 13.6631 8.89266 13.6631 11.2326C13.6631 13.5726 15.5667 15.4763 17.9067 15.4763ZM17.9067 8.48677C19.4209 8.48677 20.6526 9.71842 20.6526 11.2326C20.6526 12.7469 19.4209 13.9785 17.9067 13.9785C16.3925 13.9785 15.1608 12.7469 15.1608 11.2326C15.1608 9.71842 16.393 8.48677 17.9067 8.48677Z" fill="#3F3679"/>
<path d="M31.3681 15.4763C33.7081 15.4763 35.6118 13.5726 35.6118 11.2326C35.6118 8.89266 33.7081 6.98901 31.3681 6.98901C29.0282 6.98901 27.1245 8.89266 27.1245 11.2326C27.1245 13.5726 29.0282 15.4763 31.3681 15.4763ZM31.3681 8.48677C32.8824 8.48677 34.114 9.71842 34.114 11.2326C34.114 12.7469 32.8824 13.9785 31.3681 13.9785C29.8539 13.9785 28.6223 12.7469 28.6223 11.2326C28.6223 9.71842 29.8539 8.48677 31.3681 8.48677Z" fill="#3F3679"/>
<path d="M44.8291 15.4763C47.1691 15.4763 49.0727 13.5726 49.0727 11.2326C49.0727 8.89266 47.1691 6.98901 44.8291 6.98901C42.4891 6.98901 40.5854 8.89266 40.5854 11.2326C40.5854 13.5726 42.4891 15.4763 44.8291 15.4763ZM44.8291 8.48677C46.3433 8.48677 47.575 9.71842 47.575 11.2326C47.575 12.7469 46.3433 13.9785 44.8291 13.9785C43.3149 13.9785 42.0832 12.7469 42.0832 11.2326C42.0832 9.71842 43.3154 8.48677 44.8291 8.48677Z" fill="#3F3679"/>
<path d="M58.7053 14.8733H102.926C104.807 14.8733 106.337 13.3431 106.337 11.4619C106.337 9.58074 104.807 8.05054 102.926 8.05054H58.7053C56.8242 8.05054 55.2939 9.58074 55.2939 11.4619C55.2939 13.3431 56.8242 14.8733 58.7053 14.8733ZM58.7053 9.54779H102.926C103.981 9.54779 104.839 10.4065 104.839 11.4614C104.839 12.5163 103.98 13.3751 102.926 13.3751H58.7053C57.6499 13.3751 56.7917 12.5163 56.7917 11.4614C56.7917 10.4065 57.6499 9.54779 58.7053 9.54779Z" fill="#3F3679"/>
<path d="M76.2554 87.006V55.8038C76.2554 55.39 75.9204 55.055 75.5065 55.055H72.4336V54.032C72.4336 47.1763 66.856 41.5981 59.9998 41.5981C53.144 41.5981 47.5664 47.1758 47.5664 54.032V55.055H44.493C44.0791 55.055 43.7441 55.39 43.7441 55.8038V87.006C43.7441 87.4199 44.0791 87.7549 44.493 87.7549H75.506C75.9199 87.7549 76.2554 87.4194 76.2554 87.006ZM49.0637 54.032C49.0637 48.002 53.9693 43.0959 59.9993 43.0959C66.0297 43.0959 70.9354 48.002 70.9354 54.032V55.0545H68.8605V54.032C68.8605 49.1458 64.8854 45.1708 59.9993 45.1708C55.1131 45.1708 51.138 49.1458 51.138 54.032V55.0545H49.0632L49.0637 54.032ZM52.6363 54.032C52.6363 49.9716 55.9393 46.6685 59.9998 46.6685C64.0602 46.6685 67.3632 49.9716 67.3632 54.032V55.055H52.6363V54.032ZM74.7576 86.2572H45.2419V56.5527H74.7571L74.7576 86.2572Z" fill="#3F3679"/>
<path d="M51.0326 82.5218H68.9687C69.3825 82.5218 69.7175 82.1868 69.7175 81.7729V64.8308C69.7175 62.1833 67.5638 60.0291 64.9162 60.0291H55.0855C52.4379 60.0291 50.2842 62.1828 50.2842 64.8308V81.7729C50.2837 82.1868 50.6187 82.5218 51.0326 82.5218ZM51.7814 64.8308C51.7814 63.0091 53.2632 61.5268 55.085 61.5268H64.9157C66.7375 61.5268 68.2193 63.0091 68.2193 64.8308V81.0241H51.7809L51.7814 64.8308Z" fill="#3F3679"/>
<path d="M62.828 71.1927C63.2543 70.6151 63.4855 69.9176 63.4855 69.1902C63.4855 67.3275 61.9698 65.8118 60.1071 65.8118C58.2444 65.8118 56.7286 67.3275 56.7286 69.1902C56.7286 69.9181 56.9598 70.6151 57.3861 71.1927L56.3532 75.4578C56.156 76.2721 56.3402 77.1168 56.8579 77.7753C57.3757 78.4338 58.1535 78.8113 58.9912 78.8113H61.2219C62.0596 78.8113 62.837 78.4338 63.3552 77.7753C63.8734 77.1168 64.0571 76.2721 63.8599 75.4578L62.828 71.1927ZM62.1785 76.8492C61.9463 77.1443 61.5978 77.3135 61.2224 77.3135H58.9917C58.6163 77.3135 58.2678 77.1443 58.0357 76.8492C57.8035 76.5542 57.7211 76.1752 57.8095 75.8103L58.9313 71.1787C58.9912 70.9311 58.9213 70.6705 58.7456 70.4858C58.4111 70.1343 58.2269 69.6745 58.2269 69.1897C58.2269 68.1528 59.0701 67.309 60.1076 67.309C61.145 67.309 61.9882 68.1528 61.9882 69.1897C61.9882 69.674 61.804 70.1343 61.4695 70.4858C61.2938 70.6705 61.2239 70.9311 61.2838 71.1787L62.4056 75.8103C62.4935 76.1752 62.4111 76.5537 62.1785 76.8492Z" fill="#3F3679"/>
</svg>
