<svg width="120" height="142" viewBox="0 0 120 142" fill="none" xmlns="http://www.w3.org/2000/svg">
<path d="M73.0928 12.8413H46.9082V25.1972H73.0928V12.8413Z" fill="#CDCDC6"/>
<path d="M53.3979 12.8413H46.9082V25.1972H53.3979V12.8413Z" fill="#989898"/>
<path d="M77.4788 12.8414H42.5219C39.36 12.8414 36.7969 10.2783 36.7969 7.1164C36.7969 3.95447 39.36 1.39136 42.5219 1.39136H77.4788C80.6408 1.39136 83.2038 3.95447 83.2038 7.1164C83.2038 10.2783 80.6408 12.8414 77.4788 12.8414Z" fill="#EEAD2C"/>
<path d="M43.2866 7.1164C43.2866 3.95447 45.8497 1.39136 49.0116 1.39136H42.5219C39.36 1.39136 36.7969 3.95447 36.7969 7.1164C36.7969 10.2783 39.36 12.8414 42.5219 12.8414H49.0116C45.8497 12.8414 43.2866 10.2783 43.2866 7.1164Z" fill="#CE8D24"/>
<path d="M59.9993 139.677C92.368 139.677 118.608 113.437 118.608 81.0681C118.608 48.6995 92.368 22.4595 59.9993 22.4595C27.6306 22.4595 1.39062 48.6995 1.39062 81.0681C1.39062 113.437 27.6306 139.677 59.9993 139.677Z" fill="#68C0E0"/>
<path d="M7.88034 81.0681C7.88034 49.7885 32.385 24.2345 63.2442 22.5504C62.1698 22.4917 61.0884 22.4597 59.9993 22.4597C27.6306 22.4597 1.39062 48.6996 1.39062 81.0684C1.39062 113.437 27.6306 139.677 59.9993 139.677C61.0884 139.677 62.1698 139.645 63.2442 139.586C32.385 137.902 7.88034 112.348 7.88034 81.0681Z" fill="#3282A1"/>
<path d="M59.9987 125.798C84.7025 125.798 104.729 105.772 104.729 81.0681C104.729 56.3643 84.7025 36.3379 59.9987 36.3379C35.2949 36.3379 15.2686 56.3643 15.2686 81.0681C15.2686 105.772 35.2949 125.798 59.9987 125.798Z" fill="white"/>
<path d="M21.758 81.068C21.758 57.4555 40.0545 38.1185 63.2436 36.4559C62.1717 36.3791 61.0901 36.3379 59.9987 36.3379C35.2948 36.3379 15.2686 56.3644 15.2686 81.068C15.2686 105.772 35.2948 125.798 59.9987 125.798C61.0901 125.798 62.1717 125.757 63.2436 125.68C40.0548 124.018 21.758 104.681 21.758 81.068Z" fill="#CDCDC6"/>
<path d="M60.0004 86.7951C63.1634 86.7951 65.7274 84.231 65.7274 81.0681C65.7274 77.9051 63.1634 75.3411 60.0004 75.3411C56.8375 75.3411 54.2734 77.9051 54.2734 81.0681C54.2734 84.231 56.8375 86.7951 60.0004 86.7951Z" fill="#EEAD2C"/>
<path d="M102.426 38.642C94.5915 30.8071 84.971 25.4079 74.4835 22.82V14.2327H77.4784C81.4025 14.2327 84.5945 11.0402 84.5945 7.11638C84.5945 3.19255 81.4023 0 77.4784 0H42.5213C38.5972 0 35.4052 3.19227 35.4052 7.1161C35.4052 11.0399 38.5974 14.2325 42.5213 14.2325H45.5163V22.8198C35.0287 25.4076 25.4082 30.8071 17.5736 38.6417C6.24095 49.9743 0 65.0416 0 81.0681C0 97.0945 6.24123 112.162 17.5736 123.494C28.9063 134.827 43.9733 141.068 60 141.068C76.0267 141.068 91.0937 134.827 102.426 123.494C113.759 112.162 120 97.0945 120 81.0681C120 65.0416 113.758 49.9743 102.426 38.642ZM38.1876 7.11638C38.1876 4.72691 40.1315 2.78294 42.521 2.78294H77.4782C79.8676 2.78294 81.8116 4.72691 81.8116 7.11638C81.8116 9.50612 79.8676 11.4501 77.4782 11.4501H42.5213C40.1318 11.4501 38.1876 9.50612 38.1876 7.11638ZM48.2986 14.2327H71.7008V22.2028C67.8875 21.4532 63.9734 21.0684 59.9997 21.0684C56.0261 21.0684 52.112 21.4532 48.2986 22.2028V14.2327ZM59.9997 138.285C28.4499 138.285 2.78238 112.618 2.78238 81.0683C2.78238 49.5185 28.4499 23.851 59.9997 23.851C91.5495 23.851 117.217 49.5185 117.217 81.0683C117.217 112.618 91.5495 138.285 59.9997 138.285Z" fill="black"/>
<path d="M59.9994 34.9468C34.5678 34.9468 13.8779 55.637 13.8779 81.0683C13.8779 106.5 34.5678 127.19 59.9994 127.19C85.431 127.19 106.121 106.5 106.121 81.0685C106.121 55.6372 85.431 34.9468 59.9994 34.9468ZM59.9994 124.407C36.1022 124.407 16.6606 104.966 16.6606 81.0685C16.6606 57.1713 36.1022 37.7294 59.9994 37.7294C83.8966 37.7294 103.338 57.1711 103.338 81.0683C103.338 104.965 83.8966 124.407 59.9994 124.407Z" fill="black"/>
<path d="M59.9988 49.4942C60.7673 49.4942 61.3901 48.8714 61.3901 48.1028V42.6316C61.3901 41.863 60.7673 41.2402 59.9988 41.2402C59.2302 41.2402 58.6074 41.863 58.6074 42.6316V48.1028C58.6074 48.8711 59.2302 49.4942 59.9988 49.4942Z" fill="black"/>
<path d="M59.9988 113.069C59.2302 113.069 58.6074 113.692 58.6074 114.46V119.931C58.6074 120.7 59.2302 121.323 59.9988 121.323C60.7673 121.323 61.3901 120.7 61.3901 119.931V114.46C61.3901 113.692 60.7673 113.069 59.9988 113.069Z" fill="black"/>
<path d="M98.65 79.8901H93.1784C92.4099 79.8901 91.7871 80.5129 91.7871 81.2815C91.7871 82.05 92.4099 82.6728 93.1784 82.6728H98.65C99.4186 82.6728 100.041 82.05 100.041 81.2815C100.041 80.5129 99.4186 79.8901 98.65 79.8901Z" fill="black"/>
<path d="M26.8209 79.8901H21.3493C20.5808 79.8901 19.958 80.5129 19.958 81.2815C19.958 82.05 20.5808 82.6728 21.3493 82.6728H26.8209C27.5895 82.6728 28.2122 82.05 28.2122 81.2815C28.2122 80.5129 27.5892 79.8901 26.8209 79.8901Z" fill="black"/>
<path d="M84.4453 103.758C83.9018 103.215 83.0211 103.215 82.4777 103.758C81.9345 104.302 81.9345 105.183 82.4779 105.726L86.3469 109.595C86.6188 109.866 86.9747 110.002 87.3306 110.002C87.6865 110.002 88.043 109.866 88.3146 109.594C88.8577 109.051 88.8577 108.17 88.3143 107.627L84.4453 103.758Z" fill="black"/>
<path d="M33.6533 52.9675C33.1098 52.4246 32.2291 52.4244 31.6857 52.9678C31.1425 53.511 31.1425 54.392 31.6859 54.9354L35.555 58.8042C35.8268 59.0758 36.1827 59.2116 36.5386 59.2116C36.8945 59.2116 37.251 59.0758 37.5226 58.8039C38.0658 58.2607 38.0658 57.3797 37.5223 56.8363L33.6533 52.9675Z" fill="black"/>
<path d="M35.555 103.758L31.6859 107.627C31.1425 108.171 31.1425 109.052 31.6857 109.595C31.9575 109.867 32.3137 110.003 32.6696 110.003C33.0255 110.003 33.382 109.867 33.6533 109.595L37.5223 105.726C38.0658 105.183 38.0658 104.302 37.5226 103.759C36.9791 103.215 36.0979 103.215 35.555 103.758Z" fill="black"/>
<path d="M86.3469 52.9675L82.4779 56.8363C81.9345 57.3797 81.9345 58.2607 82.4777 58.8039C82.7495 59.0758 83.1057 59.2116 83.4616 59.2116C83.8175 59.2116 84.174 59.0758 84.4453 58.8042L88.3143 54.9354C88.8577 54.392 88.8577 53.511 88.3146 52.9678C87.7711 52.4244 86.8898 52.4246 86.3469 52.9675Z" fill="black"/>
<path d="M72.1081 67.5684L64.2866 75.3899C63.0932 74.4866 61.6083 73.9499 59.9997 73.9499C58.391 73.9499 56.9059 74.4869 55.7127 75.3899L41.3124 60.9896C40.7695 60.4462 39.888 60.4462 39.3451 60.9896C38.8016 61.5328 38.8016 62.4138 39.3451 62.957L53.8603 77.4722C53.2395 78.5282 52.8816 79.7567 52.8816 81.0679C52.8816 84.9929 56.075 88.1862 60 88.1862C63.9249 88.1862 67.1183 84.9929 67.1183 81.0679C67.1183 79.7567 66.7604 78.5282 66.1396 77.4722L74.076 69.5357C74.6195 68.9926 74.6195 68.1116 74.076 67.5684C73.5326 67.0249 72.651 67.0249 72.1081 67.5684ZM59.9994 85.4039C57.6085 85.4039 55.6637 83.459 55.6637 81.0682C55.6637 78.6773 57.6085 76.7325 59.9994 76.7325C62.3903 76.7325 64.3351 78.6773 64.3351 81.0682C64.3351 83.459 62.3903 85.4039 59.9994 85.4039Z" fill="black"/>
</svg>
