<svg width="122" height="122" viewBox="0 0 122 122" fill="none" xmlns="http://www.w3.org/2000/svg">
<path d="M54.5714 76L31 48.1428L43.8571 33.1428H56.7143L43.8571 48.1428L67.4286 76H54.5714Z" fill="#DB8E11" stroke="#212A41" stroke-linecap="round" stroke-linejoin="round"/>
<path d="M9.57143 86.7144H1V121H9.57143V86.7144Z" fill="#005B8A" stroke="#212A41" stroke-linecap="round" stroke-linejoin="round"/>
<path d="M22.4284 86.7144H9.57129V121H22.4284V86.7144Z" fill="#0079A8" stroke="#212A41" stroke-linecap="round" stroke-linejoin="round"/>
<path d="M67.4287 99.5714C67.4287 98.4348 66.9772 97.3447 66.1735 96.5409C65.3697 95.7372 64.2796 95.2857 63.143 95.2857C64.2796 95.2857 65.3697 94.8342 66.1735 94.0304C66.9772 93.2267 67.4287 92.1366 67.4287 91C67.4287 89.8633 66.9772 88.7732 66.1735 87.9695C65.3697 87.1658 64.2796 86.7143 63.143 86.7143H41.7144V82.4285C41.7144 81.2919 41.2629 80.2018 40.4592 79.3981C39.6554 78.5943 38.5654 78.1428 37.4287 78.1428H34.643C33.6695 78.1424 32.7248 78.4734 31.9644 79.0814L22.4287 86.7143V121H63.143C64.2796 121 65.3697 120.548 66.1735 119.745C66.9772 118.941 67.4287 117.851 67.4287 116.714C67.4287 115.578 66.9772 114.488 66.1735 113.684C65.3697 112.88 64.2796 112.429 63.143 112.429C64.2796 112.429 65.3697 111.977 66.1735 111.173C66.9772 110.37 67.4287 109.279 67.4287 108.143C67.4287 107.006 66.9772 105.916 66.1735 105.112C65.3697 104.309 64.2796 103.857 63.143 103.857C64.2796 103.857 65.3697 103.406 66.1735 102.602C66.9772 101.798 67.4287 100.708 67.4287 99.5714Z" fill="#E0C8A4" stroke="#212A41" stroke-linecap="round" stroke-linejoin="round"/>
<path d="M34.6424 82.4285L26.7139 88.7735V116.714" stroke="#FEE6C2" stroke-linecap="round" stroke-linejoin="round"/>
<path d="M63.1433 95.2856H50.2861" stroke="#212A41" stroke-linecap="round" stroke-linejoin="round"/>
<path d="M63.1433 103.857H50.2861" stroke="#212A41" stroke-linecap="round" stroke-linejoin="round"/>
<path d="M63.1433 112.428H50.2861" stroke="#212A41" stroke-linecap="round" stroke-linejoin="round"/>
<path d="M67.4289 76L91.0003 48.1428L78.1431 33.1428H56.7146L43.8574 48.1428L67.4289 76Z" fill="#F9AC2F" stroke="#212A41" stroke-linecap="round" stroke-linejoin="round"/>
<path d="M67.4287 69.357L85.3709 48.1428L76.1716 37.4285" stroke="#DB8E11" stroke-linecap="round" stroke-linejoin="round"/>
<path d="M45.8282 37.4285L36.6289 48.1599L54.571 69.357" stroke="#F9AC2F" stroke-linecap="round" stroke-linejoin="round"/>
<path d="M31 48.1428H91" stroke="#212A41" stroke-linecap="round" stroke-linejoin="round"/>
<path d="M67.4287 33.1428V76" stroke="#212A41" stroke-linecap="round" stroke-linejoin="round"/>
<path d="M22.4289 48.1428H13.8574" stroke="#212A41" stroke-linecap="round" stroke-linejoin="round"/>
<path d="M108.143 48.1428H99.5713" stroke="#212A41" stroke-linecap="round" stroke-linejoin="round"/>
<path d="M33.7241 20.8688L27.6641 14.8088" stroke="#212A41" stroke-linecap="round" stroke-linejoin="round"/>
<path d="M88.2754 20.8688L94.3354 14.8088" stroke="#212A41" stroke-linecap="round" stroke-linejoin="round"/>
<path d="M61 1V9.57143" stroke="#212A41" stroke-linecap="round" stroke-linejoin="round"/>
<path d="M110.286 82.4285H80.2857C77.9188 82.4285 76 84.3472 76 86.7142V116.714C76 119.081 77.9188 121 80.2857 121H110.286C112.653 121 114.571 119.081 114.571 116.714V86.7142C114.571 84.3472 112.653 82.4285 110.286 82.4285Z" fill="#A0B570" stroke="#212A41" stroke-linecap="round" stroke-linejoin="round"/>
<path d="M116.714 82.4285H86.7144C84.3475 82.4285 82.4287 84.3472 82.4287 86.7142V116.714C82.4287 119.081 84.3475 121 86.7144 121H116.714C119.081 121 121 119.081 121 116.714V86.7142C121 84.3472 119.081 82.4285 116.714 82.4285Z" fill="#BED38E" stroke="#212A41" stroke-linecap="round" stroke-linejoin="round"/>
<path d="M86.7139 86.7144V116.714" stroke="#DCF1AC" stroke-linecap="round" stroke-linejoin="round"/>
<path d="M116.714 86.7144V116.714" stroke="#A0B570" stroke-linecap="round" stroke-linejoin="round"/>
<path d="M114.592 93.3034C113.989 92.7008 113.172 92.3623 112.32 92.3623C111.467 92.3623 110.65 92.7008 110.047 93.3034L98.6899 104.661L93.3799 99.357C92.7737 98.7715 91.9617 98.4475 91.119 98.4548C90.2762 98.4621 89.47 98.8002 88.8741 99.3961C88.2781 99.9921 87.9401 100.798 87.9327 101.641C87.9254 102.484 88.2494 103.296 88.8349 103.902L96.4099 111.479C97.0127 112.082 97.8301 112.42 98.6824 112.42C99.5347 112.42 100.352 112.082 100.955 111.479L114.592 97.857C114.892 97.5584 115.129 97.2035 115.292 96.8128C115.454 96.4221 115.537 96.0032 115.537 95.5802C115.537 95.1572 115.454 94.7383 115.292 94.3476C115.129 93.9569 114.892 93.602 114.592 93.3034Z" fill="#E0E0E0" stroke="#212A41" stroke-linecap="round" stroke-linejoin="round"/>
</svg>
