<?xml version="1.0" encoding="utf-8"?>
<!-- Generator: Adobe Illustrator 16.0.0, SVG Export Plug-In . SVG Version: 6.00 Build 0)  -->
<!DOCTYPE svg PUBLIC "-//W3C//DTD SVG 1.1//EN" "http://www.w3.org/Graphics/SVG/1.1/DTD/svg11.dtd">
<svg version="1.1" id="Layer_1" xmlns="http://www.w3.org/2000/svg" xmlns:xlink="http://www.w3.org/1999/xlink" x="0px" y="0px"
	 width="1014.747px" height="1014.79px" viewBox="0 0 1014.747 1014.79" enable-background="new 0 0 1014.747 1014.79"
	 xml:space="preserve">
<g>
	<path fill-rule="evenodd" clip-rule="evenodd" fill="#E12026" d="M-1403.972-301.019c-6.24-7.693-5.891-13.607,1.221-20.719
		c7.659-7.66,15.259-15.38,23.016-22.939c2.139-2.083,2.433-3.632,0.039-5.607c-1.535-1.268-2.852-2.799-4.265-4.215
		c-5.496-5.508-5.295-8.263,0.986-13.512c3.073-2.26,5.739-4.926,7.999-8c5.419-6.641,8.617-6.863,14.488-1.01
		c6.519,6.5,6.519,6.5,13.025-0.006c19.999-19.998,39.948-40.049,60.061-59.933c2.493-2.464,2.809-3.968-0.046-6.064
		c-1.325-0.974-2.378-2.319-3.555-3.495c-5.927-5.927-5.711-8.99,1.017-14.48c2.727-2.322,5.981-4.182,6.999-8
		c8.51-6.667,9.821-6.243,21.539,5.958c6.438-6.438,13.19-12.599,19.212-19.406c4.52-5.109,9.486-7.68,16.242-6.55
		c7.832,1.645,14.253,6.248,20.231,10.986c10.958,8.685,21.078,18.381,28.608,30.381c2.894,4.612,6.199,9.053,7.153,14.625
		c1.156,6.809-1.797,11.526-6.611,16.313c-53.938,53.617-107.657,107.455-161.435,161.232c-5.842,5.842-12.266,6.326-18.931,1.432
		c-7.496-8.627-15.918-16.35-23.986-24.416C-1388.561-286.038-1395.804-294.003-1403.972-301.019z"/>
	<path fill-rule="evenodd" clip-rule="evenodd" fill="#1589CA" d="M-1509.958-93.046c-0.021,11.4,0.027,22.6-4.739,33.568
		c-5.926,13.639-15.214,23.736-27.592,31.449c-9.602,5.982-20.288,8.854-31.318,8.811c-24.107-0.096-43.141-10.365-56.339-30.785
		c-5.166-7.992-7.645-16.826-9.147-26.275c-4.336-27.275,12.201-54.369,34.522-65.775c8.363-4.273,17.129-7.031,26.63-6.988
		c3.997,0.018,7.994,0.004,11.99,0.004c4.292,1.975,9.07,2.027,13.516,3.705c22.379,8.443,35.411,24.854,41.494,47.443
		C-1510.513-96.294-1511.937-94.325-1509.958-93.046z"/>
	<path fill-rule="evenodd" clip-rule="evenodd" fill="#1589CA" d="M-1403.972-301.019c13.551,13.383,27.115,26.756,40.641,40.166
		c2.206,2.188,4.24,4.547,6.354,6.826c-2.49-0.307-3.339,1.908-4.649,3.215c-41.914,41.836-83.78,83.719-125.667,125.582
		c-1.143,1.143-2.441,2.129-3.667,3.188c-10.213-20.449-25.544-35.781-45.994-45.994c0.756-0.59,1.585-1.105,2.258-1.779
		c42.994-42.971,85.976-85.953,128.947-128.945C-1405.078-299.435-1404.561-300.263-1403.972-301.019z"/>
	<path fill-rule="evenodd" clip-rule="evenodd" fill="#1589CA" d="M-1170.001-433.003c-2.804-10.291-9.087-18.599-15.973-26.294
		c-9.063-10.129-18.936-19.497-30.999-26.157c-2.846-1.572-5.771-2.982-9.021-3.542c6.474-6.64,12.976-13.251,19.408-19.93
		c3.385-3.515,7.12-1.708,10.519-0.514c7.782,2.733,14.685,7.27,20.701,12.75c10.007,9.117,19.61,18.716,24.825,31.659
		c3.02,7.497,3.9,9.008-2.393,15.405C-1158.501-443.964-1164.303-438.534-1170.001-433.003z"/>
	<path fill-rule="evenodd" clip-rule="evenodd" fill="#E12026" d="M-1536.955-168.036c20.45,10.213,35.781,25.545,45.994,45.994
		c2.726,7.08-0.504,11.902-5.731,16.342c-4.651,3.949-8.861,8.416-13.267,12.654c-1.33-4.855-2.151-9.924-4.075-14.531
		c-8.384-20.074-22.664-33.703-43.996-39.59c-2.634-0.727-5.657,0.23-7.922-1.871c5.887-6.053,11.729-12.15,17.679-18.141
		C-1544.821-170.653-1540.782-168.407-1536.955-168.036z"/>
	<path fill-rule="evenodd" clip-rule="evenodd" fill="#1589CA" d="M-1282.987-468.999c-1.018,3.818-4.271,5.679-6.999,8
		c-2.965-3.215-6.49-4.773-10.891-3.598c-6.72,1.795-12.777,0.215-17.581-4.528c-5.014-4.952-7.535-10.667-5.735-18.391
		c2.653-11.387,11.18-15.245,18.341-15.285c10.638-0.061,15.805,4.77,19.514,14.348c1.145,2.957,0.667,6.892-0.085,10.145
		C-1287.385-474.142-1286.563-471.211-1282.987-468.999z"/>
	<path fill-rule="evenodd" clip-rule="evenodd" fill="#1589CA" d="M-1374.976-376.011c-2.259,3.074-4.926,5.74-7.999,8
		c-0.928-3.363-3.496-3.807-6.512-4.063c-5.718-0.486-11.494,1.29-17.185-1.754c-8.406-4.496-11.325-11.398-10.21-20.256
		c0.995-7.903,6.065-13.434,13.322-15.428c5.869-1.612,12.559-1.658,17.743,3.188c5.451,5.096,9.154,10.668,7.081,18.888
		C-1379.765-383.355-1379.87-378.606-1374.976-376.011z"/>
</g>
<rect x="-2440.682" y="507.339" fill-rule="evenodd" clip-rule="evenodd" fill="#1589CA" width="88" height="98"/>
<rect x="-2312.682" y="507.339" fill-rule="evenodd" clip-rule="evenodd" fill="#E12026" width="88" height="98"/>
<g>
	<path fill-rule="evenodd" clip-rule="evenodd" fill="#1589CA" d="M-1539.845-842.884c29.478-10.403,48.891-29.453,60.273-58.234
		c2.014,2.452,3.312,4.291,4.898,5.873c50.298,50.348,100.646,100.625,150.879,151.033c2.491,2.491,4.854,3.6,8.389,3.555
		c15.908-0.194,31.814,0,47.722-0.154c3.098-0.021,4.525,0.218,4.485,4.033c-0.219,21.824-0.219,43.649,0,65.449
		c0.04,3.75-1.278,4.073-4.446,4.073c-61.178-0.085-122.335-0.085-183.519,0.025c-4.202,0-5.635-1.149-5.59-5.465
		c0.194-20.8,0.214-41.605,0-62.391c-0.045-4.615,1.452-6.092,5.938-5.724c4.4,0.348,8.822,0.069,13.113,0.069
		C-1471.531-774.576-1505.449-808.488-1539.845-842.884z"/>
	<path fill="#E12026" d="M-1493.595-976.036c-4.684-24.146-16.579-44.54-36.842-59.363c-15.39-11.267-32.596-17.747-51.71-18.592
		c-19.637-0.845-37.951,3.943-54.529,14.649c-17.554,11.333-30.338,26.593-37.901,46.271c-2.8,7.26-3.904,14.868-6.047,22.257
		c0,7.345,0,14.694,0,22.019c3.033,2.904,1.298,6.892,2.188,10.338c7.15,27.737,23.252,48.329,48.264,61.81
		c17.469,9.403,36.126,12.958,56.131,10.035c11.527-1.671,22.516-5.008,32.421-10.467c18.161-10.035,31.88-24.664,40.612-43.844
		C-1492.943-938.612-1489.955-957.184-1493.595-976.036z M-1586.677-888.831c-41.87,0.87-71.755-33.744-71.626-71.103
		c0.13-39.165,30.383-67.469,63.908-70.935c47.941-4.942,82.227,35.112,79.125,76.524
		C-1517.717-921.337-1546.324-887.812-1586.677-888.831z"/>
	<path fill="#1589CA" d="M-1590.297-999.163c-16.295,1.064-36.886,18.27-35.235,38.816c-2.367,20.522,18.309,41.393,41.501,39.94
		c17.922-1.124,38.314-17.902,36.947-42.218C-1548.015-978.771-1563.162-1000.938-1590.297-999.163z"/>
	<path fill="#E12026" d="M-1056.577-1060.863c-4.356-4.44-10.079-4.292-15.062,0.586c-20.482,20.025-40.92,40.07-61.357,60.139
		c-6.39,6.286-12.805,12.571-18.985,19.07c-2.511,2.625-4.525,3.511-8.08,1.586c-16.644-9.105-33.267-18.294-50.303-26.639
		c-6.977-3.445-9.9-8.408-11.422-15.495c-4.092-19.095-8.603-38.1-12.979-57.125c-0.542-2.361-0.806-4.4,0.91-6.678
		c12.675-16.966,25.227-34.067,37.772-51.168c1.825-2.471,2.993-3.53,6.892-2.208c36.042,12.223,72.257,23.923,108.428,35.778
		c5.743,1.889,11.964-0.368,13.371-4.789c1.8-5.679-1.432-11.571-7.543-13.61c-38.791-12.894-77.583-25.813-116.419-38.642
		c-4.858-1.602-9.776-2.163-13.396,2.799c-10.532,14.431-20.999,28.912-31.661,43.277c-2.734,3.685-4.555,9.06-9.667,9.731
		c-8.041,1.04-15.628,4.117-23.665,4.898c-4.097,0.412-5.51,2.968-4.53,6.35c0.995,3.317,1.104,7.15,2.641,9.905
		c2.625,4.679-0.478,5.137-3.208,5.763c-1.46,0.342-2.922,0.672-4.383,1.01l19.052,80.441c1.706-0.4,3.413-0.796,5.118-1.198
		c2.994-0.696,3.535,0.194,3.988,2.337c0.87,4.143,1.582,8.304,2.426,12.442c0.502,2.491,1.239,3.923,4.575,3.033
		c8.15-2.144,16.514-3.421,24.665-5.634c3.987-1.104,7.324-0.975,10.944,0.975c15.688,8.473,31.447,16.842,47.246,25.141
		c7.389,3.879,10.293,3.272,16.339-2.561c17.663-17.056,34.331-35.126,52.6-51.601c11.939-10.771,22.904-22.646,34.262-34.067
		C-1052.872-1052.171-1052.459-1056.656-1056.577-1060.863z"/>
	<path fill="#1589CA" d="M-1323.557-1066.259c-17.339,4.008-34.589,8.409-51.969,12.203c-14.196,3.119-28.368,6.391-42.521,9.751
		c-23.669,5.57-47.463,10.642-71.217,15.887c-2.602,0.562-3.074,1.994-1.691,3.944c8.543,11.765,14.435,24.729,16.559,39.14
		c1.039,7.001,2.904,14.087,1.606,21.193c-1.064,5.788-1.78,11.551-2.561,19.005c2.561-3.356,4.793-1.904,6.653-2.402
		c21.089-5.704,42.501-9.905,63.74-14.848c24.813-5.743,49.651-11.288,74.445-17.121c23.431-5.493,46.904-10.878,70.341-16.375
		l-19.052-80.441C-1293.984-1072.91-1308.788-1069.67-1323.557-1066.259z"/>
</g>
<path fill-rule="evenodd" clip-rule="evenodd" fill="#1589CA" d="M0.178,885.848c0-214.645,0-429.293,0-643.938
	c3.223-4.728,3.734-10.606,6.679-15.542c10.902-18.081,28.044-24.387,47.817-26.049c1.301-0.102,2.637,0,3.945,0
	c261.822,0,523.614-0.036,785.436,0.018c21.694,0.015,39.896,7.041,51.719,26.664c3.807,6.342,5.86,13.01,5.86,20.24
	c0.036,210.977,0.073,421.938,0,632.9c-0.03,22.451-23.303,45.31-45.888,45.31c-269.092,0.037-538.155,0.019-807.211,0
	c-18.954,0-37.426-13.382-44.484-31.31C2.955,891.383,3.539,887.594,0.178,885.848z"/>
<path fill-rule="evenodd" clip-rule="evenodd" fill="#FFFFFF" d="M0.178,885.848c4.144,6.273,5.926,13.66,10.588,19.915
	c9.594,12.802,22.214,19.535,37.535,19.553c182.206,0.238,364.441,0.154,546.646,0.154c86.851,0,173.635,0.135,260.484-0.103
	c22.381-0.051,46.1-20.444,46.136-45.913c0.168-210.275,0-420.568,0.271-630.843c0-21.764-22.826-44.985-43.082-46.801
	c-16.002-1.439-31.836-1.388-47.742-1.388c-251.578-0.154-503.119-0.19-754.66,0.018c-22.965,0.015-41.27,9.44-52.405,30.762
	c-1.855,3.529,0.233,8.173-3.771,10.708c0-78.199,0.03-156.394-0.139-234.611C0.039,1.885,0.521,0,6.93,0
	c333.59,0.223,667.225,0.223,1000.822,0.019c6.131,0,7.059,1.523,6.992,7.197c-0.277,36.622-0.139,73.245-0.139,109.885
	c-6.787-11.399-13.299-22.896-27.627-26.754c-3.325-0.888-6.445-0.942-9.66-0.942c-276.706-0.051-553.404-0.051-830.103-0.051
	c-23.653,0-35.132,14.362-37.872,30.368c-3.844,22.436,6.576,37.017,25.771,44.027c3.631,1.301,7.168,0.855,10.727,0.855
	c259.534,0.051,519.063,0.037,778.589,0.07c14.563,0,12.854-2.192,12.89,13.35c0.029,172.027,0.029,344.05-0.072,516.077
	c-0.037,7.351,1.029,14.464,3.222,21.249c4.903,15.286,15.907,23.941,31.771,25.793c20.43,2.396,30.748-9.393,39.626-21.99
	c1.709-2.434-1.272-6.27,2.739-7.658c0,98.728-0.066,197.473,0.139,296.201c0.03,5.911-1.169,7.095-7.059,7.095
	c-333.531-0.19-667.057-0.19-1000.588,0c-5.896,0-7.161-1.184-7.095-7.095C0.31,967.079,0.178,926.463,0.178,885.848z"/>
<path fill-rule="evenodd" clip-rule="evenodd" fill="#E12026" d="M1014.605,711.494c-5.21,13.693-13.503,25.209-28.139,28.687
	c-21.388,5.071-41.956-5.107-47.334-30.042c-2.295-10.675-1.746-21.267-1.746-31.909c-0.066-168.048-0.103-336.097,0.102-504.148
	c0-7.179-1.161-9.649-9.221-9.649c-261.479,0.259-522.964,0.208-784.449,0.223c-17.406,0-32.283-13.726-34.752-31.087
	c-3.596-25.344,14.533-44.47,39.896-44.437c273.03,0.362,546.068,0.482,819.099-0.223c23.068-0.051,36.914,9.05,46.545,28.194
	C1014.605,315.225,1014.605,513.352,1014.605,711.494z"/>
<path fill-rule="evenodd" clip-rule="evenodd" fill="#FFFFFF" d="M800.63,760.402c-12.722-15.045-24.34-28.621-35.681-42.38
	c-14.262-17.208-28.314-34.565-42.365-51.894c-11.069-13.605-22.314-27.058-32.969-40.959c-7.511-9.732-16.214-12.063-26.393-4.709
	c-30.367,21.968-60.464,44.316-90.693,66.493c-12.166,8.925-24.508,17.632-36.534,26.802c-3.464,2.656-5.692,2.192-8.228-0.719
	c-0.446-0.497-0.957-0.943-1.403-1.407c-28-27.317-56.044-54.598-83.942-81.984c-37.396-36.622-74.377-73.625-112.212-109.783
	c-10.112-9.682-20.43-19.229-30.543-28.928c-6.13-5.878-14.841-4.472-20.05,2.861c-16.967,24.043-33.722,48.207-50.381,72.474
	c-29.82,43.429-60.735,86.083-91.104,129.165c-11.654,16.557-22.966,33.352-34.379,49.939c-4.348-1.56-2.434-4.746-2.434-6.956
	c-0.139-142.328-0.028-284.652-0.277-426.98c-0.029-7.146,1.922-8.257,8.571-8.257c227.516,0.187,455.031,0.223,682.547-0.087
	c8.161-0.018,8.571,2.744,8.571,9.287c-0.14,144.965-0.103,289.932-0.103,434.897C800.63,750.907,800.63,754.524,800.63,760.402z"/>
<path fill-rule="evenodd" clip-rule="evenodd" fill="#E12026" d="M495.478,493.488c1.718-48.036,36.439-82.703,83.219-82.517
	c49.769,0.205,82.568,36.984,82.364,82.638c-0.205,47.214-33.619,82.466-83.46,82.568
	C532.465,576.243,496.684,541.388,495.478,493.488z"/>
</svg>
