<?xml version="1.0" encoding="utf-8"?>
<!-- Generator: Adobe Illustrator 16.0.0, SVG Export Plug-In . SVG Version: 6.00 Build 0)  -->
<!DOCTYPE svg PUBLIC "-//W3C//DTD SVG 1.1//EN" "http://www.w3.org/Graphics/SVG/1.1/DTD/svg11.dtd">
<svg version="1.1" id="Layer_1" xmlns="http://www.w3.org/2000/svg" xmlns:xlink="http://www.w3.org/1999/xlink" x="0px" y="0px"
	 width="126.598px" height="126.593px" viewBox="0 0 126.598 126.593" enable-background="new 0 0 126.598 126.593"
	 xml:space="preserve">
<g>
	<g>
		<g>
			<path fill="#E12026" d="M36.463,90.13c-14.613-14.612-14.613-38.304,0-52.917L17.89,18.639c-1.634,1.634-3.153,3.337-4.572,5.095
				l6.305,9.831c-1.71,2.453-3.196,5.013-4.441,7.661l-11.65-0.544C1.875,44.97,0.695,49.398,0,53.889l10.373,5.36
				c-0.246,2.943-0.246,5.901,0,8.844L0,73.453c0.694,4.492,1.875,8.92,3.532,13.207l11.65-0.543
				c1.245,2.647,2.731,5.208,4.441,7.66l-6.305,9.832c1.418,1.758,2.938,3.461,4.571,5.094c1.633,1.634,3.337,3.153,5.095,4.572
				l9.831-6.305c2.453,1.709,5.013,3.195,7.661,4.44l-0.544,11.65c4.288,1.657,8.716,2.837,13.207,3.531l5.36-10.373
				c2.943,0.247,5.901,0.246,8.845,0l5.36,10.373c4.491-0.694,8.919-1.874,13.207-3.531l-0.544-11.65
				c2.647-1.245,5.208-2.731,7.661-4.44l9.831,6.305c1.758-1.419,3.461-2.938,5.095-4.572L89.38,90.13
				C74.768,104.742,51.076,104.742,36.463,90.13z"/>
		</g>
		<g>
			<path fill="#1589CA" d="M50.175,76.418c-7.04-7.039-7.04-18.453,0-25.493l-8.948-8.948c-0.787,0.787-1.519,1.607-2.203,2.454
				l3.038,4.736c-0.824,1.182-1.54,2.415-2.14,3.691l-5.612-0.262c-0.798,2.066-1.367,4.199-1.702,6.363l4.998,2.582
				c-0.119,1.418-0.119,2.844,0,4.262l-4.998,2.582c0.335,2.163,0.903,4.297,1.702,6.362l5.612-0.263
				c0.6,1.275,1.316,2.51,2.14,3.691l-3.038,4.736c0.684,0.847,1.416,1.667,2.203,2.454c0.787,0.786,1.607,1.519,2.454,2.202
				l4.736-3.037c1.182,0.823,2.415,1.539,3.691,2.139l-0.262,5.613c2.066,0.799,4.199,1.367,6.363,1.701l2.582-4.997
				c1.418,0.118,2.843,0.118,4.261,0l2.582,4.997c2.164-0.334,4.297-0.902,6.363-1.701l-0.263-5.613
				c1.276-0.6,2.51-1.315,3.691-2.139l4.736,3.037c0.847-0.684,1.667-1.416,2.454-2.202l-8.948-8.948
				C68.628,83.457,57.215,83.457,50.175,76.418z"/>
		</g>
		<g>
			<path fill="#1589CA" d="M45.936,12.456c0,0-0.255,0.68-0.64,1.698c18.512-6.575,39.971-2.46,54.787,12.356
				c18.723,18.723,20.356,48.054,4.918,68.638l7.933,7.934c19.745-24.996,18.096-61.367-4.979-84.443
				C89.767,0.453,63.322-4.417,40.693,3.995l2.034,1.135L45.936,12.456z"/>
			<path fill="#1589CA" d="M41.654,15.055l-9.058,4.687c3.194,2.463,7.635,3.035,11.454,1.059c5.254-2.718,7.31-9.181,4.591-14.436
				c-2.718-5.254-9.181-7.31-14.436-4.591c-3.818,1.976-5.917,5.931-5.752,9.961l9.058-4.687l4.756,2.614L41.654,15.055z"/>
		</g>
		<g>
			<path fill="#E12026" d="M50.436,40.584c9.951-5.386,22.642-3.888,31.052,4.522c5.328,5.328,7.861,12.375,7.652,19.356
				l4.085-2.336l5.506,0.662l1.587,1.59c0.185-9.809-3.456-19.676-10.94-27.161c-12.795-12.795-32.552-14.384-47.077-4.769
				L50.436,40.584z"/>
			<path fill="#E12026" d="M101.978,61.886c-4.045-4.304-10.813-4.513-15.116-0.468s-4.513,10.813-0.467,15.117
				c4.045,4.303,10.813,4.512,15.116,0.467C105.813,72.957,106.023,66.189,101.978,61.886z M93.592,74.826l-4.566-3.322l0.595-5.616
				l5.16-2.293l4.566,3.322l-0.595,5.616L93.592,74.826z"/>
		</g>
	</g>
</g>
</svg>
