<svg width="36" height="32" viewBox="0 0 36 32" fill="none" xmlns="http://www.w3.org/2000/svg">
<path d="M1.5 14.286C1.10218 14.286 0.720645 14.446 0.43934 14.7307C0.158036 15.0154 0 15.4016 0 15.8042C0 16.2069 0.158036 16.593 0.43934 16.8778C0.720645 17.1625 1.10218 17.3224 1.5 17.3224H30.591L18.498 28.3385C18.3479 28.4707 18.2253 28.6318 18.1374 28.8123C18.0494 28.9929 17.9978 29.1894 17.9855 29.3904C17.9733 29.5914 18.0007 29.7928 18.0661 29.983C18.1315 30.1731 18.2337 30.3482 18.3666 30.498C18.4995 30.6479 18.6605 30.7694 18.8403 30.8557C19.02 30.9419 19.215 30.9911 19.4137 31.0003C19.6124 31.0096 19.811 30.9788 19.9978 30.9096C20.1847 30.8405 20.356 30.7344 20.502 30.5976L35.502 16.9338C35.6586 16.7914 35.7839 16.6172 35.8697 16.4226C35.9554 16.228 35.9997 16.0173 35.9997 15.8042C35.9997 15.5911 35.9554 15.3804 35.8697 15.1858C35.7839 14.9912 35.6586 14.8171 35.502 14.6747L20.502 1.01087C20.2049 0.749214 19.8181 0.616289 19.4251 0.640795C19.032 0.665298 18.6642 0.845266 18.4012 1.14184C18.1381 1.43842 18.0008 1.82782 18.0189 2.22598C18.037 2.62413 18.2091 2.99911 18.498 3.26995L30.591 14.286H1.5Z" fill="#0A6495" fill-opacity="0.5"/>
</svg>
