<svg width="51" height="43" viewBox="0 0 51 43" fill="none" xmlns="http://www.w3.org/2000/svg">
<path d="M13.9143 15.6259C11.6124 15.2539 8.98156 15.6259 7.00847 16.7421C9.31041 10.7894 13.9143 6.69683 19.5047 5.20864L18.1893 0C-0.883908 5.20864 -0.226211 28.6476 0.102638 29.0196C-0.226211 36.0885 4.70652 42.0412 10.9547 42.4133C17.2028 42.7853 22.7932 37.5767 23.4509 30.5078C24.4375 23.4389 20.1624 17.1141 13.9143 15.6259Z" fill="#ffffff"/>
<path d="M34.1619 16.7421C36.4639 15.6259 38.7658 15.2539 41.3966 15.6259C47.3159 17.1141 51.5909 23.4389 50.9332 30.5078C50.2755 37.5767 44.6851 42.7853 38.437 42.4133C32.1888 42.0412 27.2561 36.0885 27.2561 29.0196C27.2561 28.6476 26.5984 5.20864 45.6716 0L46.6582 5.20864C41.0678 6.69683 36.4639 10.7894 34.1619 16.7421Z" fill="#ffffff"/>
</svg>
