<svg width="28" height="24" viewBox="0 0 28 24" fill="none" xmlns="http://www.w3.org/2000/svg">
<path d="M1.154 10.4998C0.847938 10.4998 0.554414 10.6228 0.337998 10.8419C0.121582 11.0609 0 11.358 0 11.6678C0 11.9775 0.121582 12.2746 0.337998 12.4937C0.554414 12.7127 0.847938 12.8358 1.154 12.8358H23.5346L14.2311 21.3108C14.1156 21.4125 14.0213 21.5364 13.9536 21.6753C13.886 21.8143 13.8463 21.9654 13.8368 22.1201C13.8274 22.2747 13.8485 22.4296 13.8988 22.5759C13.9492 22.7222 14.0277 22.8569 14.13 22.9722C14.2322 23.0874 14.3561 23.181 14.4944 23.2473C14.6327 23.3137 14.7827 23.3515 14.9356 23.3586C15.0884 23.3658 15.2412 23.342 15.3849 23.2888C15.5287 23.2356 15.6605 23.154 15.7728 23.0488L27.3128 12.5368C27.4333 12.4272 27.5297 12.2932 27.5956 12.1435C27.6616 11.9938 27.6957 11.8317 27.6957 11.6678C27.6957 11.5038 27.6616 11.3417 27.5956 11.192C27.5297 11.0423 27.4333 10.9083 27.3128 10.7988L15.7728 0.286787C15.5443 0.0854874 15.2467 -0.016777 14.9443 0.0020752C14.6419 0.0209274 14.359 0.159382 14.1566 0.387548C13.9542 0.615715 13.8485 0.915293 13.8625 1.22161C13.8764 1.52792 14.0088 1.8164 14.2311 2.02477L23.5346 10.4998H1.154Z" fill="white" fill-opacity="0.8"/>
</svg>
