<svg width="300" height="266" viewBox="0 0 300 266" fill="none" xmlns="http://www.w3.org/2000/svg">
<g clip-path="url(#clip0_23_78)">
<path fill-rule="evenodd" clip-rule="evenodd" d="M32.3729 78.54C7.17763 65.7227 10.0829 51.4648 35.3759 52.9541L41.0399 63.4766L52.7343 27.2461C57.3241 12.9639 64.9657 0 79.9315 0H229.297C244.263 0 252.905 12.7197 256.518 27.2461L265.283 62.4512L270.337 52.9541C296.362 51.4404 298.682 66.5527 271.142 79.6143L275.61 86.4746C291.797 103.101 292.163 119.702 290.039 155.835C287.306 154.192 284.459 152.748 281.518 151.514C246.289 136.865 226.196 151.88 207.129 166.162C200.928 170.801 194.922 175.244 191.772 175.22L108.252 175.781C106.982 175.781 105.81 175.781 105.151 175.586L104.736 175.439H104.37C103.21 174.993 102.111 174.402 101.099 173.682C98.8036 172.192 95.3612 169.556 90.6737 165.869C75.3905 153.833 57.5682 147.656 39.8681 148.633C29.5429 149.174 19.4973 152.179 10.5712 157.397C7.8368 124.512 6.05458 95.5811 32.3729 78.54ZM78.7596 120.361L46.3866 116.284C38.7694 115.454 36.621 118.726 39.3309 125.22L42.7977 133.691C43.7822 135.687 45.2934 137.375 47.1679 138.574C49.3931 139.868 51.9179 140.558 54.4921 140.576L83.2518 140.796C90.2098 140.796 93.2128 137.988 91.0399 131.616C90.2724 128.783 88.7188 126.225 86.5587 124.238C84.3985 122.25 81.7201 120.915 78.8329 120.386L78.7596 120.361ZM221.289 120.361L253.54 116.284C261.157 115.454 263.306 118.726 260.62 125.22L257.129 133.691C256.144 135.687 254.633 137.375 252.759 138.574C250.536 139.874 248.009 140.564 245.434 140.576L216.675 140.796C209.717 140.796 206.714 137.988 208.887 131.616C209.659 128.786 211.215 126.231 213.374 124.244C215.533 122.258 218.209 120.92 221.094 120.386L221.289 120.361ZM53.1737 71.5332H252.368L243.579 34.9121C241.138 23.7793 234.253 14.1357 222.827 14.1357H84.8876C73.4862 14.1357 67.6268 24.0479 64.1356 34.9121L53.1493 71.5332H53.1737Z" fill="#E21D23"/>
<path fill-rule="evenodd" clip-rule="evenodd" d="M27.5391 262.012C15.1855 256.885 5.27344 245.654 0 231.665C49.0479 255.713 68.8232 191.553 9.98535 187.72C28.6133 166.601 55.1025 167.602 76.0742 184.106C85.9619 191.894 91.5527 195.85 97.3389 197.656C100.716 198.649 104.22 199.142 107.739 199.121L191.577 198.535C218.945 198.926 234.033 157.324 272.461 173.34C284.814 178.467 294.702 189.722 300 203.686C250.952 179.639 231.152 243.823 290.015 247.632C271.387 268.75 244.897 267.773 223.926 251.245C214.746 243.921 209.082 235.596 190.552 235.547L109.302 236.597C105.297 236.534 101.308 237.111 97.4854 238.306C93.921 239.687 90.5551 241.534 87.4756 243.799C67.7246 257.275 53.2959 272.9 27.5391 262.158V262.012Z" fill="#0E89CC"/>
</g>
<defs>
<clipPath id="clip0_23_78">
<rect width="300" height="265.576" fill="white"/>
</clipPath>
</defs>
</svg>
