<?xml version="1.0" encoding="utf-8"?>
<!-- Generator: Adobe Illustrator 16.0.0, SVG Export Plug-In . SVG Version: 6.00 Build 0)  -->
<!DOCTYPE svg PUBLIC "-//W3C//DTD SVG 1.1//EN" "http://www.w3.org/Graphics/SVG/1.1/DTD/svg11.dtd">
<svg version="1.1" id="Layer_1" xmlns="http://www.w3.org/2000/svg" xmlns:xlink="http://www.w3.org/1999/xlink" x="0px" y="0px"
	 width="692.796px" height="879.916px" viewBox="0 0 692.796 879.916" enable-background="new 0 0 692.796 879.916"
	 xml:space="preserve">
<path fill-rule="evenodd" clip-rule="evenodd" fill="#0E89CC" d="M346.323,815.898c105.62,0.003,211.24,0.001,316.86,0.011
	c2.652,0,5.287-0.113,7.905,0.761c7.339,2.448,11.991,9.375,11.173,16.915c-0.814,7.5-6.905,13.526-14.469,14.229
	c-1.652,0.154-3.329,0.079-4.994,0.079c-211.24,0.001-422.481-0.073-633.721,0.164c-14.098,0.016-21.27-11.854-17.797-21.246
	c2.575-6.965,8.258-10.896,16.682-10.901c36.151-0.02,72.302-0.013,108.452-0.014C206.385,815.894,276.354,815.895,346.323,815.898z
	"/>
<path fill-rule="evenodd" clip-rule="evenodd" fill="#0E89CC" d="M346.141,879.889c-105.127,0.002-210.254,0.002-315.382,0.002
	c-0.666,0-1.333,0.004-1.999,0.001c-6.614-0.029-10.41-3.013-10.331-8.117c0.079-5.08,3.81-7.883,10.562-7.883
	c127.286-0.003,254.571-0.001,381.857,0c83.968,0,167.937,0.002,251.905,0.005c1.499,0,3.036-0.184,4.49,0.079
	c4.288,0.771,6.812,3.383,7.054,7.787c0.227,4.118-2.982,7.582-7.279,8.078c-1.152,0.133-2.33,0.046-3.496,0.046
	C557.728,879.888,451.934,879.888,346.141,879.889z"/>
<path fill-rule="evenodd" clip-rule="evenodd" fill="#0E89CC" d="M330.384,246.41c-7.02,7.077-13.153,13.32-19.353,19.495
	c-7.605,7.575-17.087,8.097-23.87,1.389c-6.776-6.702-6.321-16.311,1.176-23.868c15.481-15.608,30.958-31.22,46.481-46.785
	c6.559-6.576,16.521-6.587,23.128,0.024c15.774,15.784,31.514,31.604,47.189,47.486c6.904,6.996,6.998,16.692,0.449,23.157
	c-6.563,6.479-16.1,6.234-23.159-0.713c-6.472-6.369-12.839-12.844-20.05-20.071c0,6.368,0,11.624,0,16.88
	c0,13.323,0.063,26.649-0.021,39.973c-0.06,9.402-6.854,16.462-15.73,16.582c-9.109,0.123-16.169-6.972-16.219-16.595
	c-0.089-16.988-0.022-33.978-0.021-50.966C330.384,250.81,330.384,249.221,330.384,246.41z"/>
<path fill="none" d="M616.102,623.585c-26.313-27.425-57.608-48.154-90.545-66.583c-28.434-15.908-58.008-29.464-88.088-41.926
	c-7.27-3.013-11.061-8.197-11.095-16.079c-0.02-4.665-0.308-9.354,0.08-13.986c0.344-4.092-0.785-5.198-5.038-5.183
	c-47.814,0.176-95.629,0.111-143.444,0.11c-11.633,0-11.471,0.002-11.679,11.441c-0.066,3.643,0.718,4.695,4.556,4.663
	c24.155-0.206,48.313-0.109,72.47-0.096c1.66,0.001,3.376-0.106,4.969,0.26c3.906,0.899,6.495,4.754,6.039,8.618
	c-0.501,4.253-3.831,7.076-8.794,7.086c-23.99,0.051-47.981,0.118-71.971-0.03c-7.181-0.045-13.722,0.993-20.56,3.94
	c-38.784,16.718-76.968,34.549-112.714,57.191c-26.114,16.542-50.52,35.207-70.998,58.608
	C35.877,669.803,24.336,713.331,36.865,762.9c1.009,3.991,2.47,5.112,6.589,5.106c100.793-0.138,201.587-0.107,302.38-0.105
	c40.483,0.001,80.968,0.001,121.452,0.001c60.81,0.001,121.619,0.004,182.429-0.009c2.354,0,4.732,0.759,5.665-2.976
	c5.686-22.757,7.499-45.601,2.343-68.696C651.357,667.714,635.989,644.312,616.102,623.585z"/>
<path fill="#0E89CC" d="M687.612,683.791c-9.652-36.788-30.941-66.279-58.112-91.973c-33.942-32.097-73.524-55.826-114.921-76.787
	c-17.334-8.777-34.913-17.067-52.941-24.316c-5.205-2.094-3.143-6.003-3.114-9.171c0.029-3.305,3.146-1.35,4.748-1.496
	c3.801-0.346,7.658,0.003,11.485-0.146c8.923-0.346,15.719-7.474,15.596-16.209c-0.12-8.514-6.861-15.382-15.585-15.709
	c-4.159-0.156-8.338-0.195-12.492,0.015c-2.823,0.142-4.127-0.294-4.006-3.663c0.289-7.987,0.236-15.996,0.018-23.987
	c-0.08-2.944,0.975-3.521,3.646-3.631c6.152-0.256,12.308-0.729,18.426-1.43c5.075-0.581,8.173-4.331,7.678-8.672
	c-0.515-4.506-4.134-7.37-9.254-7.092c-5.487,0.297-10.977,0.656-16.441,1.226c-2.782,0.289-4.313,0.093-4.062-3.412
	c0.332-4.641,0.277-9.336,0.012-13.986c-0.169-2.958,0.977-3.521,3.645-3.63c6.153-0.252,12.31-0.713,18.429-1.414
	c5.075-0.581,8.173-4.344,7.671-8.684c-0.522-4.53-4.108-7.348-9.255-7.08c-4.988,0.258-10.001,0.443-14.942,1.11
	c-4.019,0.542-6.396,0.127-5.538-4.805c0.366-2.103,0.102-4.323,0.057-6.488c-0.194-9.588-6.813-16.362-16.436-16.37
	c-63.646-0.057-127.292-0.055-190.939-0.003c-9.872,0.008-16.468,6.787-16.57,16.733c-0.079,7.663-0.152,15.331,0.047,22.99
	c0.076,2.95-0.652,4.116-3.791,4.171c-5.656,0.099-11.303,0.665-16.954,1.025c-5.679,0.361-9.318,3.803-8.984,8.513
	c0.34,4.787,4.173,7.726,9.953,7.436c5.488-0.275,10.983-0.579,16.446-1.146c2.692-0.279,3.447,0.533,3.315,3.157
	c-0.202,3.989-0.417,8.038,0.045,11.983c0.584,4.984-1.471,6.214-6.062,6.124c-5.143-0.101-10.305,0.523-15.452,0.924
	c-5.021,0.392-8.415,3.821-8.266,8.201c0.157,4.614,3.976,7.897,9.22,7.736c2.826-0.086,5.64-0.5,8.463-0.699
	c12.627-0.892,12.55-0.886,12.071,11.807c-0.09,2.381-0.673,3.157-3.082,3.056c-4.324-0.184-8.664-0.146-12.993-0.029
	c-9.023,0.243-15.907,7.119-15.984,15.835c-0.08,8.91,6.915,15.909,16.205,16.115c4.33,0.096,8.664-0.021,12.995,0.05
	c1.003,0.017,2.236-0.592,2.804,1.17c1.288,3.991-0.461,8.212-4.354,9.881c-36.995,15.862-73.095,33.494-107.112,55.114
	c-30.632,19.469-59.141,41.534-82.256,69.857C14.481,648.101-0.535,684.358,0.015,726.394c0.26,19.813,4.259,38.914,9.573,57.891
	c3.353,11.974,7.459,15.619,19.949,15.618c105.633-0.001,211.266-0.001,316.898-0.003c103.967-0.003,207.934-0.003,311.9-0.003
	c18.865,0,20.446-1.059,25.753-19.097C693.508,748.78,696.188,716.472,687.612,683.791z M422.112,448.03
	c-25.329-0.167-50.658-0.09-75.988-0.088c-25.162,0.002-50.325-0.076-75.487,0.092c-3.528,0.023-4.71-0.852-4.293-4.367
	c0.523-4.409-1.893-10.393,0.977-12.885c2.738-2.377,8.531-1.314,12.99-1.624c47.526-3.295,95.057-6.528,142.577-9.913
	c3.063-0.219,3.595,0.704,3.533,3.428c-0.159,6.996-0.264,14.006,0.033,20.993C426.604,447.174,425.635,448.052,422.112,448.03z
	 M266.645,368.666c0.402-1.505,2.681-0.681,4.096-0.683c31.311-0.041,62.621-0.031,93.931-0.03c7.966,0,15.932,0,23.896,0
	c0.008,0.244,0.015,0.488,0.021,0.732c-8.494,0.621-16.986,1.267-25.482,1.858c-30.725,2.141-61.449,4.284-92.181,6.329
	c-1.442,0.096-3.822,1.294-4.353-0.806C265.983,373.727,266.022,370.997,266.645,368.666z M267.4,393.912
	c3.093-2.734,9.782-1.475,14.9-1.83c46.813-3.253,93.629-6.446,140.436-9.779c2.831-0.202,3.947,0.249,3.674,3.24
	c-0.227,2.476-0.047,4.989-0.044,7.486c0.005,10.318-0.005,10.168-10.37,10.871c-42.333,2.865-84.659,5.83-126.987,8.756
	c-6.143,0.424-12.311,0.628-18.421,1.327c-3.684,0.421-4.802-0.871-4.207-4.273c0.056-0.323-0.011-0.666,0.01-0.997
	C266.72,403.62,264.187,396.753,267.4,393.912z M655.38,764.917c-0.933,3.734-3.312,2.976-5.665,2.976
	c-60.81,0.013-121.619,0.01-182.429,0.009c-40.484,0-80.969,0-121.452-0.001c-100.793-0.002-201.587-0.032-302.38,0.105
	c-4.119,0.006-5.58-1.115-6.589-5.106c-12.529-49.569-0.987-93.097,32.425-131.278c20.479-23.401,44.884-42.066,70.998-58.608
	c35.746-22.643,73.931-40.474,112.714-57.191c6.838-2.947,13.379-3.985,20.56-3.94c23.989,0.148,47.981,0.081,71.971,0.03
	c4.963-0.01,8.293-2.833,8.794-7.086c0.456-3.864-2.133-7.719-6.039-8.618c-1.593-0.366-3.309-0.259-4.969-0.26
	c-24.157-0.014-48.315-0.11-72.47,0.096c-3.837,0.032-4.622-1.021-4.556-4.663c0.208-11.439,0.045-11.441,11.679-11.441
	c47.814,0.001,95.629,0.065,143.444-0.11c4.253-0.016,5.382,1.091,5.038,5.183c-0.388,4.632-0.1,9.321-0.08,13.986
	c0.034,7.882,3.825,13.066,11.095,16.079c30.08,12.462,59.654,26.018,88.088,41.926c32.937,18.429,64.232,39.158,90.545,66.583
	c19.888,20.727,35.256,44.129,41.621,72.636C662.879,719.317,661.065,742.161,655.38,764.917z"/>
<path fill-rule="evenodd" clip-rule="evenodd" fill="#0E89CC" d="M562.865,735.907c23.309,0,46.617-0.012,69.926,0.012
	c5.448,0.004,8.835,2.522,9.486,6.883c0.714,4.78-2.944,8.93-8.26,9.074c-5.324,0.145-10.655,0.035-15.982,0.035
	c-41.789-0.002-83.578-0.02-125.367,0.029c-3.492,0.004-6.688-0.381-8.822-3.498c-1.725-2.519-2.053-5.204-0.6-8.008
	c1.731-3.34,4.548-4.557,8.195-4.545c14.15,0.049,28.303,0.018,42.454,0.016C543.553,735.905,553.209,735.905,562.865,735.907z"/>
<path fill-rule="evenodd" clip-rule="evenodd" fill="#0E89CC" d="M442.45,751.905c-5.151,0-10.305,0.082-15.454-0.023
	c-5.082-0.105-8.493-3.273-8.616-7.766c-0.128-4.672,3.404-8.129,8.7-8.18c10.137-0.093,20.274-0.088,30.411-0.008
	c5.371,0.041,8.894,3.35,8.866,8.021c-0.027,4.671-3.548,7.824-8.951,7.951c-2.491,0.059-4.985,0.006-7.478,0.006
	C447.436,751.905,444.943,751.907,442.45,751.905z"/>
<path fill="#E21D23" d="M506.354,34.706c-0.002-12.603-6.073-18.699-18.626-18.702c-34.649-0.008-69.299-0.112-103.946,0.125
	c-4.738,0.032-5.686-1.392-5.504-5.733c0.323-7.744-2.591-10.385-10.453-10.39c-13.993-0.01-27.986-0.005-41.979-0.001
	c-9.176,0.002-11.62,2.253-11.356,11.482c0.106,3.741-0.863,4.628-4.604,4.611c-34.815-0.162-69.631-0.099-104.447-0.096
	c-12.998,0.001-19.032,5.957-19.034,18.795c-0.005,40.813-0.006,81.626,0,122.438c0.002,12.633,6.053,18.735,18.594,18.737
	c47.143,0.007,94.286,0.003,141.428,0.003c47.144,0.001,94.286,0.003,141.429-0.001c12.283-0.001,18.497-6.154,18.499-18.331
	C506.36,116.665,506.36,75.685,506.354,34.706z M474.447,139.718c0.02,3.502-0.818,4.409-4.341,4.355
	c-11.749-0.179-11.744-0.022-11.739-11.864c0.006-16.665,0.01-33.329-0.008-49.994c-0.006-6.56-3.1-10.368-8.222-10.213
	c-4.953,0.148-7.759,3.787-7.765,10.173c-0.015,19.165-0.097,38.329,0.079,57.492c0.031,3.418-0.689,4.467-4.289,4.414
	c-11.791-0.172-11.794-0.007-11.794-11.834c0.001-16.665,0.014-33.329,0.001-49.994c-0.006-6.58-3.069-10.384-8.191-10.255
	c-4.955,0.125-7.803,3.782-7.808,10.137c-0.014,19.165-0.09,38.329,0.078,57.492c0.029,3.366-0.616,4.5-4.258,4.452
	c-11.801-0.153-11.809,0.018-11.813-11.794c-0.007-17.165,0.037-34.329-0.033-51.494c-0.021-5.357-3.43-8.885-8.124-8.791
	c-4.505,0.091-7.635,3.513-7.839,8.597c-0.04,0.999-0.007,2-0.007,3c-0.001,18.498-0.089,36.996,0.075,55.492
	c0.032,3.622-0.503,5.131-4.705,5.013c-11.364-0.317-11.37-0.086-11.37-11.265c0.001-17.331-0.014-34.662,0.01-51.993
	c0.006-4.628-2.122-7.761-6.628-8.672c-3.836-0.775-6.732,0.991-8.588,4.511c-1.002,1.901-0.778,3.887-0.78,5.863
	c-0.019,18.998-0.141,37.997,0.098,56.992c0.049,3.88-1.084,4.599-4.688,4.535c-11.41-0.201-11.416-0.045-11.417-11.69
	c-0.002-17.164-0.024-34.329,0.019-51.493c0.01-4.152-1.716-7.112-5.636-8.472c-3.574-1.24-6.54,0.045-8.829,2.921
	c-1.55,1.947-1.574,4.28-1.571,6.649c0.031,19.164-0.102,38.329,0.115,57.491c0.043,3.764-0.893,4.673-4.619,4.597
	c-11.483-0.233-11.479-0.058-11.475-11.634c0.006-16.832,0.014-33.663-0.009-50.494c-0.008-6.288-2.982-9.944-7.984-9.949
	c-4.996-0.005-7.991,3.665-7.998,9.938c-0.02,19.332-0.082,38.662,0.065,57.993c0.024,3.184-0.701,4.163-4.042,4.141
	c-12.028-0.08-12.03,0.062-12.03-12.091c0-16.665,0.017-33.329-0.002-49.994c-0.007-6.278-2.976-9.959-7.953-9.991
	c-4.994-0.031-8.034,3.659-8.041,9.902c-0.021,19.332-0.075,38.662,0.063,57.992c0.022,3.125-0.608,4.201-4.009,4.182
	c-12.037-0.067-12.043,0.083-12.048-12.053c-0.007-16.665-0.07-33.33,0.038-49.993c0.028-4.422-1.083-7.983-5.528-9.553
	c-4.254-1.503-7.357,0.454-10.507,4.961c0-9.696,0.113-18.164-0.065-26.625c-0.058-2.714,1.158-2.878,3.278-2.847
	c6.664,0.097,13.331,0.035,19.997,0.035c75.823-0.002,151.646,0.037,227.47-0.112c4.321-0.009,5.44,0.905,5.403,5.344
	C474.248,82.058,474.293,110.89,474.447,139.718z"/>
</svg>
