<?xml version="1.0" encoding="utf-8"?>
<!-- Generator: Adobe Illustrator 16.0.0, SVG Export Plug-In . SVG Version: 6.00 Build 0)  -->
<!DOCTYPE svg PUBLIC "-//W3C//DTD SVG 1.1//EN" "http://www.w3.org/Graphics/SVG/1.1/DTD/svg11.dtd">
<svg version="1.1" id="Layer_1" xmlns="http://www.w3.org/2000/svg" xmlns:xlink="http://www.w3.org/1999/xlink" x="0px" y="0px"
	 width="2530.829px" height="1727.61px" viewBox="462.954 0 2530.829 1727.61" enable-background="new 462.954 0 2530.829 1727.61"
	 xml:space="preserve">
<title>plumbing</title>
<path fill="#E21D23" d="M2071.623,498.244h182.621c36.143-1.042,70.102-17.534,93.268-45.295
	c24.646-27.777,38.716-63.353,39.734-100.474c-0.681-36.444-13.998-71.522-37.677-99.236l-1.853-2.059
	c-23.095-27.966-57.213-44.5-93.474-45.295h-627.745c-35.857,0.795-69.658,16.909-92.854,44.266
	c-24.843,27.982-38.927,63.886-39.735,101.296c0.688,37.495,14.784,73.505,39.735,101.502
	c23.055,27.676,56.853,44.163,92.854,45.295h182.62V693.6h262.504L2071.623,498.244L2071.623,498.244z"/>
<path fill="none" d="M1310.67,992.37c-115.502,15.44-203.21,55.795-266.211,118.178c-63.001,62.384-102.943,148.238-121.268,254.476
	v267.651h353.301v-102.942c-0.213-2.328-0.213-4.672,0-7c4.139-49.03,27.441-94.453,64.854-126.413
	c42.585-32.304,94.797-49.345,148.237-48.385l14.206-2.265l102.943-353.3H1310.67L1310.67,992.37z"/>
<polygon fill="none" points="2377.775,1345.67 2669.516,1345.67 2669.516,992.37 2283.068,992.37 "/>
<path fill="none" d="M1300.992,911.251c3.012-0.314,6.048-0.314,9.06,0h104.056c-45.096-4.112-89.102-3.319-131.383,1.985
	c0.121,0.231,0.236,0.459,0.356,0.69L1300.992,911.251z"/>
<path fill="none" d="M1756.206,775.983l-179.326,611.274c-0.01,4.337-0.705,8.646-2.059,12.766
	c23.53,90.688,87.346,165.582,173.149,203.21c62.529,29.14,130.724,44.113,199.709,43.854
	c68.079,0.635,135.381-14.518,196.62-44.266c83.453-39.339,143.601-115.57,162.444-205.886l-166.563-620.952H1756.206
	L1756.206,775.983z"/>
<rect x="2734.987" y="844.132" fill="none" width="192.503" height="662.747"/>
<path fill="#E21D23" d="M1282.725,913.236c-50.863-98.651-85.744-166.159-102.587-201.283
	c-12.627-24.173-21.71-50.036-26.971-76.795c-8.03-46.119-0.823-98.414,17.5-194.15C1209.785,238.622,1121.872,53.119,911.457,0
	c183.238,416.507-327.771,509.361-336.624,87.09c-77.207,86.06-119.413,193.944-110.767,296.889
	c13.383,158.736,106.236,226.68,207.121,278.975l-0.823-0.412v1.235c119.62,61.147,169.032,82.973,204.032,116.325
	c21.817,21.936,39.963,47.239,53.736,74.942c19.766,35.001,37.061,71.236,86.678,170.68c-10.293,8.646-20.177,17.5-29.646,26.972
	c-8.93,8.953-17.46,18.282-25.62,27.957C1038.141,989.102,1152.182,929.615,1282.725,913.236z"/>
<path fill="#0E89CC" d="M2979.168,805.426c-10.936-10.807-25.809-16.682-41.177-16.266h-213.915
	c-13.745-0.067-27.053,4.831-37.473,13.795l-2.265,1.441c-9.26,9.055-14.521,21.432-14.616,34.383v71.646h-408.479l-49.412-184.062
	c-4.134-18.779-20.714-32.197-39.942-32.324h-100.267v-0.44h-262.504v1.266h-83.59c-18.093,0.154-33.964,12.1-39.118,29.44
	l-54.766,186.944h-217.539H1310.05c-3.012-0.314-6.048-0.314-9.06,0l-17.911,2.677c-0.12-0.231-0.236-0.459-0.356-0.69
	c-130.543,16.379-244.583,75.864-323.181,167.415c-60.883,72.184-100.345,164.262-118.5,274.282c-0.204,2.262-0.204,4.534,0,6.794
	v310.889c0,22.741,18.436,41.178,41.177,41.178h435.86c22.741,0,41.178-18.437,41.178-41.178v-142.679
	c2.158-27.886,14.901-53.889,35.618-72.679c28.449-20.211,62.704-30.616,97.59-29.646h5.146
	c31.106,110.755,109.988,201.864,215.15,248.505c73.524,34.35,153.764,51.931,234.915,51.471
	c80.88,0.743,160.818-17.373,233.476-52.912c100.928-47.952,175.047-138.617,201.975-247.063h285.357v85.647
	c0.096,12.951,5.356,25.328,14.617,34.384c10.988,10.726,25.825,16.587,41.178,16.266h214.738
	c13.788,0.104,27.13-4.88,37.473-14.001l2.676-2.265c9.261-9.056,14.521-21.433,14.617-34.384V839.809
	C2993.689,826.857,2988.429,814.48,2979.168,805.426z M1489.584,1347.936c-53.441-0.961-105.652,16.08-148.237,48.384
	c-37.411,31.96-60.716,77.383-64.854,126.413c-0.214,2.328-0.214,4.672,0,7.001v102.941h-353.3v-267.65
	c18.322-106.237,58.266-192.093,121.267-254.477c63.001-62.383,150.709-102.735,266.211-118.178h296.063l-102.943,353.3
	L1489.584,1347.936z M2144.301,1602.821c-61.238,29.748-128.541,44.899-196.621,44.266c-68.984,0.261-137.179-14.714-199.709-43.854
	c-85.804-37.628-149.617-112.521-173.148-203.21c1.354-4.12,2.049-8.429,2.059-12.766l179.326-611.274h383.979l166.562,620.952
	C2287.9,1487.251,2227.754,1563.482,2144.301,1602.821z M2669.516,1345.67h-291.739l-94.707-353.3h386.446V1345.67z
	 M2927.49,1506.879h-192.503V844.132h192.503V1506.879z"/>
</svg>
