<?xml version="1.0" encoding="utf-8"?>
<!-- Generator: Adobe Illustrator 16.0.0, SVG Export Plug-In . SVG Version: 6.00 Build 0)  -->
<!DOCTYPE svg PUBLIC "-//W3C//DTD SVG 1.1//EN" "http://www.w3.org/Graphics/SVG/1.1/DTD/svg11.dtd">
<svg version="1.1" id="Layer_1" xmlns="http://www.w3.org/2000/svg" xmlns:xlink="http://www.w3.org/1999/xlink" x="0px" y="0px"
	 width="503.518px" height="507.918px" viewBox="98.242 26.043 503.518 507.918"
	 enable-background="new 98.242 26.043 503.518 507.918" xml:space="preserve">
<symbol  id="a" viewBox="-8.836 -14.047 17.672 28.094">
	<path d="M1.633-14.047v6.219h7.203v5H1.633v9.281c0,1.012,0.195,1.699,0.594,2.063c0.406,0.355,1.207,0.531,2.406,0.531h3.594v5
		H2.242c-2.762,0-4.719-0.57-5.875-1.719c-1.156-1.156-1.734-3.113-1.734-5.875v-9.281h-3.469v-5h3.469v-6.219H1.633z"/>
</symbol>
<symbol  id="b" viewBox="-11.742 -11.484 23.484 22.969">
	<path d="M11.742-0.078v2H-4.617c0.175,1.637,0.769,2.867,1.781,3.688c1.02,0.824,2.441,1.234,4.266,1.234
		c1.469,0,2.973-0.219,4.516-0.656C7.484,5.75,9.07,5.09,10.695,4.203v5.391C9.047,10.219,7.398,10.688,5.742,11
		c-1.656,0.32-3.313,0.484-4.969,0.484c-3.961,0-7.039-1.004-9.234-3.016C-10.648,6.461-11.742,3.637-11.742,0
		c0-3.563,1.078-6.363,3.234-8.406c2.156-2.051,5.117-3.078,8.891-3.078c3.438,0,6.188,1.039,8.25,3.109
		C10.703-6.301,11.742-3.535,11.742-0.078L11.742-0.078z M4.555-2.406c0-1.32-0.391-2.391-1.172-3.203
		C2.609-6.422,1.602-6.828,0.352-6.828c-1.355,0-2.461,0.383-3.313,1.141c-0.844,0.762-1.371,1.855-1.578,3.281H4.555z"/>
</symbol>
<symbol  id="c" viewBox="-12.023 -11.484 24.047 22.969">
	<path d="M0.023-6.484c-1.543,0-2.727,0.559-3.547,1.672C-4.336-3.695-4.742-2.094-4.742,0s0.406,3.699,1.219,4.813
		c0.82,1.117,2.004,1.672,3.547,1.672c1.531,0,2.695-0.555,3.5-1.672C4.336,3.699,4.742,2.094,4.742,0S4.336-3.695,3.523-4.813
		C2.719-5.926,1.555-6.484,0.023-6.484z M0.023-11.484c3.77,0,6.711,1.016,8.828,3.047C10.965-6.406,12.023-3.594,12.023,0
		s-1.059,6.406-3.172,8.438c-2.117,2.031-5.059,3.047-8.828,3.047c-3.773,0-6.727-1.016-8.859-3.047
		C-10.961,6.406-12.023,3.594-12.023,0s1.063-6.406,3.188-8.438C-6.703-10.469-3.75-11.484,0.023-11.484z"/>
</symbol>
<symbol  id="d" viewBox="-8.125 -11.203 16.25 22.406">
	<path d="M8.125-4.719C7.508-5,6.898-5.207,6.297-5.344C5.691-5.488,5.082-5.563,4.469-5.563c-1.793,0-3.172,0.578-4.141,1.734
		S-1.125-1.02-1.125,1.125v10.078h-7v-21.875h7v3.594c0.895-1.438,1.926-2.484,3.094-3.141c1.164-0.656,2.563-0.984,4.188-0.984
		c0.227,0,0.477,0.012,0.75,0.031c0.281,0.023,0.68,0.063,1.203,0.125L8.125-4.719z"/>
</symbol>
<symbol  id="e" viewBox="-11 -11.203 22 22.406">
	<path d="M11-2.125v13.328H3.969V1c0-1.883-0.047-3.18-0.141-3.891c-0.086-0.719-0.23-1.25-0.438-1.594
		C3.117-4.941,2.75-5.297,2.281-5.547s-1-0.375-1.594-0.375c-1.461,0-2.605,0.563-3.438,1.688C-3.586-3.109-4-1.551-4,0.438v10.766
		h-7v-21.875h7v3.203c1.051-1.28,2.164-2.223,3.344-2.828c1.188-0.602,2.5-0.906,3.938-0.906c2.52,0,4.438,0.777,5.75,2.328
		C10.344-7.32,11-5.07,11-2.125L11-2.125z"/>
</symbol>
<symbol  id="f" viewBox="-12 -14.578 24 29.156">
	<path d="M-12-14.578H0.484c3.707,0,6.551,0.824,8.531,2.469C11.004-10.461,12-8.117,12-5.078c0,3.063-0.996,5.418-2.984,7.063
		c-1.98,1.648-4.824,2.469-8.531,2.469h-4.969v10.125H-12L-12-14.578z M-4.484-9.141v8.156h4.172c1.457,0,2.582-0.352,3.375-1.063
		C3.852-2.766,4.25-3.773,4.25-5.078c0-1.301-0.398-2.301-1.188-3C2.27-8.785,1.145-9.141-0.312-9.141H-4.484z"/>
</symbol>
<symbol  id="g" viewBox="-9.656 -11.484 19.313 22.969">
	<path d="M9.656-10.266v5.702c-0.949-0.656-1.902-1.14-2.86-1.452C5.835-6.328,4.848-6.484,3.828-6.484
		c-1.961,0-3.484,0.574-4.578,1.719C-1.836-3.629-2.375-2.039-2.375,0c0,2.043,0.539,3.637,1.625,4.78
		c1.094,1.137,2.617,1.703,4.578,1.703c1.094,0,2.129-0.16,3.109-0.484c0.977-0.32,1.883-0.805,2.719-1.453v5.735
		c-1.094,0.398-2.203,0.691-3.328,0.891c-1.125,0.207-2.258,0.313-3.391,0.313c-3.938,0-7.023-1.008-9.25-3.031
		C-8.543,6.422-9.656,3.605-9.656,0c0-3.602,1.113-6.414,3.344-8.438c2.227-2.031,5.313-3.047,9.25-3.047
		c1.145,0,2.273,0.105,3.391,0.313C7.441-10.973,8.551-10.672,9.656-10.266z"/>
</symbol>
<symbol  id="h" viewBox="-15.281 -14.578 30.563 29.156">
	<path d="M-15.281-14.578h7.547L0,6.938l7.719-21.517h7.563L4.484,14.578h-8.969L-15.281-14.578z"/>
</symbol>
<symbol  id="i" viewBox="-12.438 -15.258 24.875 30.516">
	<path d="M-12.438-15.258h7L0.438-0.414l5-14.844h7L3.234,8.695C2.305,11.121,1.227,12.82,0,13.789
		c-1.23,0.977-2.855,1.469-4.875,1.469h-4.047v-4.594h2.188c1.188,0,2.051-0.195,2.594-0.578C-3.602,9.711-3.18,9.039-2.875,8.07
		l0.188-0.609L-12.438-15.258z"/>
</symbol>
<symbol  id="j" viewBox="-11.742 -15.477 23.484 30.953">
	<path d="M-0.102,10.398c1.5,0,2.641-0.547,3.422-1.641c0.789-1.094,1.188-2.68,1.188-4.766c0-2.082-0.398-3.672-1.188-4.766
		C2.539-1.867,1.398-2.414-0.102-2.414s-2.652,0.555-3.453,1.656c-0.793,1.094-1.188,2.68-1.188,4.75
		c0,2.074,0.395,3.664,1.188,4.766C-2.754,9.852-1.602,10.398-0.102,10.398z M-4.742-3.758c0.957-1.281,2.02-2.223,3.188-2.828
		c1.176-0.602,2.523-0.906,4.047-0.906c2.695,0,4.91,1.074,6.641,3.219c1.738,2.137,2.609,4.891,2.609,8.266
		s-0.871,6.137-2.609,8.281c-1.73,2.137-3.945,3.203-6.641,3.203c-1.523,0-2.871-0.305-4.047-0.906
		c-1.168-0.602-2.23-1.547-3.188-2.828v3.172h-7v-30.391h7V-3.758z"/>
</symbol>
<symbol  id="k" viewBox="-11.742 -15.477 23.484 30.953">
	<path d="M4.711-3.758v-11.719h7.031v30.391H4.711v-3.172c-0.969,1.293-2.031,2.242-3.188,2.844c-1.156,0.594-2.5,0.891-4.031,0.891
		c-2.688,0-4.902-1.066-6.641-3.203c-1.73-2.145-2.594-4.906-2.594-8.281s0.863-6.129,2.594-8.266
		c1.738-2.145,3.953-3.219,6.641-3.219c1.508,0,2.848,0.305,4.016,0.906C2.672-5.98,3.742-5.039,4.711-3.758L4.711-3.758z
		 M0.102,10.398c1.488,0,2.629-0.547,3.422-1.641c0.789-1.094,1.188-2.68,1.188-4.766c0-2.082-0.398-3.672-1.188-4.766
		C2.73-1.867,1.59-2.414,0.102-2.414c-1.492,0-2.633,0.547-3.422,1.641C-4.102,0.32-4.492,1.91-4.492,3.992
		c0,2.086,0.391,3.672,1.172,4.766C-2.531,9.852-1.391,10.398,0.102,10.398z"/>
</symbol>
<symbol  id="l" viewBox="-11.063 -11.484 22.125 22.969">
	<path d="M0.391,1.078c-1.461,0-2.559,0.25-3.297,0.75C-3.648,2.32-4.016,3.043-4.016,4c0,0.887,0.297,1.586,0.891,2.094
		c0.594,0.5,1.414,0.75,2.469,0.75c1.32,0,2.43-0.473,3.328-1.422c0.895-0.945,1.344-2.129,1.344-3.547V1.078H0.391z M11.063-1.563
		v12.484H4.016v-3.25C3.078,9.008,2.02,9.977,0.844,10.578c-1.168,0.602-2.59,0.906-4.266,0.906c-2.273,0-4.117-0.66-5.531-1.984
		c-1.406-1.32-2.11-3.035-2.11-5.141c0-2.563,0.879-4.441,2.641-5.641c1.77-1.195,4.54-1.797,8.313-1.797h4.125v-0.547
		c0-1.113-0.438-1.926-1.313-2.438C1.836-6.57,0.477-6.828-1.375-6.828c-1.5,0-2.898,0.152-4.188,0.453
		C-6.843-6.082-8.039-5.633-9.14-5.031v-5.344c1.488-0.363,2.988-0.641,4.5-0.828c1.508-0.188,3.019-0.281,4.531-0.281
		c3.945,0,6.797,0.781,8.547,2.344C10.188-7.586,11.063-5.063,11.063-1.563L11.063-1.563z"/>
</symbol>
<symbol  id="m" viewBox="-5.844 -19.516 11.688 39.031">
	<path d="M-1.156-11h7v21.484c0,2.926-0.703,5.16-2.109,6.703c-1.406,1.551-3.449,2.328-6.125,2.328h-3.453v-4.594h1.203
		c1.332,0,2.242-0.305,2.734-0.906c0.5-0.594,0.75-1.773,0.75-3.531V-11z M-1.156-19.516h7v5.703h-7V-19.516z"/>
</symbol>
<symbol  id="n" viewBox="-11 -11.219 22 22.438">
	<path d="M-11,2.141v-13.359h7.031v2.188c0,1.188-0.008,2.68-0.016,4.469C-3.996-2.781-4-1.586-4-0.984
		c0,1.762,0.039,3.027,0.125,3.797c0.094,0.773,0.25,1.336,0.469,1.688c0.289,0.461,0.664,0.813,1.125,1.063
		c0.469,0.242,1,0.359,1.594,0.359c1.457,0,2.602-0.555,3.438-1.672C3.582,3.125,4,1.57,4-0.422v-10.797h7v21.875H4V7.484
		c-1.055,1.281-2.168,2.227-3.344,2.828c-1.18,0.602-2.48,0.906-3.906,0.906c-2.523,0-4.445-0.77-5.766-2.313
		C-10.34,7.355-11,5.102-11,2.141L-11,2.141z"/>
</symbol>
<symbol  id="o" viewBox="-13.07 -14.578 26.141 29.156">
	<path d="M-13.07-14.578h8.406l10.594,20v-20h7.141v29.156H4.664l-10.609-20v20h-7.125L-13.07-14.578z"/>
</symbol>
<symbol  id="p" viewBox="-11 -15.195 22 30.392">
	<path d="M11,1.867v13.328H3.969V5.039c0-1.914-0.047-3.227-0.141-3.938c-0.086-0.719-0.23-1.25-0.438-1.594
		C3.117-0.949,2.75-1.305,2.281-1.555s-1-0.375-1.594-0.375c-1.461,0-2.605,0.563-3.438,1.688C-3.586,0.883-4,2.441-4,4.43v10.767
		h-7v-30.392h7v11.719c1.051-1.28,2.164-2.223,3.344-2.828c1.188-0.602,2.5-0.906,3.938-0.906c2.52,0,4.438,0.777,5.75,2.328
		C10.344-3.328,11-1.078,11,1.867L11,1.867z"/>
</symbol>
<symbol  id="q" viewBox="-17.594 -11.203 35.188 22.406">
	<path d="M2.719-7.047c0.883-1.352,1.93-2.383,3.141-3.094c1.219-0.707,2.555-1.063,4.016-1.063c2.52,0,4.438,0.777,5.75,2.328
		c1.313,1.555,1.969,3.805,1.969,6.75v13.328h-7.031V-0.203c0.008-0.164,0.02-0.336,0.031-0.516
		c0.008-0.188,0.016-0.453,0.016-0.797c0-1.551-0.23-2.672-0.688-3.359C9.461-5.57,8.727-5.922,7.719-5.922
		c-1.336,0-2.367,0.547-3.094,1.641c-0.719,1.094-1.09,2.672-1.109,4.734v10.75h-7.031V-0.203c0-2.426-0.211-3.984-0.625-4.672
		C-4.559-5.57-5.305-5.922-6.375-5.922c-1.336,0-2.367,0.555-3.094,1.656c-0.73,1.094-1.094,2.664-1.094,4.703v10.766h-7.031
		v-21.875h7.031v3.203c0.852-1.238,1.836-2.172,2.953-2.797c1.113-0.625,2.344-0.938,3.688-0.938c1.508,0,2.844,0.367,4,1.094
		C1.234-9.379,2.113-8.359,2.719-7.047L2.719-7.047z"/>
</symbol>
<symbol  id="r" viewBox="-8.492 -15.195 16.984 30.391">
	<path d="M8.492-15.195v4.594H4.633c-0.992,0-1.684,0.18-2.078,0.531C2.168-9.715,1.977-9.094,1.977-8.211v1.531h5.969v5H1.977
		v16.875h-7V-1.68h-3.469v-5h3.469v-1.531c0-2.375,0.66-4.129,1.984-5.266c1.332-1.145,3.395-1.719,6.188-1.719H8.492z"/>
</symbol>
<symbol  id="s" viewBox="-3.5 -15.195 7 30.391">
	<path d="M-3.5-6.68h7v21.875h-7V-6.68z M-3.5-15.195h7v5.703h-7V-15.195z"/>
</symbol>
<symbol  id="t" viewBox="-9.922 -11.484 19.844 22.969">
	<path d="M8.453-10.265v5.313c-1.5-0.625-2.949-1.095-4.344-1.406C2.723-6.671,1.41-6.827,0.172-6.827
		c-1.336,0-2.324,0.168-2.969,0.5C-3.434-6.003-3.75-5.491-3.75-4.796c0,0.555,0.238,0.98,0.719,1.28
		c0.488,0.305,1.367,0.527,2.641,0.672l1.219,0.172C4.41-2.211,6.82-1.461,8.063-0.422c1.238,1.044,1.859,2.673,1.859,4.891
		c0,2.336-0.859,4.09-2.578,5.266c-1.719,1.168-4.289,1.75-7.703,1.75c-1.449,0-2.945-0.117-4.484-0.344
		c-1.543-0.227-3.125-0.566-4.75-1.016V4.813C-8.199,5.492-6.773,6-5.313,6.344c1.469,0.336,2.957,0.5,4.469,0.5
		c1.363,0,2.391-0.188,3.078-0.563C2.93,5.898,3.281,5.336,3.281,4.594c0-0.625-0.242-1.086-0.719-1.391
		c-0.48-0.313-1.43-0.551-2.844-0.719l-1.234-0.156c-3.105-0.395-5.281-1.117-6.531-2.172c-1.25-1.051-1.875-2.648-1.875-4.797
		c0-2.32,0.789-4.039,2.375-5.156c1.594-1.125,4.031-1.688,7.313-1.688c1.281,0,2.629,0.102,4.047,0.297
		C5.238-10.988,6.785-10.68,8.453-10.265L8.453-10.265z"/>
</symbol>
<symbol  id="u" viewBox="-12.398 -15.125 24.797 30.25">
	<path d="M12.398,12.953c-1.375,0.719-2.813,1.262-4.313,1.625s-3.063,0.547-4.688,0.547c-4.855,0-8.703-1.352-11.547-4.063
		c-2.836-2.719-4.25-6.398-4.25-11.047c0-4.664,1.414-8.352,4.25-11.063c2.844-2.719,6.691-4.078,11.547-4.078
		c1.625,0,3.188,0.184,4.688,0.547c1.5,0.367,2.938,0.906,4.313,1.625v6.031C11-7.867,9.625-8.563,8.273-9
		C6.918-9.445,5.496-9.672,4.008-9.672c-2.688,0-4.805,0.859-6.344,2.578c-1.531,1.719-2.297,4.09-2.297,7.109
		c0,3,0.766,5.359,2.297,7.078c1.539,1.719,3.656,2.578,6.344,2.578c1.488,0,2.91-0.219,4.266-0.656
		C9.625,8.57,11,7.871,12.398,6.922V12.953z"/>
</symbol>
<path fill="#0E89CC" d="M438.96,243.24c-67.918,20-120.24,76.879-134.48,146.319H137.44C154.721,227.64,277.84,98.76,438.8,74.12
	v166.16c0.004,1.039,0.082,2,0.164,2.96L438.96,243.24z"/>
<path fill="#0E89CC" d="M300.48,505v22.961c0,3.281-2.723,6-6,6h-153.2c-3.277,0-6-2.719-6-6V505H300.48z"/>
<path fill="#0E89CC" d="M601.76,75.961v153.2c0,3.277-2.719,6-6,6h-41.52l0.004-165.2h41.52
	C599.041,69.961,601.76,72.68,601.76,75.961z"/>
<path fill="#E21D23" d="M542.24,51.082v189.2c0,13.84-11.281,25.039-25.121,25.039h-41.277c-13.84,0-25.039-11.199-25.039-25.039
	l-0.004-189.2c0-13.84,11.199-25.039,25.039-25.039h41.277C530.959,26.039,542.24,37.242,542.24,51.082L542.24,51.082z"/>
<path fill="#E21D23" d="M337.52,426.68v41.281c0,13.84-11.199,25.039-25.039,25.039h-189.2c-13.84,0-25.039-11.199-25.039-25.039
	V426.68c0-13.84,11.199-25.117,25.039-25.117h189.2C326.321,401.563,337.52,412.84,337.52,426.68z"/>
<g display="none">
	
		<use xlink:href="#u"  width="24.797" height="30.25" x="-12.398" y="-15.125" transform="matrix(23.1405 0 0 23.1405 420 1030)" display="inline" overflow="visible"/>
	
		<use xlink:href="#d"  width="16.25" height="22.406" x="-8.125" y="-11.203" transform="matrix(31.2413 0 0 -31.2413 -882.6445 140)" display="inline" overflow="visible"/>
	
		<use xlink:href="#b"  width="23.484" height="22.969" x="-11.742" y="-11.484" transform="matrix(29.8071 0 0 -29.8071 -862.918 140)" display="inline" overflow="visible"/>
	
		<use xlink:href="#l"  width="22.125" height="22.969" x="-11.063" y="-11.484" transform="matrix(30.4762 0 0 -30.4762 -835.7891 140)" display="inline" overflow="visible"/>
	
		<use xlink:href="#a"  width="17.672" height="28.094" x="-8.836" y="-14.047" transform="matrix(24.9166 0 0 -24.9166 -808.7969 140)" display="inline" overflow="visible"/>
	
		<use xlink:href="#b"  width="23.484" height="22.969" x="-11.742" y="-11.484" transform="matrix(29.8071 0 0 -29.8071 -789.6758 140)" display="inline" overflow="visible"/>
	
		<use xlink:href="#k"  width="23.484" height="30.953" x="-11.742" y="-15.477" transform="matrix(22.6148 0 0 -22.6148 -762.5469 140)" display="inline" overflow="visible"/>
	
		<use xlink:href="#j"  width="23.484" height="30.953" x="-11.742" y="-15.477" transform="matrix(22.6148 0 0 -22.6148 -719.9883 140)" display="inline" overflow="visible"/>
	
		<use xlink:href="#i"  width="24.875" height="30.516" x="-12.438" y="-15.258" transform="matrix(22.9391 0 0 -22.9391 -691.3555 140)" display="inline" overflow="visible"/>
	
		<use xlink:href="#h"  width="30.563" height="29.156" x="-15.281" y="-14.578" transform="matrix(22.9039 0 0 -22.9039 -651.3555 140)" display="inline" overflow="visible"/>
	
		<use xlink:href="#b"  width="23.484" height="22.969" x="-11.742" y="-11.484" transform="matrix(29.8071 0 0 -29.8071 -620.3984 140)" display="inline" overflow="visible"/>
	
		<use xlink:href="#g"  width="19.313" height="22.969" x="-9.656" y="-11.484" transform="matrix(30.4762 0 0 -30.4762 -593.2695 140)" display="inline" overflow="visible"/>
	
		<use xlink:href="#a"  width="17.672" height="28.094" x="-8.836" y="-14.047" transform="matrix(24.9166 0 0 -24.9166 -569.5586 140)" display="inline" overflow="visible"/>
	
		<use xlink:href="#c"  width="24.047" height="22.969" x="-12.023" y="-11.484" transform="matrix(29.1098 0 0 -29.1098 -550.4375 140)" display="inline" overflow="visible"/>
	
		<use xlink:href="#d"  width="16.25" height="22.406" x="-8.125" y="-11.203" transform="matrix(31.2413 0 0 -31.2413 -522.957 140)" display="inline" overflow="visible"/>
	
		<use xlink:href="#t"  width="19.844" height="22.969" x="-9.922" y="-11.484" transform="matrix(30.4762 0 0 -30.4762 -503.2305 140)" display="inline" overflow="visible"/>
	
		<use xlink:href="#f"  width="24" height="29.156" x="-12" y="-14.578" transform="matrix(24.0086 0 0 -24.0086 -465.4961 140)" display="inline" overflow="visible"/>
	
		<use xlink:href="#c"  width="24.047" height="22.969" x="-12.023" y="-11.484" transform="matrix(29.1098 0 0 -29.1098 -436.1797 140)" display="inline" overflow="visible"/>
	
		<use xlink:href="#s"  width="7" height="30.391" x="-3.5" y="-15.195" transform="matrix(23.0334 0 0 -23.0334 -408.6992 140)" display="inline" overflow="visible"/>
	
		<use xlink:href="#e"  width="22" height="22.406" x="-11" y="-11.203" transform="matrix(31.2413 0 0 -31.2413 -394.9883 140)" display="inline" overflow="visible"/>
	
		<use xlink:href="#a"  width="17.672" height="28.094" x="-8.836" y="-14.047" transform="matrix(24.9166 0 0 -24.9166 -366.5117 140)" display="inline" overflow="visible"/>
	
		<use xlink:href="#r"  width="16.984" height="30.391" x="-8.492" y="-15.195" transform="matrix(23.0334 0 0 -23.0334 -912 100)" display="inline" overflow="visible"/>
	
		<use xlink:href="#d"  width="16.25" height="22.406" x="-8.125" y="-11.203" transform="matrix(31.2413 0 0 -31.2413 -894.5977 100)" display="inline" overflow="visible"/>
	
		<use xlink:href="#c"  width="24.047" height="22.969" x="-12.023" y="-11.484" transform="matrix(29.1098 0 0 -29.1098 -874.8711 100)" display="inline" overflow="visible"/>
	
		<use xlink:href="#q"  width="35.188" height="22.406" x="-17.594" y="-11.203" transform="matrix(19.8934 0 0 -19.8934 -847.3906 100)" display="inline" overflow="visible"/>
	
		<use xlink:href="#a"  width="17.672" height="28.094" x="-8.836" y="-14.047" transform="matrix(24.9166 0 0 -24.9166 -791.7852 100)" display="inline" overflow="visible"/>
	
		<use xlink:href="#p"  width="22" height="30.392" x="-11" y="-15.195" transform="matrix(23.0327 0 0 -23.0327 -772.6641 99.9888)" display="inline" overflow="visible"/>
	
		<use xlink:href="#b"  width="23.484" height="22.969" x="-11.742" y="-11.484" transform="matrix(29.8071 0 0 -29.8071 -744.1875 100)" display="inline" overflow="visible"/>
	
		<use xlink:href="#o"  width="26.141" height="29.156" x="-13.07" y="-14.578" transform="matrix(24.0086 0 0 -24.0086 -703.1328 100)" display="inline" overflow="visible"/>
	
		<use xlink:href="#c"  width="24.047" height="22.969" x="-12.023" y="-11.484" transform="matrix(29.1098 0 0 -29.1098 -669.6563 100)" display="inline" overflow="visible"/>
	
		<use xlink:href="#n"  width="22" height="22.438" x="-11" y="-11.219" transform="matrix(31.1978 0 0 -31.1978 -642.1758 100)" display="inline" overflow="visible"/>
	
		<use xlink:href="#e"  width="22" height="22.406" x="-11" y="-11.203" transform="matrix(31.2413 0 0 -31.2413 -613.6992 100)" display="inline" overflow="visible"/>
	
		<use xlink:href="#f"  width="24" height="29.156" x="-12" y="-14.578" transform="matrix(24.0086 0 0 -24.0086 -571.2969 100)" display="inline" overflow="visible"/>
	
		<use xlink:href="#d"  width="16.25" height="22.406" x="-8.125" y="-11.203" transform="matrix(31.2413 0 0 -31.2413 -541.9805 100)" display="inline" overflow="visible"/>
	
		<use xlink:href="#c"  width="24.047" height="22.969" x="-12.023" y="-11.484" transform="matrix(29.1098 0 0 -29.1098 -522.2539 100)" display="inline" overflow="visible"/>
	
		<use xlink:href="#m"  width="11.688" height="39.031" x="-5.844" y="-19.516" transform="matrix(17.9343 0 0 -17.9343 -494.7734 100)" display="inline" overflow="visible"/>
	
		<use xlink:href="#b"  width="23.484" height="22.969" x="-11.742" y="-11.484" transform="matrix(29.8071 0 0 -29.8071 -481.0625 100)" display="inline" overflow="visible"/>
	
		<use xlink:href="#g"  width="19.313" height="22.969" x="-9.656" y="-11.484" transform="matrix(30.4762 0 0 -30.4762 -453.9336 100)" display="inline" overflow="visible"/>
	
		<use xlink:href="#a"  width="17.672" height="28.094" x="-8.836" y="-14.047" transform="matrix(24.9166 0 0 -24.9166 -430.2227 100)" display="inline" overflow="visible"/>
</g>
</svg>
