<svg width="300" height="362" viewBox="0 0 300 362" fill="none" xmlns="http://www.w3.org/2000/svg">
<path d="M281.938 40.5824V40.8549H196.661V38.529C196.661 34.9614 197.333 34.1861 200.985 33.7379V29.6797C198.478 29.3405 197.272 28.3411 197.212 26.5724C197.151 24.8037 198.241 23.8407 201.04 23.1865V20.5941C198.399 20.0368 197.194 18.9829 197.212 17.299C197.23 15.6152 198.423 14.5673 201.125 14.1433C201.125 13.1136 201.082 12.0536 201.125 10.9936C201.228 9.07961 201.833 8.47996 203.723 8.40728C204.85 8.35882 205.982 8.40728 207.109 8.40728H273.373C273.943 8.40728 274.506 8.40728 275.069 8.40728C276.886 8.51631 277.492 9.1523 277.492 10.9391C277.522 13.7011 277.492 16.4571 277.492 19.1888C280.272 19.6613 281.411 20.6607 281.381 22.4839C281.35 24.192 280.242 25.1187 277.565 25.6214V28.2744C280.339 29.0134 281.405 29.9098 281.411 31.5089C281.411 33.2049 280.308 34.1679 277.559 34.8221V37.2449C278.098 37.3055 278.643 37.3358 279.17 37.4327C279.948 37.4992 280.671 37.864 281.187 38.451C281.703 39.038 281.972 39.8017 281.938 40.5824Z" fill="#E21D23"/>
<path d="M277.722 62.8844H201.028C201.056 62.7943 201.07 62.7003 201.07 62.6058C201.137 57.3604 201.1 52.1089 201.07 46.8574H277.534V48.0688C277.534 52.757 277.474 57.4452 277.577 62.1273C277.582 62.3861 277.631 62.6421 277.722 62.8844Z" fill="#E21D23"/>
<path d="M283.246 200.089C283.246 225.84 283.222 251.588 283.173 277.335C283.173 289.194 283.258 301.054 283.246 312.908C283.246 321.285 281.187 329.147 276.583 336.161C267.437 350.092 254.487 357.524 237.739 356.797C218.829 355.979 205.801 346.076 198.369 328.844C196.146 323.689 195.389 318.147 195.407 312.49C195.485 291.478 195.407 270.466 195.407 249.454C195.407 212.239 195.407 175.025 195.407 137.81C195.407 129.33 196.648 120.935 197.66 112.534C198.526 105.314 199.532 98.1003 200.137 90.856C200.695 84.2235 200.797 77.5305 201.1 70.9041C201.1 70.8435 201.1 70.7769 201.1 70.7163H277.413C277.583 76.1677 277.595 81.4918 278.134 86.7493C279.436 99.5479 281.35 112.28 282.471 125.084C283.228 133.788 283.198 142.571 283.252 151.318C283.337 167.563 283.264 183.826 283.246 200.089Z" fill="#E21D23"/>
<path d="M153.783 41.7514C153.813 44.9738 151.299 45.6522 148.561 45.7128V66.3431H12.1141V55.0588C8.18912 54.6106 6.75965 53.5264 6.83839 51.1459C6.91713 48.8564 8.53437 47.6631 12.211 47.3421V35.8337C10.5756 35.228 9.10979 34.9433 7.87415 34.2286C7.30479 33.8954 6.97165 32.8052 6.89291 32.0238C6.65668 29.71 7.79541 28.8257 12.211 27.7051C12.211 22.9503 12.1747 18.1592 12.2413 13.362C12.2423 12.3603 12.4722 11.372 12.9136 10.4728C13.7132 8.95248 15.1668 8.35889 16.881 8.35889C38.6864 8.38715 60.4918 8.4134 82.2972 8.43763C95.7378 8.43763 109.172 8.38311 122.613 8.35889C129.393 8.35889 136.169 8.35889 142.94 8.35889C147.005 8.35889 148.525 9.91555 148.525 14.0222V18.1713C150.233 18.8921 151.753 19.3827 153.056 20.1641C153.565 20.4851 153.783 21.5693 153.813 22.3143C153.91 24.6463 152.456 25.7487 148.646 26.3362V38.2747C151.263 38.0506 153.758 38.5109 153.783 41.7514Z" fill="#0E89CC"/>
<path d="M143.97 91.6797C136.635 98.4636 129.718 105.647 124.273 114.091C119.434 121.431 116.885 130.043 116.95 138.834C117.053 183.959 116.95 229.084 117.034 274.209C117.034 281.332 114.236 287.238 110.154 292.695C104.932 299.667 98.6452 305.348 90.3228 308.504C89.7613 308.824 89.3319 309.333 89.1114 309.94C87.7849 313.059 86.416 314.034 83.0543 314.052C80.9646 314.052 78.875 314.052 76.7853 314.052C75.6556 314.014 74.5639 313.635 73.6537 312.965C72.7435 312.294 72.0573 311.364 71.6852 310.297C71.4257 309.529 70.8934 308.882 70.1891 308.48C62.3574 305.385 56.2579 300.103 51.176 293.537C48.5776 290.182 46.1729 286.675 44.9797 282.568C44.234 280.146 43.8263 277.633 43.7683 275.1C43.7137 249.914 43.7683 224.729 43.7683 199.538C43.7683 178.944 43.6895 158.35 43.7016 137.719C43.7016 128.21 40.3884 119.887 35.0824 112.183C29.7764 104.478 23.2893 97.8337 16.4752 91.4617C13.5617 88.7481 12.0838 85.5682 12.1989 81.6008C12.2473 79.82 12.1989 78.0392 12.1989 76.0889H148.483C148.483 77.7909 148.434 79.4202 148.483 81.0435C148.743 85.4046 147.126 88.7663 143.97 91.6797Z" fill="#0E89CC"/>
</svg>
