<svg width="254" height="283" viewBox="0 0 254 283" fill="none" xmlns="http://www.w3.org/2000/svg">
<g clip-path="url(#clip0_23_74)">
<path d="M26.83 117.08C19.83 109.95 21.77 100.55 23.11 91.3601C23.6067 89.4189 24.6475 87.6599 26.11 86.2901C32.06 79.9801 50.99 80.5101 56.61 87.0601C57.5744 88.1926 58.3326 89.4855 58.85 90.8801C61.59 98.6501 59.47 111.41 54.28 118.07C57.05 120.29 60.02 122.34 62.61 124.79C78.98 140.34 81.85 159.62 76.81 180.45C73.81 193 70.39 205.45 72.34 218.36C73.72 227.48 77.45 236.22 79.34 245.3C80.75 252.06 81.79 259.14 81.42 265.99C80.8 277.25 73.89 282.99 62.72 282.99H18.23C8.80997 282.99 2.59997 277.88 0.779974 268.53C-1.44003 257.11 1.33997 246.24 5.48997 235.84C12.07 219.35 11.08 202.9 6.48997 186.35C1.75997 169.26 0.489974 152.26 10.12 136.56C14.45 129.47 20.98 123.77 26.83 117.08ZM40.42 181.08V180.73C43.249 180.859 46.0827 180.842 48.91 180.68C52.7661 180.361 56.3811 178.674 59.1025 175.923C61.8238 173.172 63.4721 169.539 63.75 165.68C64.37 158.37 59.21 150.37 51.86 149.43C44.6164 148.5 37.2836 148.5 30.04 149.43C22.95 150.35 18.04 157.49 18.04 164.64C18.029 168.179 19.2069 171.618 21.3848 174.407C23.5627 177.196 26.6143 179.173 30.05 180.02C33.4 180.79 36.95 180.74 40.42 181.06V181.08Z" fill="#E21D23"/>
<path d="M188.42 73.1799L206.56 61.7199V136.42L148.96 98.7799C157.39 93.3299 164.96 88.1899 172.79 83.4999C176.18 81.4999 176.54 79.8299 174.45 76.4999C163.59 59.0899 153.05 41.5499 142.21 24.1799C133.21 9.67991 113.58 10.1799 105.44 25.1799C96.44 41.7199 87.8 58.4299 79 75.0599C78.5069 76.1166 77.9492 77.1419 77.33 78.1299C74.82 81.7499 70.99 82.8599 67.84 80.6399C64.34 78.1799 63.61 75.0299 65.74 71.0799C72.45 58.6199 79.02 46.0799 85.64 33.5799C88.21 28.7299 90.64 23.8199 93.34 19.0099C106.73 -5.30009 138.72 -6.44009 153.56 17.0099C164.24 33.8999 174.56 51.0099 185.01 68.0099C186.05 69.6199 187.15 71.1799 188.42 73.1799Z" fill="#0E89CC"/>
<path d="M166.14 276.51L109.05 237.18C128.66 225.18 147.59 213.68 167.37 201.61C167.37 210.24 167.42 217.81 167.37 225.39C167.31 232.18 167.25 232.15 174.12 232.12C188.61 232.07 203.12 232.12 217.6 231.98C235.98 231.75 245.28 214.86 235.81 198.98C227.97 185.78 220.05 172.663 212.05 159.63C208.83 154.32 209.17 150.24 213.15 147.94C217.13 145.64 220.34 147.07 223.53 152.37C231.67 165.93 240.01 179.37 248.04 192.99C257.57 209.14 253.61 228.22 238.7 239.24C232.26 244 224.88 245.59 217.05 245.62C202.05 245.68 187.05 245.84 172.05 245.67C168.05 245.62 166.75 247 166.8 250.81C166.87 257.63 166.65 264.46 166.51 271.29C166.52 272.71 166.33 274.18 166.14 276.51Z" fill="#0E89CC"/>
</g>
<defs>
<clipPath id="clip0_23_74">
<rect width="253.23" height="282.95" fill="white"/>
</clipPath>
</defs>
</svg>
