<?xml version="1.0" encoding="utf-8"?>
<!-- Generator: Adobe Illustrator 16.0.0, SVG Export Plug-In . SVG Version: 6.00 Build 0)  -->
<!DOCTYPE svg PUBLIC "-//W3C//DTD SVG 1.1//EN" "http://www.w3.org/Graphics/SVG/1.1/DTD/svg11.dtd">
<svg version="1.1" id="Layer_1" xmlns="http://www.w3.org/2000/svg" xmlns:xlink="http://www.w3.org/1999/xlink" x="0px" y="0px"
	 width="490px" height="490.004px" viewBox="105 34.996 490 490.004" enable-background="new 105 34.996 490 490.004"
	 xml:space="preserve">
<symbol  id="a" viewBox="-12.844 -12.563 25.688 25.125">
	<path d="M12.844-0.094v2.188H-5.047C-4.86,3.887-4.215,5.23-3.11,6.125c1.113,0.898,2.672,1.344,4.672,1.344
		c1.602,0,3.25-0.234,4.938-0.703c1.688-0.477,3.422-1.203,5.203-2.172v5.891c-1.805,0.688-3.609,1.203-5.422,1.547
		c-1.813,0.352-3.621,0.531-5.422,0.531c-4.336,0-7.703-1.098-10.109-3.297C-11.648,7.059-12.844,3.969-12.844,0
		c0-3.906,1.176-6.973,3.531-9.203c2.363-2.238,5.609-3.359,9.734-3.359c3.758,0,6.77,1.137,9.031,3.406
		C11.711-6.895,12.844-3.875,12.844-0.094L12.844-0.094z M4.984-2.625c0-1.457-0.43-2.629-1.281-3.516
		C2.859-7.035,1.754-7.484,0.391-7.484c-1.492,0-2.699,0.418-3.625,1.25c-0.918,0.836-1.492,2.039-1.719,3.609H4.984z"/>
</symbol>
<symbol  id="b" viewBox="-13.125 -16.617 26.25 33.235">
	<path d="M-13.125-16.617h7.656V1.478l8.797-8.781h8.891L0.531,3.665l12.594,12.953H3.859l-9.328-9.969v9.969h-7.656V-16.617z"/>
</symbol>
<symbol  id="c" viewBox="-19.25 -12.251 38.5 24.501">
	<path d="M2.969-7.703c0.969-1.477,2.118-2.602,3.453-3.375c1.332-0.781,2.797-1.172,4.391-1.172c2.75,0,4.844,0.852,6.281,2.547
		c1.438,1.688,2.156,4.152,2.156,7.391V12.25h-7.688V-0.22c0.008-0.188,0.02-0.379,0.031-0.578c0.008-0.195,0.016-0.484,0.016-0.859
		c0-1.695-0.25-2.926-0.75-3.688c-0.5-0.758-1.309-1.141-2.422-1.141c-1.449,0-2.57,0.602-3.359,1.797
		c-0.793,1.199-1.203,2.93-1.234,5.188v11.75h-7.688V-0.22c0-2.656-0.23-4.363-0.688-5.125C-4.98-6.103-5.789-6.485-6.953-6.485
		c-1.469,0-2.605,0.605-3.406,1.813c-0.793,1.199-1.188,2.918-1.188,5.156V12.25h-7.703v-23.923h7.703v3.5
		c0.938-1.352,2.016-2.367,3.234-3.047c1.219-0.688,2.555-1.031,4.016-1.031c1.656,0,3.113,0.402,4.375,1.203
		C1.348-10.255,2.313-9.142,2.969-7.703L2.969-7.703z"/>
</symbol>
<symbol  id="d" viewBox="-13.602 -16.68 27.203 33.359">
	<path d="M-13.602-16.68h7.656L0.477-0.445L5.945-16.68h7.656L3.54,9.508c-1.012,2.664-2.195,4.523-3.547,5.578
		c-1.344,1.063-3.121,1.594-5.328,1.594h-4.422v-5.016h2.391c1.301,0,2.242-0.211,2.828-0.625c0.594-0.406,1.055-1.148,1.391-2.219
		l0.203-0.656L-13.602-16.68z"/>
</symbol>
<symbol  id="e" viewBox="-12.844 -16.929 25.688 33.858">
	<path d="M-0.109,11.367c1.632,0,2.882-0.598,3.75-1.797c0.863-1.195,1.297-2.93,1.297-5.203c0-2.281-0.434-4.02-1.297-5.219
		c-0.867-1.195-2.118-1.797-3.75-1.797c-1.637,0-2.891,0.605-3.766,1.813C-4.75,0.363-5.188,2.098-5.188,4.367
		c0,2.262,0.438,3.996,1.313,5.203C-3,10.77-1.746,11.367-0.109,11.367L-0.109,11.367z M-5.188-4.117
		c1.051-1.395,2.219-2.422,3.5-3.078c1.281-0.664,2.754-1,4.422-1C5.68-8.195,8.102-7.023,10-4.68
		c1.895,2.344,2.844,5.359,2.844,9.047S11.895,11.07,10,13.414c-1.898,2.344-4.32,3.516-7.266,3.516c-1.668,0-3.141-0.336-4.422-1
		c-1.282-0.664-2.449-1.691-3.5-3.078v3.453h-7.656v-33.233h7.656V-4.117z"/>
</symbol>
<symbol  id="f" viewBox="-12.836 -16.93 25.672 33.859">
	<path d="M5.148-4.117V-16.93h7.688v33.234H5.148v-3.453c-1.055,1.406-2.215,2.438-3.484,3.094
		c-1.273,0.656-2.742,0.984-4.406,0.984c-2.949,0-5.371-1.172-7.266-3.516c-1.887-2.344-2.828-5.359-2.828-9.047
		s0.941-6.703,2.828-9.047c1.895-2.344,4.316-3.516,7.266-3.516c1.656,0,3.117,0.336,4.391,1C2.93-6.539,4.094-5.512,5.148-4.117
		L5.148-4.117z M0.102,11.367c1.645,0,2.895-0.598,3.75-1.798c0.863-1.194,1.297-2.93,1.297-5.202c0-2.281-0.434-4.02-1.297-5.22
		c-0.855-1.195-2.105-1.797-3.75-1.797c-1.625,0-2.871,0.602-3.734,1.797c-0.855,1.199-1.281,2.938-1.281,5.22
		c0,2.272,0.426,4.008,1.281,5.202C-2.77,10.769-1.523,11.367,0.102,11.367z"/>
</symbol>
<symbol  id="g" viewBox="-9.665 -15.359 19.329 30.719">
	<path d="M1.789-15.359v6.797h7.875v5.469H1.789V7.047c0,1.117,0.219,1.871,0.656,2.266C2.883,9.699,3.758,9.891,5.07,9.891h3.938
		v5.469H2.445c-3.023,0-5.165-0.629-6.422-1.891c-1.262-1.258-1.89-3.398-1.89-6.422V-3.094h-3.797v-5.469h3.797v-6.797H1.789z"/>
</symbol>
<symbol  id="h" viewBox="-12.102 -12.563 24.203 25.125">
	<path d="M0.414,1.173c-1.594,0-2.793,0.273-3.594,0.813c-0.805,0.543-1.203,1.34-1.203,2.391c0,0.969,0.32,1.73,0.969,2.281
		C-2.77,7.2-1.868,7.47-0.711,7.47c1.438,0,2.645-0.516,3.625-1.547c0.988-1.031,1.484-2.32,1.484-3.875V1.173H0.414z M12.102-1.718
		v13.655H4.398V8.391C3.367,9.84,2.211,10.898,0.93,11.563s-2.84,1-4.672,1c-2.48,0-4.496-0.723-6.047-2.172
		c-1.543-1.445-2.313-3.32-2.313-5.625c0-2.813,0.961-4.867,2.891-6.172c1.938-1.313,4.969-1.969,9.094-1.969h4.516v-0.609
		c0-1.207-0.48-2.094-1.438-2.656C2.012-7.203,0.523-7.484-1.508-7.484c-1.637,0-3.156,0.168-4.563,0.5
		C-7.477-6.66-8.79-6.172-10.008-5.516v-5.828c1.644-0.406,3.289-0.707,4.938-0.906c1.656-0.207,3.305-0.313,4.953-0.313
		c4.32,0,7.438,0.855,9.344,2.563C11.141-8.301,12.102-5.539,12.102-1.718L12.102-1.718z"/>
</symbol>
<symbol  id="i" viewBox="-8.891 -12.25 17.781 24.501">
	<path d="M8.891-5.156c-0.68-0.313-1.352-0.539-2.016-0.688C6.219-6,5.555-6.078,4.891-6.078c-1.969,0-3.484,0.633-4.547,1.891
		c-1.055,1.262-1.578,3.07-1.578,5.422v11.017h-7.656v-23.923h7.656v3.922c0.977-1.563,2.102-2.702,3.375-3.422
		c1.281-0.719,2.813-1.078,4.594-1.078c0.25,0,0.523,0.012,0.828,0.031c0.301,0.023,0.734,0.07,1.297,0.141L8.891-5.156z"/>
</symbol>
<symbol  id="j" viewBox="-3.828 -16.617 7.656 33.234">
	<path d="M-3.828-7.305h7.656v23.922h-7.656V-7.305z M-3.828-16.617h7.656v6.234h-7.656V-16.617z"/>
</symbol>
<symbol  id="k" viewBox="-12.031 -12.25 24.063 24.5">
	<path d="M12.031-2.313v14.563H4.328V1.093c0-2.063-0.047-3.484-0.141-4.266C4.102-3.954,3.945-4.532,3.719-4.907
		C3.414-5.407,3.008-5.79,2.5-6.063C1.988-6.345,1.406-6.485,0.75-6.485c-1.594,0-2.852,0.617-3.766,1.844
		c-0.906,1.23-1.359,2.938-1.359,5.125V12.25h-7.656v-23.922h7.656v3.5c1.145-1.395,2.363-2.422,3.656-3.078
		c1.301-0.664,2.738-1,4.313-1c2.758,0,4.852,0.852,6.281,2.547C11.313-8.016,12.031-5.551,12.031-2.313L12.031-2.313z"/>
</symbol>
<symbol  id="l" viewBox="-13.148 -12.563 26.297 25.125">
	<path d="M0.039-7.094c-1.699,0-2.996,0.609-3.891,1.828C-4.738-4.047-5.18-2.289-5.18,0c0,2.293,0.441,4.047,1.328,5.266
		c0.895,1.219,2.191,1.828,3.891,1.828c1.664,0,2.938-0.609,3.813-1.828C4.734,4.047,5.18,2.293,5.18,0
		c0-2.289-0.445-4.047-1.328-5.266C2.977-6.484,1.703-7.094,0.039-7.094z M0.039-12.563c4.113,0,7.328,1.109,9.641,3.328
		S13.148-3.938,13.148,0c0,3.93-1.156,7.008-3.469,9.234c-2.313,2.219-5.527,3.328-9.641,3.328c-4.137,0-7.371-1.109-9.703-3.328
		C-11.988,7.008-13.148,3.93-13.148,0c0-3.938,1.16-7.016,3.484-9.234C-7.332-11.453-4.098-12.563,0.039-12.563z"/>
</symbol>
<symbol  id="m" viewBox="-13.57 -16.547 27.141 33.094">
	<path d="M13.571,14.172c-1.512,0.781-3.09,1.371-4.734,1.766c-1.637,0.406-3.34,0.609-5.109,0.609
		c-5.313,0-9.527-1.484-12.641-4.453C-12.02,9.125-13.57,5.094-13.57,0s1.551-9.125,4.656-12.094
		c3.113-2.97,7.328-4.453,12.641-4.453c1.77,0,3.473,0.199,5.109,0.594c1.645,0.398,3.223,0.992,4.734,1.78v6.595
		c-1.531-1.039-3.039-1.801-4.516-2.281c-1.48-0.488-3.039-0.734-4.672-0.734c-2.938,0-5.246,0.945-6.922,2.828
		C-4.218-5.891-5.054-3.301-5.054,0c0,3.293,0.836,5.883,2.516,7.766c1.676,1.875,3.984,2.813,6.922,2.813
		c1.633,0,3.191-0.238,4.672-0.719c1.477-0.488,2.984-1.254,4.516-2.298V14.172z"/>
</symbol>
<path fill="#E21D23" d="M507.5,210c11.707,0,23.398,0.785,35,2.355V34.996H490v131.25c0,2.32-0.922,4.547-2.563,6.188
	s-3.867,2.563-6.188,2.563h-140c-4.832,0-8.75-3.918-8.75-8.75V34.996H280v88.84c11.012,8.219,17.5,21.152,17.5,34.895v44.012
	c0.016,6.969-2.754,13.652-7.691,18.566c-3.414,3.418-3.414,8.957,0,12.375c4.938,4.914,7.707,11.598,7.691,18.566v2.992
	c0.016,6.969-2.754,13.652-7.691,18.566c-3.414,3.418-3.414,8.957,0,12.375c4.938,4.914,7.707,11.598,7.691,18.566v2.993
	c0.016,6.969-2.754,13.651-7.691,18.565c-3.414,3.418-3.414,8.957,0,12.375c4.938,4.914,7.707,11.599,7.691,18.566v2.992
	c0.016,6.969-2.754,13.652-7.691,18.565c-3.414,3.419-3.414,8.957,0,12.375c4.938,4.915,7.707,11.599,7.691,18.566v2.992
	c0.016,6.969-2.754,13.652-7.691,18.566c-3.414,3.418-3.414,8.957,0,12.375c4.938,4.914,7.707,11.598,7.691,18.565v36.496
	c-0.031,9.496-3.188,18.723-8.977,26.25h130.91l-1.094-17.5h-94.586v-17.5h93.492l-14.638-233.69h0.191
	c0-0.324-0.098-0.641-0.113-0.961h-0.121c-0.063-0.535-0.063-1.059-0.063-1.602c0-28.727,52.824-43.75,105-43.75L507.5,210z"/>
<path fill="#0E89CC" d="M105,462.25v36.496c0,6.961,2.766,13.641,7.688,18.562s11.602,7.688,18.562,7.688h122.5
	c6.961,0,13.641-2.766,18.562-7.688s7.688-11.602,7.688-18.562V462.25c0-2.324-0.922-4.551-2.563-6.195
	c-4.926-4.922-7.691-11.602-7.691-18.563c0-6.965,2.766-13.641,7.691-18.562c1.648-1.637,2.57-3.863,2.563-6.188v-2.992
	c0-2.324-0.922-4.551-2.563-6.195c-4.926-4.922-7.691-11.603-7.691-18.562c0-6.965,2.766-13.642,7.691-18.563
	c1.648-1.637,2.57-3.863,2.563-6.188v-2.992c0-2.324-0.922-4.551-2.563-6.195c-4.926-4.922-7.691-11.602-7.691-18.563
	c0-6.965,2.766-13.641,7.691-18.562c1.648-1.637,2.57-3.863,2.563-6.188v-2.992c0-2.324-0.922-4.551-2.563-6.195
	c-4.926-4.922-7.691-11.602-7.691-18.562c0-6.965,2.766-13.641,7.691-18.562c1.648-1.637,2.57-3.863,2.563-6.188v-2.992
	c0-2.324-0.922-4.551-2.563-6.195c-4.926-4.922-7.691-11.602-7.691-18.562c0-6.965,2.766-13.641,7.691-18.562
	c1.648-1.637,2.57-3.863,2.563-6.188v-44.012c0.023-8.793-4.367-17.012-11.691-21.875l-36.918-24.613h0.004
	c-2.422-1.617-3.883-4.332-3.895-7.246v-17.5h-70v17.5c0,2.926-1.461,5.656-3.895,7.281l-36.914,24.613
	c-7.316,4.86-11.703,13.059-11.691,21.84v44.012c0,2.324,0.922,4.551,2.563,6.195c4.926,4.922,7.691,11.602,7.691,18.562
	c0,6.965-2.766,13.641-7.691,18.562c-1.648,1.637-2.57,3.863-2.563,6.188v2.992c0,2.324,0.922,4.551,2.563,6.195
	c4.926,4.922,7.691,11.602,7.691,18.562c0,6.965-2.766,13.641-7.691,18.562c-1.648,1.637-2.57,3.863-2.563,6.188v2.992
	c0,2.324,0.922,4.551,2.563,6.195c4.926,4.922,7.691,11.603,7.691,18.563c0,6.964-2.766,13.641-7.691,18.562
	c-1.648,1.637-2.57,3.863-2.563,6.188v2.992c0,2.324,0.922,4.551,2.563,6.195c4.926,4.922,7.691,11.602,7.691,18.563
	c0,6.965-2.766,13.641-7.691,18.562c-1.648,1.637-2.57,3.863-2.563,6.188v2.992c0,2.324,0.922,4.551,2.563,6.195
	c4.926,4.922,7.691,11.603,7.691,18.563c0,6.964-2.766,13.641-7.691,18.562C105.914,457.699,104.992,459.926,105,462.25L105,462.25z
	 M253.75,446.246h-122.5v-17.5h122.5V446.246z M253.75,393.746h-122.5v-17.5h122.5V393.746z M253.75,341.246h-122.5v-17.5h122.5
	V341.246z M253.75,288.746h-122.5v-17.5h122.5V288.746z M253.75,218.746v17.5h-122.5v-17.5H253.75z M161.395,128.113l9.711,14.559
	l-12.984,8.652l-9.703-14.559L161.395,128.113z M122.5,163.41c-0.012-5.852,2.918-11.32,7.797-14.559l4.621-3.078l9.703,14.559
	L140,163.41v37.836h-17.5V163.41z"/>
<path fill="#E21D23" d="M595,253.75c0,14.496-39.176,26.25-87.5,26.25S420,268.246,420,253.75s39.176-26.25,87.5-26.25
	S595,239.254,595,253.75"/>
<path fill="#E21D23" d="M157.5,43.75V70h70V43.75c0-2.32-0.922-4.547-2.563-6.188S221.07,35,218.75,35h-52.5
	C161.418,35,157.5,38.918,157.5,43.75z"/>
<path fill="#0E89CC" d="M551.25,525h26.785l2.188-35h-145.45l2.188,35H551.25z"/>
<path fill="#0E89CC" d="M586.8,385h-158.61l1.095,17.5h156.42L586.8,385z"/>
<path fill="#0E89CC" d="M589,350H426l1.105,17.5h160.8L589,350z"/>
<path fill="#0E89CC" d="M593.38,280c-20.031,11.551-53.069,17.5-85.883,17.5s-65.871-5.949-85.898-17.5l3.297,52.5h165.19
	L593.38,280z"/>
<path fill="#0E89CC" d="M582.42,455H432.58l1.094,17.5h147.64L582.42,455z"/>
<path fill="#0E89CC" d="M584.61,420H430.39l1.094,17.5h152.03L584.61,420z"/>
<g display="none">
	
		<use xlink:href="#m"  width="27.141" height="33.094" x="-13.57" y="-16.547" transform="matrix(21.152 0 0 21.152 419.9951 1041.25)" display="inline" overflow="visible"/>
	
		<use xlink:href="#i"  width="17.781" height="24.501" x="-8.891" y="-12.25" transform="matrix(28.5703 0 0 -28.5703 -879.8906 128.7363)" display="inline" overflow="visible"/>
	
		<use xlink:href="#a"  width="25.688" height="25.125" x="-12.844" y="-12.563" transform="matrix(27.2506 0 0 -27.2506 -858.3164 128.75)" display="inline" overflow="visible"/>
	
		<use xlink:href="#h"  width="24.203" height="25.125" x="-12.102" y="-12.563" transform="matrix(27.8607 0 0 -27.8607 -828.6445 128.75)" display="inline" overflow="visible"/>
	
		<use xlink:href="#g"  width="19.329" height="30.719" x="-9.665" y="-15.359" transform="matrix(22.7874 0 0 -22.7874 -799.1157 128.75)" display="inline" overflow="visible"/>
	
		<use xlink:href="#a"  width="25.688" height="25.125" x="-12.844" y="-12.563" transform="matrix(27.2506 0 0 -27.2506 -778.207 128.75)" display="inline" overflow="visible"/>
	
		<use xlink:href="#f"  width="25.672" height="33.859" x="-12.836" y="-16.93" transform="matrix(20.6737 0 0 -20.6737 -748.5352 128.75)" display="inline" overflow="visible"/>
	
		<use xlink:href="#e"  width="25.688" height="33.858" x="-12.844" y="-16.929" transform="matrix(20.6743 0 0 -20.6743 -701.9883 128.7397)" display="inline" overflow="visible"/>
	
		<use xlink:href="#d"  width="27.203" height="33.359" x="-13.602" y="-16.68" transform="matrix(20.9836 0 0 -20.9836 -670.6719 128.75)" display="inline" overflow="visible"/>
	
		<use xlink:href="#c"  width="38.5" height="24.501" x="-19.25" y="-12.251" transform="matrix(18.1818 0 0 -18.1818 -626.9219 128.7588)" display="inline" overflow="visible"/>
	
		<use xlink:href="#l"  width="26.297" height="25.125" x="-13.148" y="-12.563" transform="matrix(26.6191 0 0 -26.6191 -581.332 128.75)" display="inline" overflow="visible"/>
	
		<use xlink:href="#k"  width="24.063" height="24.5" x="-12.031" y="-12.25" transform="matrix(28.5714 0 0 -28.5714 -551.2773 128.75)" display="inline" overflow="visible"/>
	
		<use xlink:href="#b"  width="26.25" height="33.235" x="-13.125" y="-16.617" transform="matrix(21.0619 0 0 -21.0619 -520.124 128.7397)" display="inline" overflow="visible"/>
	
		<use xlink:href="#j"  width="7.656" height="33.234" x="-3.828" y="-16.617" transform="matrix(21.0625 0 0 -21.0625 -491.0352 128.75)" display="inline" overflow="visible"/>
	
		<use xlink:href="#b"  width="26.25" height="33.235" x="-13.125" y="-16.617" transform="matrix(21.0619 0 0 -21.0619 -476.0342 128.7397)" display="inline" overflow="visible"/>
</g>
</svg>
