<?xml version="1.0" encoding="utf-8"?>
<!-- Generator: Adobe Illustrator 16.0.0, SVG Export Plug-In . SVG Version: 6.00 Build 0)  -->
<!DOCTYPE svg PUBLIC "-//W3C//DTD SVG 1.1//EN" "http://www.w3.org/Graphics/SVG/1.1/DTD/svg11.dtd">
<svg version="1.1" id="Layer_1" xmlns="http://www.w3.org/2000/svg" xmlns:xlink="http://www.w3.org/1999/xlink" x="0px" y="0px"
	 width="351.755px" height="227.5px" viewBox="174.12 166.25 351.755 227.5" enable-background="new 174.12 166.25 351.755 227.5"
	 xml:space="preserve">
<symbol  id="a" viewBox="-12.836 -16.93 25.672 33.859">
	<path d="M5.148-4.117V-16.93h7.688v33.234H5.148v-3.453c-1.055,1.406-2.215,2.438-3.484,3.094
		c-1.273,0.656-2.742,0.984-4.406,0.984c-2.949,0-5.371-1.172-7.266-3.516c-1.887-2.344-2.828-5.359-2.828-9.047
		s0.941-6.703,2.828-9.047c1.895-2.344,4.316-3.516,7.266-3.516c1.656,0,3.117,0.336,4.391,1C2.93-6.539,4.094-5.512,5.148-4.117
		L5.148-4.117z M0.102,11.367c1.645,0,2.895-0.598,3.75-1.798c0.863-1.194,1.297-2.93,1.297-5.202c0-2.281-0.434-4.02-1.297-5.22
		c-0.855-1.195-2.105-1.797-3.75-1.797c-1.625,0-2.871,0.602-3.734,1.797c-0.855,1.199-1.281,2.938-1.281,5.22
		c0,2.272,0.426,4.008,1.281,5.202C-2.77,10.769-1.523,11.367,0.102,11.367z"/>
</symbol>
<symbol  id="b" viewBox="-12.844 -12.563 25.688 25.125">
	<path d="M12.844-0.094v2.188H-5.047C-4.86,3.887-4.215,5.23-3.11,6.125c1.113,0.898,2.672,1.344,4.672,1.344
		c1.602,0,3.25-0.234,4.938-0.703c1.688-0.477,3.422-1.203,5.203-2.172v5.891c-1.805,0.688-3.609,1.203-5.422,1.547
		c-1.813,0.352-3.621,0.531-5.422,0.531c-4.336,0-7.703-1.098-10.109-3.297C-11.648,7.059-12.844,3.969-12.844,0
		c0-3.906,1.176-6.973,3.531-9.203c2.363-2.238,5.609-3.359,9.734-3.359c3.758,0,6.77,1.137,9.031,3.406
		C11.711-6.895,12.844-3.875,12.844-0.094L12.844-0.094z M4.984-2.625c0-1.457-0.43-2.629-1.281-3.516
		C2.859-7.035,1.754-7.484,0.391-7.484c-1.492,0-2.699,0.418-3.625,1.25c-0.918,0.836-1.492,2.039-1.719,3.609H4.984z"/>
</symbol>
<symbol  id="c" viewBox="-12.102 -12.563 24.203 25.125">
	<path d="M0.414,1.173c-1.594,0-2.793,0.273-3.594,0.813c-0.805,0.543-1.203,1.34-1.203,2.391c0,0.969,0.32,1.73,0.969,2.281
		C-2.77,7.2-1.868,7.47-0.711,7.47c1.438,0,2.645-0.516,3.625-1.547c0.988-1.031,1.484-2.32,1.484-3.875V1.173H0.414z M12.102-1.718
		v13.655H4.398V8.391C3.367,9.84,2.211,10.898,0.93,11.563s-2.84,1-4.672,1c-2.48,0-4.496-0.723-6.047-2.172
		c-1.543-1.445-2.313-3.32-2.313-5.625c0-2.813,0.961-4.867,2.891-6.172c1.938-1.313,4.969-1.969,9.094-1.969h4.516v-0.609
		c0-1.207-0.48-2.094-1.438-2.656C2.012-7.203,0.523-7.484-1.508-7.484c-1.637,0-3.156,0.168-4.563,0.5
		C-7.477-6.66-8.79-6.172-10.008-5.516v-5.828c1.644-0.406,3.289-0.707,4.938-0.906c1.656-0.207,3.305-0.313,4.953-0.313
		c4.32,0,7.438,0.855,9.344,2.563C11.141-8.301,12.102-5.539,12.102-1.718L12.102-1.718z"/>
</symbol>
<symbol  id="d" viewBox="-8.891 -12.25 17.781 24.501">
	<path d="M8.891-5.156c-0.68-0.313-1.352-0.539-2.016-0.688C6.219-6,5.555-6.078,4.891-6.078c-1.969,0-3.484,0.633-4.547,1.891
		c-1.055,1.262-1.578,3.07-1.578,5.422v11.017h-7.656v-23.923h7.656v3.922c0.977-1.563,2.102-2.702,3.375-3.422
		c1.281-0.719,2.813-1.078,4.594-1.078c0.25,0,0.523,0.012,0.828,0.031c0.301,0.023,0.734,0.07,1.297,0.141L8.891-5.156z"/>
</symbol>
<symbol  id="e" viewBox="-12.031 -12.25 24.063 24.5">
	<path d="M12.031-2.313v14.563H4.328V1.093c0-2.063-0.047-3.484-0.141-4.266C4.102-3.954,3.945-4.532,3.719-4.907
		C3.414-5.407,3.008-5.79,2.5-6.063C1.988-6.345,1.406-6.485,0.75-6.485c-1.594,0-2.852,0.617-3.766,1.844
		c-0.906,1.23-1.359,2.938-1.359,5.125V12.25h-7.656v-23.922h7.656v3.5c1.145-1.395,2.363-2.422,3.656-3.078
		c1.301-0.664,2.738-1,4.313-1c2.758,0,4.852,0.852,6.281,2.547C11.313-8.016,12.031-5.551,12.031-2.313L12.031-2.313z"/>
</symbol>
<symbol  id="f" viewBox="-16.71 -15.945 33.421 31.891">
	<path d="M6.445,10.133H-6.414l-2.031,5.813h-8.266l11.812-31.891h9.797L16.71,15.945H8.445L6.445,10.133z M-4.367,4.211h8.734
		L0.008-8.478L-4.367,4.211z"/>
</symbol>
<symbol  id="g" viewBox="-13.602 -16.68 27.203 33.359">
	<path d="M-13.602-16.68h7.656L0.477-0.445L5.945-16.68h7.656L3.54,9.508c-1.012,2.664-2.195,4.523-3.547,5.578
		c-1.344,1.063-3.121,1.594-5.328,1.594h-4.422v-5.016h2.391c1.301,0,2.242-0.211,2.828-0.625c0.594-0.406,1.055-1.148,1.391-2.219
		l0.203-0.656L-13.602-16.68z"/>
</symbol>
<symbol  id="h" viewBox="-12.844 -16.929 25.688 33.858">
	<path d="M-0.109,11.367c1.632,0,2.882-0.598,3.75-1.797c0.863-1.195,1.297-2.93,1.297-5.203c0-2.281-0.434-4.02-1.297-5.219
		c-0.867-1.195-2.118-1.797-3.75-1.797c-1.637,0-2.891,0.605-3.766,1.813C-4.75,0.363-5.188,2.098-5.188,4.367
		c0,2.262,0.438,3.996,1.313,5.203C-3,10.77-1.746,11.367-0.109,11.367L-0.109,11.367z M-5.188-4.117
		c1.051-1.395,2.219-2.422,3.5-3.078c1.281-0.664,2.754-1,4.422-1C5.68-8.195,8.102-7.023,10-4.68
		c1.895,2.344,2.844,5.359,2.844,9.047S11.895,11.07,10,13.414c-1.898,2.344-4.32,3.516-7.266,3.516c-1.668,0-3.141-0.336-4.422-1
		c-1.282-0.664-2.449-1.691-3.5-3.078v3.453h-7.656v-33.233h7.656V-4.117z"/>
</symbol>
<symbol  id="i" viewBox="-9.665 -15.359 19.329 30.719">
	<path d="M1.789-15.359v6.797h7.875v5.469H1.789V7.047c0,1.117,0.219,1.871,0.656,2.266C2.883,9.699,3.758,9.891,5.07,9.891h3.938
		v5.469H2.445c-3.023,0-5.165-0.629-6.422-1.891c-1.262-1.258-1.89-3.398-1.89-6.422V-3.094h-3.797v-5.469h3.797v-6.797H1.789z"/>
</symbol>
<symbol  id="j" viewBox="-12.023 -12.273 24.047 24.548">
	<path d="M-12.023,2.336v-14.609h7.688v2.391c0,1.293-0.012,2.918-0.031,4.875c-0.012,1.961-0.016,3.266-0.016,3.922
		c0,1.93,0.047,3.313,0.141,4.156c0.102,0.844,0.281,1.461,0.531,1.844c0.313,0.5,0.719,0.887,1.219,1.156
		c0.508,0.273,1.094,0.406,1.75,0.406c1.594,0,2.844-0.609,3.75-1.828c0.914-1.227,1.375-2.93,1.375-5.109v-11.812h7.641v23.922
		H4.383V8.196C3.227,9.583,2,10.61,0.711,11.274c-1.281,0.664-2.699,1-4.25,1c-2.773,0-4.883-0.848-6.328-2.547
		C-11.305,8.032-12.023,5.567-12.023,2.336L-12.023,2.336z"/>
</symbol>
<symbol  id="k" viewBox="-13.125 -15.946 26.25 31.892">
	<path d="M-0.344-3.602c1.289,0,2.27-0.281,2.938-0.844c0.676-0.57,1.016-1.414,1.016-2.531c0-1.094-0.34-1.926-1.016-2.5
		c-0.668-0.582-1.648-0.875-2.938-0.875h-4.563v6.75H-0.344z M-0.078,10.352c1.656,0,2.898-0.348,3.734-1.047
		c0.832-0.695,1.25-1.754,1.25-3.172c0-1.375-0.418-2.406-1.25-3.094c-0.824-0.695-2.07-1.047-3.734-1.047h-4.828v8.359H-0.078z
		 M7.578-1.117c1.758,0.512,3.125,1.46,4.094,2.844c0.969,1.375,1.453,3.07,1.453,5.078c0,3.074-1.043,5.367-3.125,6.875
		c-2.074,1.512-5.23,2.266-9.469,2.266h-13.656v-31.892h12.344c4.426,0,7.633,0.672,9.625,2.016
		c1.988,1.336,2.984,3.477,2.984,6.422c0,1.555-0.367,2.875-1.094,3.969C10.004-2.454,8.954-1.649,7.578-1.117L7.578-1.117z"/>
</symbol>
<symbol  id="l" viewBox="-13.57 -16.547 27.141 33.094">
	<path d="M13.571,14.172c-1.512,0.781-3.09,1.371-4.734,1.766c-1.637,0.406-3.34,0.609-5.109,0.609
		c-5.313,0-9.527-1.484-12.641-4.453C-12.02,9.125-13.57,5.094-13.57,0s1.551-9.125,4.656-12.094
		c3.113-2.97,7.328-4.453,12.641-4.453c1.77,0,3.473,0.199,5.109,0.594c1.645,0.398,3.223,0.992,4.734,1.78v6.595
		c-1.531-1.039-3.039-1.801-4.516-2.281c-1.48-0.488-3.039-0.734-4.672-0.734c-2.938,0-5.246,0.945-6.922,2.828
		C-4.218-5.891-5.054-3.301-5.054,0c0,3.293,0.836,5.883,2.516,7.766c1.676,1.875,3.984,2.813,6.922,2.813
		c1.633,0,3.191-0.238,4.672-0.719c1.477-0.488,2.984-1.254,4.516-2.298V14.172z"/>
</symbol>
<g id="Layer_3">
	<path display="none" d="M422.62,246.75v-20.125h66.5v107.62h-66.5V314.12c12.25-4.375,21.875-17.5,21.875-33.25
		s-9.625-29.75-21.875-34.125V246.75z M489.12,208.25h-75.25c-5.25,0-8.75,3.5-8.75,8.75v36.75c0,5.25,3.5,8.75,8.75,8.75
		c7,0,13.125,7.875,13.125,17.5s-6.125,17.5-13.125,17.5c-5.25,0-8.75,3.5-8.75,8.75V343c0,5.25,3.5,8.75,8.75,8.75h75.25v42h-185.5
		v-42h75.25c5.25,0,8.75-3.5,8.75-8.75v-36.75c0-5.25-3.5-8.75-8.75-8.75c-7,0-13.125-7.875-13.125-17.5s6.125-17.5,13.125-17.5
		c5.25,0,8.75-3.5,8.75-8.75V217c0-5.25-3.5-8.75-8.75-8.75h-75.25v-42h185.5V208.25z M370.12,313.25v20.125h-66.5v-107.62h66.5
		v20.125c-12.25,4.375-21.875,17.5-21.875,33.25s9.625,29.75,21.875,34.125V313.25z M174.12,307.125V243.25h35l35.875,11.375v41.125
		l-35.875,11.375H174.12z M227.495,319.375l28.875-8.75c3.5-0.875,6.125-4.375,6.125-8.75v-54.25c0-3.5-2.625-7-6.125-8.75
		l-28.875-8.75V166.25h58.625V392h-58.625V319.375z M525.875,392.875h-19.25v-226.62h19.25V392.875z"/>
	<polygon fill="#E21D23" points="174.12,307.125 174.12,243.25 209.12,243.25 244.995,254.625 244.995,295.75 209.12,307.125 	"/>
	<path fill="#0E89CC" d="M422.62,246.75v-20.125h66.5v107.62h-66.5V314.12c12.25-4.375,21.875-17.5,21.875-33.25
		s-9.625-29.75-21.875-34.125V246.75z"/>
	<path fill="#0E89CC" d="M370.12,313.25v20.125h-66.5v-107.62h66.5v20.125c-12.25,4.375-21.875,17.5-21.875,33.25
		s9.625,29.75,21.875,34.125V313.25z"/>
	<polyline fill="#E21D23" points="506.625,166.255 525.875,166.255 525.875,392.875 506.625,392.875 	"/>
	<path fill="#0E89CC" d="M256.37,310.625c3.5-0.875,6.125-4.375,6.125-8.75v-54.25c0-3.5-2.625-7-6.125-8.75l-28.875-8.75V166.25
		h58.625V392h-58.625v-72.625L256.37,310.625"/>
	<path fill="#E21D23" d="M387.62,217c0-5.25-3.5-8.75-8.75-8.75h-75.25v-42h185.5v42h-75.25c-5.25,0-8.75,3.5-8.75,8.75"/>
	<path fill="#E21D23" d="M405.12,217v36.75c0,5.25,3.5,8.75,8.75,8.75c7,0,13.125,7.875,13.125,17.5s-6.125,17.5-13.125,17.5
		c-5.25,0-8.75,3.5-8.75,8.75V343c0,5.25,3.5,8.75,8.75,8.75h75.25v42h-185.5v-42h75.25c5.25,0,8.75-3.5,8.75-8.75v-36.75
		c0-5.25-3.5-8.75-8.75-8.75c-7,0-13.125-7.875-13.125-17.5s6.125-17.5,13.125-17.5c5.25,0,8.75-3.5,8.75-8.75V217"/>
</g>
<g id="Layer_2">
	<g display="none">
		
			<use xlink:href="#l"  width="27.141" height="33.094" x="-13.57" y="-16.547" transform="matrix(21.152 0 0 21.152 419.9951 1041.25)" display="inline" overflow="visible"/>
		
			<use xlink:href="#d"  width="17.781" height="24.501" x="-8.891" y="-12.25" transform="matrix(28.5703 0 0 -28.5703 -879.8906 128.7363)" display="inline" overflow="visible"/>
		
			<use xlink:href="#b"  width="25.688" height="25.125" x="-12.844" y="-12.563" transform="matrix(27.2506 0 0 -27.2506 -858.3164 128.75)" display="inline" overflow="visible"/>
		
			<use xlink:href="#c"  width="24.203" height="25.125" x="-12.102" y="-12.563" transform="matrix(27.8607 0 0 -27.8607 -828.6445 128.75)" display="inline" overflow="visible"/>
		
			<use xlink:href="#i"  width="19.329" height="30.719" x="-9.665" y="-15.359" transform="matrix(22.7874 0 0 -22.7874 -799.1157 128.75)" display="inline" overflow="visible"/>
		
			<use xlink:href="#b"  width="25.688" height="25.125" x="-12.844" y="-12.563" transform="matrix(27.2506 0 0 -27.2506 -778.207 128.75)" display="inline" overflow="visible"/>
		
			<use xlink:href="#a"  width="25.672" height="33.859" x="-12.836" y="-16.93" transform="matrix(20.6737 0 0 -20.6737 -748.5352 128.75)" display="inline" overflow="visible"/>
		
			<use xlink:href="#h"  width="25.688" height="33.858" x="-12.844" y="-16.929" transform="matrix(20.6743 0 0 -20.6743 -701.9883 128.7397)" display="inline" overflow="visible"/>
		
			<use xlink:href="#g"  width="27.203" height="33.359" x="-13.602" y="-16.68" transform="matrix(20.9836 0 0 -20.9836 -670.6719 128.75)" display="inline" overflow="visible"/>
		
			<use xlink:href="#f"  width="33.421" height="31.891" x="-16.71" y="-15.945" transform="matrix(20.945 0 0 -20.945 -626.9219 128.75)" display="inline" overflow="visible"/>
		
			<use xlink:href="#e"  width="24.063" height="24.5" x="-12.031" y="-12.25" transform="matrix(28.5714 0 0 -28.5714 -593.0625 128.75)" display="inline" overflow="visible"/>
		
			<use xlink:href="#a"  width="25.672" height="33.859" x="-12.836" y="-16.93" transform="matrix(20.6737 0 0 -20.6737 -561.9141 128.75)" display="inline" overflow="visible"/>
		
			<use xlink:href="#d"  width="17.781" height="24.501" x="-8.891" y="-12.25" transform="matrix(28.5703 0 0 -28.5703 -530.5977 128.7363)" display="inline" overflow="visible"/>
		
			<use xlink:href="#b"  width="25.688" height="25.125" x="-12.844" y="-12.563" transform="matrix(27.2506 0 0 -27.2506 -509.0234 128.75)" display="inline" overflow="visible"/>
		
			<use xlink:href="#k"  width="26.25" height="31.892" x="-13.125" y="-15.946" transform="matrix(21.9494 0 0 -21.9494 -464.1226 128.7607)" display="inline" overflow="visible"/>
		
			<use xlink:href="#j"  width="24.047" height="24.548" x="-12.023" y="-12.273" transform="matrix(28.5157 0 0 -28.5157 -430.7695 128.7363)" display="inline" overflow="visible"/>
		
			<use xlink:href="#c"  width="24.203" height="25.125" x="-12.102" y="-12.563" transform="matrix(27.8607 0 0 -27.8607 -399.625 128.75)" display="inline" overflow="visible"/>
		
			<use xlink:href="#e"  width="24.063" height="24.5" x="-12.031" y="-12.25" transform="matrix(28.5714 0 0 -28.5714 -370.1016 128.75)" display="inline" overflow="visible"/>
		
			<use xlink:href="#a"  width="25.672" height="33.859" x="-12.836" y="-16.93" transform="matrix(20.6737 0 0 -20.6737 -338.957 128.75)" display="inline" overflow="visible"/>
	</g>
</g>
</svg>
